<svg xmlns="http://www.w3.org/2000/svg" width="1424" height="1687">
  <path fill="#ffffff" d="M0 0v323.9l3.3-.6c2.3-.3 8 .8 17.8 3.6 7.9 2.3 17.8 4.6 21.9 5.2 12.4 1.6 28.3 5.9 30.2 8.1.9 1 2 3.9 2.4 6.3.6 4.2.4 4.6-4.9 11.3-3 3.7-8.9 9.9-13.2 13.7-4.2 3.8-9.5 9.3-11.8 12.3s-5.7 6.3-7.6 7.3c-2 1.1-4.3 3.4-5.3 5.6-1 2-2.9 4.9-4.2 6.3s-4 5.2-6.2 8.5c-2.1 3.3-6.6 8.7-10.1 12.1-3.4 3.3-7.6 8.4-9.2 11.3C0 440.1 0 440.1 0 455.5V471l2.5.6c1.5.4 6.9-.4 12.8-1.9l10.2-2.5 2.2 2.3c2.1 2.4 2.1 2.5.4 8.2l-4 12.2c-4.9 14.3-6.1 23.7-6.6 53.5-.6 34.9 1.5 87.3 4.5 110.6.6 4.7 1.5 13.5 2.1 19.5 1.2 13.3 4.2 23.4 8.5 28.3 1.7 2.1 5.6 7.8 8.5 12.7 5.8 10 14.4 21.9 17.9 25 4.1 3.6 13.5 15.9 17.7 23 2.2 3.9 7.8 14.4 12.3 23.5 10 20 12.9 24.6 21.8 34.7 12.1 13.7 30 23.5 46.6 25.4 4.4.5 8.6 1.5 9.4 2.3 1.2 1.2 1.1 1.6-1.2 3.1-6.1 4-8.6 14.8-5.3 22.8 1.8 4.2 8.6 10.3 12.5 11.2 3.6.8 4.6 1.8 6.1 6.6 1.5 4.5 4.8 7.7 8.9 8.5 3.9.8 4-.2.8-4.7-1.4-1.9-3.6-5.7-5-8.6-2.2-4.6-3.2-5.6-8.3-8-10.1-4.8-12.6-11.8-7.8-21.3 2.9-5.6 3.1-8.9 1.1-12.9-1.5-2.9-4.8-4.7-10.1-5.5-1.6-.2.3-.3 4.3-.2 8.5.4 13.5 3.1 18 9.8 2.3 3.6 2.7 5.2 2.7 11.3s-.4 7.8-2.7 11.3c-1.6 2.3-2.8 4.6-2.8 5.2 0 .5 1.9 1 4.3 1 7.9 0 11.6 1.8 18.8 8.9 7.3 7.4 8.9 10.8 8.9 19.9 0 3.7.4 5.2 1.4 5.2.9 0 1.5-1.7 1.9-5.2 1.1-10.3 2.8-19.3 4-21.3.7-1.1 1.9-3.9 2.6-6.3 2.6-9.1 12.2-15 22.3-13.9 5.9.7 9.5 2.6 15.6 8.1 3.6 3.1 6.2 4.5 9.3 5 2.4.4 6.1 1.8 8.1 3.1 2.1 1.4 5.7 2.9 8 3.5 2.4.5 6.3 1.4 8.8 2s7.9 1.2 12.1 1.3c7.9.2 9.7 1 18.6 8.3 3 2.5 3.4 2.5 7.8 1.2l4.5-1.3-3.7-3c-2.8-2.2-5.3-3.1-10.2-3.7-7.3-.9-12.9-4-15.7-8.8-1.4-2.2-2.6-3-4.7-3-4.8 0-15-3-18.9-5.6-2.1-1.3-5-4.2-6.4-6.4-1.4-2.1-4.6-5.1-7-6.5s-5.6-4.2-7.1-6.2-4.9-5.8-7.4-8.3c-2.6-2.5-5.2-6.4-5.9-8.6-1.8-5.4-2.4-6.1-7.3-6.8-2.3-.4-6-1.7-8.2-3s-5.2-2.6-6.6-2.9c-4.9-1.2-10.6-6.3-13.4-12.2-2.7-5.4-2.9-5.6-5.9-4.8-1.7.4-5.8.8-9.1.8-7.3-.1-12.3-2.8-16.3-8.8-2.3-3.5-2.7-5.1-2.7-11.3 0-6.6.3-7.7 3.3-11.8 5-7.2 4.5-9.7-3.2-17-6.5-6.1-10.6-11.8-10.6-14.6 0-.8-.9-2.1-2-2.8-2.8-1.7-11.7-15.5-13-20-2.3-8.4-.5-15.7 5.3-21.5 2.7-2.7 4.8-6.1 6-9.5l1.8-5.4-3-4.6c-1.7-2.6-3.3-6.7-3.7-9.2-.4-2.4-2.1-6.4-3.8-8.8-2.9-4-3.1-5-3.1-12.6 0-7.3.3-8.7 2.8-12.4 1.5-2.3 4.5-5.4 6.8-6.9 3.5-2.3 5.4-2.7 13.2-3.1 8.4-.4 9.3-.7 13.4-3.8 6.8-5.2 16.7-5.7 24.1-1.2 1.7 1.1 5.3 4.6 7.8 7.9 2.6 3.2 6.5 7 8.8 8.3 2.2 1.3 6.2 4.7 8.8 7.5l4.6 5.1 6.5-1.7c5.5-1.4 7.3-1.5 13.3-.5 3.8.7 12.4 1.4 19.1 1.6l12.2.3 4.1-3.8c4.9-4.6 10.5-6.3 18-5.6 4.6.5 6.1.2 9.6-1.8 2.3-1.3 6.6-2.8 9.6-3.3 4.1-.6 6.8-1.9 11.2-5.3 12.7-9.6 12.1-9.4 21.8-9.6l8.9-.1 4.3-4.4c14.7-14.9 19.4-17.6 29-16.4 7.3.8 11.9 4.4 18.3 14.4l8.9 13.7c1.9 2.8 3.4 5.7 3.4 6.5.1.8 3.3 3.8 7.3 6.5 3.9 2.8 8.5 7 10.2 9.4 2.7 3.8 3 5.1 3 11.4 0 8.5-2.4 13.2-8.7 17.5-3.4 2.2-5.4 2.7-12.6 3-4.9.2-10.6-.1-13-.7-5.8-1.6-11.8-7.6-13.1-13.3-2.2-8.8-2.5-9.3-5.7-9.6-2.8-.3-3.1.1-6.1 6.5-6.8 14.9-7.7 18.2-8 29.8-.5 13 .4 15.4 6.2 17.4 2.2.7 9 1.7 15.1 2.1 6.3.4 12.3 1.3 14 2.2l7.9 4c3 1.5 6.2 4.2 8 6.7 2.7 3.8 3 5.1 3 11.4 0 8.8-1.9 12.4-10.2 19-8.8 6.9-36.6 35.8-39.3 40.7-1 1.8-.9 2.5.4 3.8 1.5 1.5 1.9 1.5 4.9-.3 2.4-1.5 5-2 10.2-2 6.5 0 7.6.3 15 4.6 5 2.9 9.2 6.2 11.3 8.9 1.8 2.4 5.3 5.5 7.6 7 5.5 3.5 8.6 8.6 9.3 15.3l.6 5.5 6.3.5c10.8.8 17.8 7.3 19 17.3 1 8.3-.9 12.8-8.5 20.3-3.8 3.6-7.8 8.3-9 10.3-4.1 6.9-10.6 9.9-26.8 12.4-12.4 1.8-18.7 1.8-25.3-.2-4.2-1.2-7.5-1.4-15.6-.9-11.5.8-18.7-.4-24.4-3.9-2.5-1.6-4.2-2-6-1.5-1.4.4-5 .8-8 .9s-7.3.7-9.5 1.4l-4 1.2 3.4 1.4c13.9 5.9 17.6 10.5 17.6 21.4 0 6.2-.4 7.8-2.8 11.4-1.6 2.5-4.8 5.3-7.7 7-3 1.6-5.1 3.6-5.5 5-.3 1.2-2.3 4-4.5 6.2-3.8 3.8-4 4.3-4 10.3 0 3.5-.7 8.6-1.5 11.3-2 6.7-1.9 10.9.6 17.9 3.9 11.1 1.1 21.7-7.2 27.2-3.1 2-5.6 2.7-13.8 3.3-5.5.4-10.4 1.1-11.1 1.5-.6.4-5.9 1.1-11.8 1.5-29.8 2.3-43.5 4.7-67.7 11.6-8.1 2.3-10.1 2.5-19.9 1.9-17.7-1.1-24.2-4.1-28.6-13.2l-3.6-7.3c-.6-1.4-1.5-4.2-1.9-6.2-.5-2.8-1.6-4.3-4.5-6.2-6.2-4.1-8.5-8.8-8.5-17.7v-7.6l-6.2-.5c-7.9-.7-13.1-3.7-18.9-10.8-4.8-5.8-15.2-13.6-16.5-12.3-.7.8.2 8.4 2.7 21.8 2.9 15.1 4.4 32 4.4 48.5 0 18.5-1.2 27.9-4.1 32.9-1.1 1.8-1.8 3.4-1.7 3.5 5.7 2.4 10.9 6.1 13.3 9.5 2.7 3.8 3 5.1 3 11.4 0 9.3-2.4 13.3-11.4 19.3l-10.9 7.7c-4 2.9-5 3.2-12.5 3.4l-8.1.2-1.4 3.8c-.9 2.7-1.2 7.6-.8 17.8l.5 14-1.5-12c-1.3-9.9-1.3-13.2-.3-18.8 1-5.4 1-8.4.1-14-.7-4-1.5-10.2-1.9-13.9-.5-6.3-.4-6.8 2.8-11.3 3.1-4.3 11.9-10.9 19.9-15 11.7-6 14-12.6 14-40.4 0-13-.6-19.2-3.6-37.6-1.9-12.1-4.4-25.3-5.6-29.4-2.7-9.9-2.3-23.5 1.1-30.1 2.8-5.3 3.6-6 7.7-6 1.7 0 5.7-.9 9-2.1 12.4-4.3 21.6-5.9 33.7-5.9 13.3 0 16.6-1.1 19.2-6 .8-1.7 1.3-3 1.1-3-.3 0-3.3.7-6.8 1.4-3.5.8-11.5 1.5-17.8 1.5-8.9 0-13.5.6-20.5 2.4-4.9 1.4-12.1 3.3-16 4.2-11.3 2.9-11.3 2.8-15.3 11.3-3.5 7.4-3.7 8.1-3.5 18 .1 5.9.8 12.2 1.7 15 .8 2.6 3.2 14.6 5.2 26.7 4.3 25.4 5.3 42.2 3.4 56.8-1.5 11.7-2.7 13.5-12.7 19-10.9 6.1-16.1 10.4-20.4 17-3.9 6-4 6.4-3.4 12.2.4 3.3 1.3 9.6 2.1 14 1.1 6.3 1.1 9.2.2 13.6-.8 3.9-.9 8.8-.1 17 .8 10 .7 12.1-.8 17.4-1 3.3-2.5 6.9-3.2 7.9-1.4 1.9-1.5 1.9-4.2-.2-3.6-2.8-6-2.8-9 .3-4.7 4.7-2.4 12.5 3.7 12.5 1.6 0 3.1.6 3.4 1.4s-.6 5.2-1.9 9.8c-3 10.1-5.6 22.8-6.8 32.8-1.2 10.4-3.8 29.3-4.9 36.6-.6 3.4-1 8.5-1 11.4s-.4 8-1 11.4c-2.5 16.1-4 33.6-4.1 48.8-.1 9.1.1 17.1.5 17.6.7 1.2 2.3 20.6 3.6 43.7.5 9.4 1.8 22.2 2.9 28.5s2.2 14 2.6 17c.9 8.4 3.5 22.5 6.1 33 1.2 5.2 2.6 12.4 2.9 16 .4 3.6 2 11.7 3.5 18 1.6 6.3 3.1 14.4 3.5 18 1.4 13.8 8.1 42.7 12.1 52.2 1.4 3.5 4.1 10.8 5.9 16.3 10.7 32.2 20.5 59.8 21.9 61.3 1.4 1.6 3.9 6.8 14.3 29.2.9 2.1 2.1 4.6 3.2 6.8h7.3c-2.4-4.7-4.9-10.1-10.6-22.7-3-6.8-6.7-13.9-8.1-15.7-2.3-3-5.9-13.3-5-14.2.1-.2 1.3 2.2 2.4 5.3 1.2 3 2.8 6.7 3.7 8 .8 1.3 5.2 10.4 9.7 20.2l9.2 19.1h643.3c2.7-15.2 9-35.1 13.2-40.8 2.1-2.8-.1 5.2-3.7 13.4-2.6 5.9-3.7 10.2-4.3 16.5-.3 3.3-1.1 7.2-2 10.9h6.4c1-3.8 1.7-7.9 1.9-10.5.4-5.3 1.6-9.6 4.1-15.5 1.9-4.6 4.2-11 5.1-14.3 1.8-7 3.6-8.7 9-8.3 3.9.3 4.1.5 6.5 6.4 3 7.4 17.4 23.6 25.1 28.4 2.7 1.7 6.9 4.8 9.2 6.9 2 1.8 6 4.3 11.2 6.9h15a114.95 114.95 0 0 1-6.9-3.3c-5-2.5-9.5-4.5-10.1-4.5s-2.4-1.4-4.1-3.1c-1.6-1.7-5.9-5.2-9.6-7.6-3.8-2.4-9.1-7.1-11.8-10.5-2.8-3.3-6.3-7.1-7.9-8.4s-3.1-3.5-3.3-4.9c-.5-2.2-.3-2.3 1-1.2.9.6 4.8 5.3 8.9 10.4 5.1 6.4 9 10.2 13 12.6 3.2 2 7.1 5 8.8 6.7 1.7 1.8 7 5.2 12 7.5s9.9 5 11 5.8c.2.2.4.4.6.5h188.8c3.5-7 9.5-13.2 14.8-14.7s13-1.3 17.8.4c2.2.8 5.6 1.5 7.5 1.5 7.5 0 11 1.9 19.2 10 .9 1 1.8 1.9 2.7 2.8h162.8c.2-.5.3-.9.3-1.2 0-.8 1.5-3.4 3.3-5.8 1.9-2.5 3.7-6.2 4.1-8.4 1.5-8.3 8.1-14.7 16.6-16 2.9-.5 5.1-1.6 6.3-3 2.3-3 7.4-6 11.5-6.9 3.6-.8 10.1-6.9 10.2-9.7 0-.9 1.6-3.9 3.5-6.8s3.5-5.9 3.5-6.7c0-.9-1.4-3.9-3.2-6.7-3-4.7-3.3-5.7-3.6-15.5-.4-9.9-.6-10.6-3.1-12.7-1.5-1.2-3.6-4-4.7-6.1-1-2.1-2.9-5.4-4.1-7.3-2-3.4-6.3-18.3-6.3-22.2 0-1.1-1.3-3-2.9-4.4-5.3-4.4-9.3-12-11.7-22-1.5-6.6-3-10.4-5-12.9l-6.1-7.6c-2.2-2.7-3.5-5.5-3.9-8.8-.6-4.4-.9-5-3.6-5.5-1.7-.3-4.6-1.6-6.5-2.8-3.8-2.3-9.3-10-9.3-13 0-1.2-.8-1.8-2.2-1.8-5.7 0-10-2.3-17-9-4.5-4.3-8.2-7-10.2-7.4-4.5-.9-13.2-7-16.6-11.7-3.8-5.2-4.4-10.2-3-21.9l1.7-13.7c.3-2.6-.3-6.9-1.5-11-2.7-9.3-5.2-21.3-7.2-33.8-.6-3.8-1.5-18.9-2-33.5-1.4-39.5-5.2-79.1-8.7-92-.9-3-1.9-7.9-2.4-11-3.5-23.6-12.4-48.6-19.6-55.3-5.5-5.1-8.1-9.2-8.9-14.7-.4-2.4-2.1-6.6-3.8-9.3-2.6-4.2-3.1-6.1-3.3-12.1-.2-7.6-1.1-10.6-5.8-17.5-2.6-3.9-3-5.4-3.1-11.7-.1-5.4-.7-8.1-2.2-10.6-1.1-1.8-2.4-4.6-2.8-6.3-.4-1.6-1.3-3.9-2-5-.6-1.1-1.5-3.4-1.9-5.2-.3-1.7-1.5-4.8-2.6-6.9-1-2.1-1.9-4.3-1.9-4.9 0-.5-1-3-2.3-5.5-1.2-2.5-3.1-8.1-4.1-12.5s-2.9-10.1-4.3-12.7c-1.3-2.5-3-6.6-3.8-8.9-.9-2.4-2.9-6.4-4.5-8.9s-3.2-5.9-3.6-7.5-2.6-7-4.9-12-4.6-10.1-5-11.5c-.9-3.1-15.6-32.6-24.2-48.5-3.6-6.6-7.8-16-9.4-20.8-1.6-4.9-4-10.5-5.4-12.5s-2.5-4.2-2.5-4.9-2.9-6.6-6.5-13.2-7.2-13.9-8-16.1-2.1-5-3-6.2c-.8-1.3-1.5-2.8-1.5-3.5s-1.6-3.3-3.5-5.9c-1.9-2.5-3.5-5.2-3.5-6s-1.1-3.2-2.5-5.2-2.5-4.2-2.5-4.8c0-1.1-4.1-11-6.1-14.6-.5-1-2.2-5.3-3.8-9.5-1.6-4.3-6-14.5-9.8-22.8-3.9-8.2-9.4-20.4-12.3-27l-8.5-19c-3.7-7.9-6.4-14.6-9.1-22-4.1-11.6-21.6-44.1-32.8-60.7-16-23.8-23.4-33.7-40.6-53.7-13.5-15.8-19.6-23.5-25-31.6-3-4.4-7.2-10.1-9.3-12.7-3.4-3.9-4.7-4.7-8.7-5.2-8.2-1.1-15.6-8.1-30.5-28.9-3.8-5.3-7.5-9.7-8.2-9.7s-3.3 1.5-5.8 3.4c-5 3.8-10.9 5.2-17.4 4.1-4.5-.8-14.5-7.6-18.5-12.7-1.3-1.7-3.9-3.6-5.7-4.3l-5.4-2c-1.1-.5.1 1.2 2.7 3.6 2.6 2.5 5.7 6.7 6.9 9.4 1.2 2.8 4.7 7.7 7.8 11.1 3.1 3.3 7.8 9.7 10.4 14.2 2.7 4.5 5.3 8.4 5.8 8.8.6.3 2.4 2.5 4 4.7 1.7 2.3 10 11.7 18.6 20.9s16.5 18 17.7 19.6c1.1 1.6 3.7 5 5.6 7.6 1.9 2.7 6.6 7.1 10.4 9.9 13.7 10.2 15.2 11.5 22.1 18.1 3.8 3.8 8.3 7.8 10 8.9 6.5 4.6 16.8 14.4 19.7 19 1.7 2.6 3.9 5.2 5 5.8s4 4 6.4 7.7c8.5 12.7 14.9 21.1 17.5 23.1 1.4 1.1 4.1 4.8 5.9 8.3s4.4 7.1 5.6 8.1c2.5 1.9 7.4 11.1 7.4 13.8 0 .9 1.2 2.4 2.6 3.3 2.7 1.8 8.4 10.1 8.4 12.3 0 .7 1.1 3 2.4 5.1 1.3 2 3.2 7.5 4.1 12.2 1.1 5.2 2.9 10.3 4.6 13 1.5 2.5 3.1 6.5 3.5 9 .9 6.6 3.6 14.1 6.3 17.8 2.9 4.1 6.5 14 8 21.8 1.4 6.9 5.8 22.1 7.3 24.9 1.9 3.4 5.8 16.7 5.8 19.4 0 3.3 2.9 17.1 4.1 19.1.5.8 2.6 4.4 4.7 8 2.6 4.2 4.7 9.8 6.2 16 1.3 5.2 3.2 10.9 4.2 12.6s2.1 5.3 2.4 8c.4 2.7 1.6 6.7 2.7 8.9 1.4 2.7 2.1 6.2 2.3 10.6.1 3.6.7 7.6 1.3 8.8.7 1.3 1.5 4.8 1.8 7.9.3 3.2 1 6.5 1.5 7.5s1.3 5 1.8 9c1.9 14.7 3.8 26.3 4.9 29.7.7 1.9 1.1 6.2 1 9.5s.3 8 1 10.4 1.1 8.1 1 12.5c-.2 6 .2 8.9 1.4 11.3 2.4 4.5 3.9 16.6 3.1 24.9-.6 6.5-.4 7.5 1.9 11 1.4 2.2 2.8 5.4 3.2 7.3.4 1.8 2.2 5.3 4 7.7 5.7 7.5 5.8 16.5.4 26-1.6 2.8-2.9 5.8-2.9 6.7 0 .8 2 3.6 4.4 6.1 4 4.1 6.5 9.3 6.6 13.6 0 .8.7 3.3 1.5 5.5s1.4 6.4 1.5 9.3c0 4.7.5 5.9 3.5 9.5 5.3 6.2 7.8 17.5 5.5 25.7-.7 2.5-1.3 7.7-1.4 11.5-.1 5.5-.6 7.8-2.4 10.8-3.1 4.9-8.5 8.5-14.2 9.4-3.5.5-5.2 1.4-7.8 4.4-2.8 3.2-3.1 4-2.2 6.1 1 2.1 1.7 2.3 8.4 2.3 6.3 0 7.9.4 11.4 2.8 6 3.9 11.1 12 11.9 18.8.4 3.5 1.3 5.8 2.5 6.7 3.1 2.2 6.8 9.8 7.5 15.4.3 2.9 1.2 6.2 1.9 7.3 1.7 2.7 3.9 15.4 3.8 23.1 0 4.3-.6 7-2.1 9.7-2 3.2-2.1 4.1-1 9.4l1.1 5.8 7.8-.2c4.2-.1 9.4-.7 11.5-1.2 11.1-3.1 24.5 1.7 31.4 11.2 4.2 5.9 7.7 7.5 19.2 9.2 11.2 1.7 17 4.4 21.1 9.8 3.2 4.2 4 6.4 6.5 18.2 2.7 12.6 2.7 22.4.1 30.4-2.5 8-5 11.5-10.8 14.9-6.4 3.7-16.8 3.9-22.5.3-5.4-3.3-8.7-8.8-9.4-15.4l-.5-5.5-4.4-.7c-2.8-.4-6.1-2-9.1-4.2-5.9-4.5-11.2-4.8-19.6-.9-3.2 1.4-8.6 3.1-12 3.6s-8.9 1.4-12.2 2l-12 2.1c-3.3.6-7.3 1.9-9 2.9-1.6 1-5.7 2.4-9 3.1-4.9 1.1-7.3 2.4-12.9 7.1-7.4 6.2-11.8 8-19.4 7.7-6.6-.2-14 2.2-19.5 6.4-3 2.3-6.3 3.8-9.2 4.2-5.8.9-16.5-1-22.3-4-2.6-1.3-6.7-3.1-9.2-4-8.3-3.1-11.4-5-13.9-8.7-2-2.9-3.8-4.1-7.8-5.3-6.3-1.9-16.6-9.4-20.1-14.8-2.3-3.4-2.7-5.1-2.7-11.1 0-8.5 2.4-13.2 8.8-17.4 3.5-2.3 5.1-2.7 11.6-2.7 5.3 0 8.6.6 10.8 1.8 3.2 1.7 3.3 1.7 7.3-1.2 2.2-1.6 5.6-3.2 7.7-3.6 2-.3 4.5-1.3 5.7-2 1.2-.8 4.9-1.9 8.4-2.4 3.9-.6 8.4-2.2 12-4.4 3.1-1.8 8.2-4.6 11.2-6.2 3-1.5 6-3.1 6.6-3.6s1.3-4 1.6-7.8c.3-4.5 1.3-8.2 2.6-10.4 1.1-2 1.8-3.8 1.5-4-.2-.3-2 .4-3.8 1.5-4.8 2.8-12.9 3.4-18.5 1.3-2.5-.9-4.9-1.6-5.5-1.6-2.9 0-13.1 4.6-18.1 8-6.3 4.5-12.3 5.9-18.9 4.4-3.1-.7-4.7-.6-6.2.5-1.2.7-4.7 1.6-7.9 1.9-5.2.6-6.2 1.1-12.1 6.5-3.6 3.2-7.8 6.2-9.5 6.6-2.3.6-3.3 1.7-4.3 4.5-2.1 6.2-5.9 10.1-13.7 14.1-9 4.8-17.7 5.8-25.8 3.2l-5.1-1.7-4.8 5c-5.6 5.8-10.8 7.6-18.9 6.8-6.5-.7-11.4-3.6-15.2-9.2-1.7-2.4-3.8-4.6-4.7-4.8-1-.3-7.5-.9-14.5-1.2l-12.8-.7v3.9c-.1 2.1-.7 5.6-1.5 7.8-1.4 3.8-1.4 4.1.8 5.5 1.2.8 3.9 3.1 6 5.1 3 2.9 4.8 3.8 8.9 4.2 3.2.4 6.6 1.7 9.1 3.4l8.8 6c8.4 5.6 12.8 15.2 11.6 25.4-1.2 10.1-8.1 16.7-18.4 17.6-5.5.5-17.8-1.7-25.8-4.5-1.6-.6-8.6-2.3-15.5-3.8-14.7-3.1-25.2-7.2-30.7-11.9-2.2-1.8-7.3-8.7-11.3-15.2s-9-13.3-11.1-15c-2.1-1.8-5.1-5.4-6.8-8-1.7-2.7-4.1-6.1-5.5-7.8-2.6-3.2-16.6-32.6-16.6-34.8 0-.8-1.1-3.4-2.4-5.9s-2.7-6-3.1-7.9-2.7-7.7-5.2-12.9c-3.5-7.3-4.7-11.2-5.3-17-.4-4.1-1.7-10.9-2.9-15-3-10.9-4-34.8-1.7-41 1-2.5 2.3-6.5 3-9 1.3-4.5 7.5-15.5 12.2-21.7 1.3-1.7 4.5-4.1 7.1-5.3l8.8-4a93.97 93.97 0 0 1 8.5-3.3c2.5-.8 7.6-2.7 11.5-4.1 15.5-5.9 18.8-6.6 34.9-6.5 10.3 0 17.3-.5 22.1-1.5 3.9-.9 10.1-1.5 14-1.4s10.3-.3 14.4-1.1c7.9-1.4 15.1-.9 18.5 1.2 2.1 1.3 11.4 1.3 35.1.2 11.3-.5 12-.9 13.1-8.3 1.4-9.5-3.5-22.5-15.7-41.3-5.5-8.5-4.8-19.6 1.6-26.5 1.9-2 3.5-4.4 3.5-5.2 0-.9-2.4-5.7-5.4-10.6-3-5-7-12-8.9-15.6-3-5.7-3.7-6.4-5.8-6-1.3.3-5.1.5-8.5.5-7.8-.1-12.8-3.2-18.1-11.2-3.6-5.4-3.8-6-3.8-13.9 0-7.6.2-8.6 3.1-12.6 3-4.2 3-4.4 1.3-7.1-.9-1.6-3.5-3.8-5.8-4.9-5.3-2.6-8.6-6.9-11.5-15-1.3-3.5-3.3-8.2-4.5-10.5-1.1-2.4-2.1-4.8-2.1-5.6 0-2.1-6-10.7-7.5-10.7-.7 0-1.5 1.3-1.8 2.8-.3 1.6-2.2 5-4.2 7.7l-3.7 4.7 2.7 6.2c3.3 7.5 4.3 16.6 4.7 41.6.3 18 .2 18.6-2.1 22.3-3.5 5.6-8.3 8.2-19.6 10.6-15.7 3.3-21.1 2.5-27.5-3.9-4.2-4.2-6.6-10.7-8.2-22.5-.5-3.8-2.1-11.1-3.5-16.2-2.6-9.1-2.6-9.4-1.4-20.2 1.4-11.2 1-16.6-1.2-15.8-4 1.3-6.2 18.7-3.3 27 .9 2.6 1.6 6.4 1.6 8.5 0 2 1.2 8.9 2.6 15.3 3.2 13.9 2.8 18.9-1.9 25.1-1.9 2.4-5.6 5.4-8.7 7.1-3 1.6-7 3.8-9 5-2.8 1.8-5 2.2-11.2 2.2-6.9 0-8-.3-12-3-4.7-3.4-10.3-11.8-11.9-18-2.3-9.3-9.3-29.1-10.7-30.7-.8-1-2.3-1.8-3.1-1.8-2.6 0-8.7-4.7-11-8.4-1.5-2.3-2.6-6.9-3.5-13.8-1.7-12.3-2.7-15.3-6.8-19.5l-3.1-3.2-2.8 3.8c-3 4.1-7.7 7.4-12.4 8.6l-3 .8 3.3.9c1.8.5 5 2.6 7.2 4.8 4 4 5.2 6.9 7.1 17.5.6 3.3 2.1 8.5 3.2 11.5 1.8 4.4 2.2 7.6 2.2 16.1 0 9.8-.2 10.8-2.7 14.7-1.6 2.3-4.7 5.4-7 7-3.6 2.4-5.1 2.7-11.8 2.7-6.6 0-8.2-.4-11.7-2.7-6.2-4.1-8.1-8-9.8-20.4l-3-18.4c-2.8-14.4-1.6-21.9 4.5-28 2.3-2.3 5.6-4.4 8.2-5.1 4.2-1.2 4.2-1.2 1.6-1.9-7.3-2.1-11.7-7.8-14.4-18.5-.9-3.8-1.8-7.1-1.9-7.2-.1-.2-1.8 1.2-3.9 3.1-6.1 5.8-13.7 7-23.4 3.6-3.1-1.1-9.9-2.5-15-3-10.8-1-15.4-3.4-19.8-10-1.5-2.2-5.5-6-9-8.5-7.2-5.2-10.1-9.4-11-15.9-.6-4.1-1.2-5-5.4-8-2.6-1.9-6.2-3.7-8.1-4.1-4.9-1-10.3-4.8-13-9.2-2.4-3.8-2.4-4.1-2.4-31.9v-28l4.7-8.1c2.6-4.5 5-9.4 5.4-11 .4-1.5 2.2-6.1 4.1-10.1 1.8-4 3.3-8.8 3.3-10.5 0-4.4 2.5-13.3 4.5-16.4 1.6-2.4 1.6-2.8-.5-6.6-2.8-4.8-3.8-15.3-2.1-21.5 1.4-5 8.4-12.7 12.5-13.8 3.2-.8 3.4-1.3 4.1-16.9.4-7.1 1.1-14.6 1.5-16.5 2.8-11.3 3.2-12.2 8.9-18 5.6-5.7 5.9-6.1 10.9-21.7 2.8-8.7 6.5-20.7 8.2-26.8 3.4-12.3 5.4-17.8 7.6-20.9 1.5-2 1.5-2 .8.9-.3 1.7-1.7 5.5-3.1 8.5-1.3 3-3.5 10.9-4.8 17.6-1.3 6.6-3.2 13.6-4.3 15.5s-3 7.1-4.2 11.7c-1.7 6.4-3.2 9.5-6.4 13.4-7 8.6-8.6 11.7-8.6 17.8-.1 12.5-3.3 38.8-6.2 50.5-.9 3.3-2.4 9.8-3.4 14.5-.9 4.7-2.6 10.2-3.6 12.2-1 2.1-2.5 6.9-3.3 10.8-1.5 7.2-8 21.3-16.3 35.5l-4.7 8-.1 16c0 8.8-.6 17.8-1.2 20-1.7 5.8-1.5 17 .3 20.6 1 1.9 3.6 3.9 7.3 5.7 9.3 4.6 20.2 11.2 27.4 16.6 9.3 7.1 15.5 10.8 21 12.7 2.9 1 6.6 3.4 9.7 6.5 16.8 16.5 19.3 18.4 25.1 18.4 5 0 8.8-2.6 11.5-7.9 3-6.1 5.6-8.1 14.9-12 10.3-4.3 16.5-4.8 24.9-2.3 3.6 1.2 8 2.8 9.6 3.7 5.5 2.8 12.4 2 20.4-2.4 10.1-5.6 18.8-6.9 29.4-4.5 4.6 1 12.3 1.8 18.8 1.8 10.4.1 11.4-.1 18.2-3.1 5.4-2.5 9.5-3.5 16.9-4.3 9.3-1 10.2-.9 17.8 1.6 4.4 1.4 9.4 3.3 11.1 4.1 6.5 3.4 18 10.6 18.8 11.9.4.8 3.1 4.2 5.9 7.7 2.7 3.4 6.5 9.4 8.3 13.2 1.8 3.9 4.2 7.9 5.3 8.9 1.2 1.1 3.3 4.4 4.7 7.5 3.1 6.7 4.9 8.7 9.6 11.2 2.7 1.3 3.8 2.6 4.2 4.9.4 1.8 2.1 4.5 3.8 6.1 1.8 1.6 4.4 5.5 5.9 8.7 1.6 3.1 5.6 8.7 8.9 12.4 3.4 3.6 6.1 7.2 6.1 7.9 0 2.4 9.4 18.4 13.2 22.3 3.3 3.5 3.8 4.6 3.8 8.8 0 6.2 3.9 14.2 8.3 16.8 3.8 2.4 8.7 2.5 12.6.5 5.3-2.7 5.5-4.5 4.8-42.1-.4-18.9-1.1-35.4-1.7-36.8-1.5-4-3.8-20.1-4.5-31.6-.8-12.1-3.1-25.2-5.2-29.4-1-1.8-1.6-6.6-1.8-13-.2-8.1-1-12.3-3.8-21.6-1.9-6.3-3.8-13.7-4.2-16.5-.3-2.7-3.8-14.2-7.6-25.5s-7.6-23.2-8.3-26.5-2.3-8.9-3.4-12.5l-3.2-11c-3.6-13.9-4.9-17.8-6.5-20.9-.9-1.9-2.8-6.4-4.1-10-6.5-18.3-8.7-23.8-14.1-34.2-13-25.1-16.9-30.8-22.2-32.7-1.4-.6-13.4-1.5-26.6-2-26.8-1.2-43.7-3.2-49.3-6.1-2.1-1.1-5.6-2.3-7.7-2.6-3.8-.7-20.4-7.5-27-11.2l-11.8-6.5c-5.8-3.3-11.3-5.4-16-6.4-21.3-4.5-28.5-7.9-42.8-20.1-2.7-2.4-6.8-4.7-9.1-5.3-9.2-2.4-25.9-17.3-27.2-24.2-.6-3.3.1-9.8 1.1-9.8.6 0 4.7 3.5 9.4 8.3 3.8 3.7 5.9 8.7 5.9 13.9 0 1.9 1 3.5 3.3 5.2 3.4 2.6 14.5 7.1 15.4 6.3.2-.3-.3-1.7-1.3-3.2-2.8-4.2-3-15.7-.6-24 6.3-21.1 11.2-26.4 24.7-26.5 4.9-.1 7.2-1.3 11.5-6.3 1.9-2.2 5.8-5.3 8.8-6.9 6.9-3.9 13.9-11 17.5-17.6 2.5-4.6 2.7-5.6 1.8-8.9-1.7-5.9-1.3-12 1.4-22.3 2.7-10.6 3-14.2 1.4-17.2-.6-1.2-1.4-5.3-1.8-9.1-.3-3.9-1.1-7.2-1.7-7.4s-2.6 2.1-4.2 5c-3.7 6.5-7.7 9.7-14.5 11.2-4.5 1-5.2 1.5-5.9 4.4-1.3 4.8-8.8 11.8-14.3 13.3-2.9.8-4.5 1.8-4.5 2.8 0 2.8-5.6 10.6-9.1 12.8-1.9 1.1-4.8 2.4-6.4 2.8s-4.6 1.8-6.6 3.1c-2.7 1.8-5.9 2.6-12 3.3l-8.5.7c0-.1-.6-2.1-1.2-4.3-1.8-6.1-1.5-10 1.4-18.6 2.3-7 3.1-8.2 9-13.5l14.8-13.3c8.8-7.9 16.4-13.8 20.6-16 1.4-.7 4-2.6 5.8-4.2 1.8-1.5 5.8-4.2 9-5.8 7.6-4.1 15.9-10.2 28.7-21.5 4.4-3.9 12.5-10.1 18-13.8s11.1-7.7 12.5-8.7c1.4-1.1 5.8-3.1 9.8-4.5 9.7-3.4 8.3-3.8 30.8 9.2 5.1 2.9 12.8 5.3 17.2 5.3 1.8 0 6.5.6 10.5 1.4 3.9.8 10.6 1.9 14.7 2.6s8.9 2.1 10.6 3.1c3.6 2.2 12.5 12.1 19.5 21.6 4.7 6.5 8.1 9.2 16.9 13.4 2.5 1.1 6 2.8 7.9 3.7 2.2 1.1 4.5 3.5 6.4 6.7 1.6 2.8 4.8 7 7.1 9.5 2.4 2.5 5 6.5 5.9 9.1 1.9 5.2 7.3 11.8 23.5 29.2 6.2 6.7 11.9 13.6 12.6 15.3.8 1.7 3.3 5.6 5.7 8.7l9 11.4c6.9 8.8 20.2 29 23.9 36.3 1.8 3.6 4.4 7.8 5.7 9.4 3.1 3.7 7.5 12.6 9.8 19.6.9 3 2.8 7.5 4.1 10s3.2 7 4.3 10c1 3 5.5 13.6 10 23.5l11.3 25c1.6 3.9 6.3 13.8 10.2 22l11.5 24.5 13.6 28.5 15.3 31.5c3.3 6.9 7.6 14.3 9.5 16.5 1.8 2.2 3.9 6.2 4.7 9 .7 2.8 3.2 8.8 5.6 13.5 2.3 4.7 4.5 9.6 4.9 11s2.2 5.4 4 9c1.9 3.6 4.1 8.4 5.1 10.7.9 2.3 2.7 5.2 4 6.4 1.2 1.2 2.6 3.6 2.9 5.3s2.1 6.5 3.9 10.6a671.73 671.73 0 0 1 7.1 16c2.1 4.7 7.5 16.2 12 25.6 4.6 9.4 8.8 18.9 9.4 21.2 1.3 4.6 10.2 22.6 12.6 25.2.8.9 1.5 2 1.5 2.4s2.6 6.6 5.8 13.9c6 13.5 6.8 15.4 10.7 26.7 1.3 3.6 3.7 9.4 5.3 13 1.7 3.6 4.9 12.6 7.1 20 2.3 7.4 5.7 17.3 7.5 22 2.2 5.4 3.8 11.8 4.5 17.5 1.2 9.8 2.7 15.2 6.2 23 1.7 3.8 2.4 7.8 2.9 16.6.6 10.9.9 12.1 4.3 18.2 2 3.6 4.3 8.8 5.1 11.5 2.2 7.6 3.4 9.2 8.2 11.3 4.5 2 5.7 4.5 2.7 5.5-11 3.5-12.7 8.4-7.4 21.4 2.4 5.9 2.7 7.2 1.5 7.7-2.1.8-4.4 5.7-4.4 9.3 0 4 1.3 6.6 5.9 11.3l3.6 3.8-.2 8.9c-.2 6.2-.9 10.6-2.4 14.7-1.2 3.2-2.3 8.1-2.6 10.9-.7 8.3 1.8 12.7 16.9 28.8 3.7 3.9 8 9 9.7 11.3 2.3 3.1 4.3 4.6 8.2 6 4.2 1.5 7.1 3.8 16.3 13.3 14.7 15 22.6 22.5 25.1 23.8 1.1.5 3.7 1.2 5.8 1.6 2.8.5 4.1 1.4 5.3 3.9.9 1.7 3.4 5.1 5.6 7.5 4.5 4.9 5.8 7.9 5.8 13.2 0 5.4 5.3 12.8 11.3 15.8 2.5 1.3 6.6 4.7 9 7.5 4.5 5.5 9.7 15.1 9.7 18.3.1 3.3 3.6 9.9 8.1 15 3.8 4.2 4.9 6.5 7.3 15.2 2.7 9.6 2.8 10.8 1.7 17.2-2.7 16.5-.9 23.7 7.5 30.6l4.6 3.8-3.5 1.7c-4.5 2.3-6.1 6.4-5.4 13.2 2 17.2 2.1 16-.7 21.5-2 3.9-2.6 6.6-2.6 11.5 0 5.5-.5 7.4-4 14-2.2 4.2-4.8 10.2-5.8 13.4-2.3 7.2-6.3 13.7-9.9 16-1.5.9-3.9 2.7-5.8 4.1h10.5c5.3-4.6 9.2-11 11.5-19.1.9-3.3 3.3-8.6 5.3-11.9 3.1-5.2 3.6-7.2 4.2-14.7.5-6.3 1.2-9.6 2.8-12.1 2.7-4.3 2.9-12.4.7-21.2-2-7.7-1.5-9.4 3.6-10.2 7.7-1.2 7-7.4-1.6-15.4-6-5.6-7.2-9-6.1-17 2-14.2 1.9-17.5-.9-27.2-3.4-11.6-3.6-12.1-9.7-19.1-3.5-4-5-6.8-5.4-9.5-1.5-10.2-12.9-27-20.4-30-5-2-9.8-8.5-10.5-14.3-1-8-1.4-8.7-5.8-13.7-2.4-2.7-5.2-6.3-6.1-8.1-1.9-3.8-4.3-5.3-8.6-5.3-3.4 0-6.2-2.5-28.6-25.1-8.9-9.1-12.6-12.2-16.6-13.8-3.3-1.3-6.1-3.3-7.5-5.4-1.3-1.8-5.2-6.3-8.9-10.2-3.6-3.8-7.7-8.7-9.1-10.7-1.4-2.1-3-3.8-3.5-3.8-1.3 0-3.8-6.4-3.8-9.9 0-1.7.9-4.8 2.1-7 2.3-4.5 4.5-21.9 3.5-27.6-.4-2.2-2.5-5.6-5.3-8.7-4.2-4.8-4.5-5.4-3.8-9.2.3-2.3.9-7.6 1.1-11.9.4-6.7.1-8.4-1.6-11.2-2.6-4.2-2.8-9-.2-8 4.5 1.7 6.8 1.6 9.5-.5 2.1-1.7 2.7-3 2.7-6 0-5-2.6-8.1-7.5-8.9-3.8-.6-3.8-.7-5.1-6.8-.7-3.4-2.9-9.2-5-12.9-3.5-6.3-3.8-7.4-4.4-18.3-.6-8.7-1.3-12.9-3-16.6-3.4-7.7-4.9-13.3-6-22.5-.6-4.8-2-10.9-3.4-14-1.4-3-4.8-13-7.6-22.2s-6.2-19.3-7.7-22.5c-1.4-3.2-3.8-9.2-5.3-13.3l-4-11c-.7-1.9-3.9-9.5-7.2-16.7-3.2-7.3-5.8-13.6-5.8-14 0-.5-1.1-2.5-2.5-4.3-3.1-4.1-11.5-21.2-11.5-23.1 0-.8-1.5-4.5-3.4-8.4L1143 990c-1.7-4.1-4.5-10.4-6.2-14s-3.7-8.7-4.4-11.3-2.6-6.3-4.3-8.2c-1.6-1.9-3.5-5.3-4.1-7.5-.6-2.3-2.4-6.2-4.1-8.7-1.6-2.6-2.9-5.2-2.9-5.8 0-.7-2.1-5.4-4.6-10.6-2.5-5.1-5.4-12.1-6.5-15.4-1-3.3-3.6-8.4-5.8-11.3-3.4-4.5-16.1-28.8-16.1-30.7 0-.4-3.1-6.4-6.8-13.4-3.8-7-7.9-15.3-9.1-18.5a129.95 129.95 0 0 0-5.1-11.5c-1.7-3.1-3-6-3-6.5s-3.5-8.1-7.9-17l-11.6-24.6c-2-4.7-6.1-13.7-9-20-7-15.2-11-24.6-12.5-29.5-.7-2.2-2.3-5.8-3.5-8-1.3-2.2-3.1-6.5-4-9.5-2.3-7-7.7-17.9-10.8-21.6-1.4-1.6-4-6-5.9-9.9-2-3.8-7-12.1-11.2-18.3-7.5-11.1-10.4-15.1-20.7-28.2-2.8-3.6-5.6-7.8-6.4-9.5-.7-1.6-6.4-8.4-12.7-15.1-13.7-14.7-19.4-21.8-23.3-29.4-1.6-3.2-4.9-7.8-7.2-10.3s-5.1-6.3-6.2-8.5c-2.4-4.7-6.7-8.2-13.1-10.5-7.8-3-13.8-7.5-18.6-13.9-2.5-3.5-7.5-9.6-11.2-13.7-9.4-10.6-11.6-11.4-38.7-15.2-12.9-1.7-20.7-3.8-25.5-6.8-15.1-9.2-17.5-10.4-22.1-10.9-6.7-.6-19.4 3.8-26.2 9.1-2.9 2.3-8.5 6.3-12.5 8.9-6.1 4.1-19.6 14.6-21.2 16.8-1.8 2.2-20.4 15.7-25.2 18.1-3.1 1.6-6 3.3-6.3 3.9s-4.3 3.5-8.9 6.4c-7.6 5-32.6 26.5-38.7 33.2-1.5 1.6-4.1 7.2-5.9 12.4-3.4 9.9-3.4 12.6-.3 23.9.6 2.4.5 2.4-4.1 1.8-8.2-1.2-8.3-1.2-8.8-13.9-.8-15.4-6.1-32.5-13.1-41.4-7.1-9-5.9-7.3-25.7-36.4-1-1.4-5.2-7.9-9.4-14.5l-14.1-22c-3.6-5.5-7.6-12.2-9.1-15-6.4-12.2-12.2-17.5-18.8-17.5-3.2 0-5.2-2.9-6.8-9.7-.9-4.4-.9-6.2.1-9 2.5-6.8 1.5-11.8-4.3-22.3-.8-1.4-4.4-8.7-8-16.3-7.4-15.3-9.8-17.7-17.3-17.7-5.1 0-6-1.8-3.3-7 3.6-7 2.3-13.5-3.8-18.7-3.1-2.7-3.5-3.5-2.6-5 1.6-2.5 6.1-3 45.4-4.3 40.6-1.3 90.4-.5 99.8 1.6 21.7 4.8 28.3 20.4 18.3 42.7-2.9 6.3-14.2 25.2-30.9 51.5-5 7.9-9.4 15.7-9.7 17.3-1.3 5.8 2.8 10.9 8.6 10.9 3 0 4.8-1.2 16.2-10.3 5.6-4.6 13.5-10.4 17.5-13 9.2-5.9 34.8-19.3 41.5-21.7 2.9-1 7.8-3 11-4.4 7.8-3.5 28-10.2 39.7-13.1l17-4.3c4.1-1.1 11.5-2.5 16.5-3.2 5-.6 11.9-1.8 15.5-2.5 5.9-1.3 14.7-2.6 35.5-5.4 3.9-.6 13.1-1.5 20.5-2.1s16.2-1.6 19.5-2.1c14.9-2.4 138.4-4.8 251-4.8 62.5-.1 101.8-1.1 115.5-3.1 3.6-.5 9.9-1.2 14-1.5 7.4-.6 16.9-1.6 32.5-3.6 9.7-1.2 44.9-8.4 50.2-10.3 2.1-.7 7.9-2.3 13-3.5s12.7-3.5 17-5c4.3-1.6 11.4-4.1 15.8-5.4 8.1-2.6 23.5-10.4 40.3-20.4l9.2-5.6V0H0zm41.9 13.8c10.5.1 20.8.6 21.3 1.5.5.7.7 2.8.4 4.7-.2 1.9 1.8 15.2 4.5 29.5L76.5 94c7.9 41.5 7.8 41.2 10.4 27.5l12.6-60 5.4-26.5c3.1-15.7 3.9-18 6.7-19 1.4-.6 9.2-1 17.4-1 19.4 0 19.1-.2 21.9 16.5l4.6 26 5.1 28c8.7 47.8 9.3 50.4 10.7 48 .5-1 2.7-9.3 4.7-18.4 12-53.2 21.9-92.4 23.9-95.1l1.8-2.5h19.1c14 0 19.4.3 20.4 1.3 1.4 1.4.8 4.9-4.2 25.7l-19.5 82-18.7 78c-3 13.3-9.6 38.7-10.3 39.3-.9.9-20.5 1.1-31.7.3-6-.4-9.2-1.1-10.3-2.2-.9-.9-2.3-5.4-3.1-10l-13.5-78.4c-2.4-14.5-2.7-15.6-3.8-13.5-.5.8-1.4 4-2 7l-2.1 9.5-14 63c-4.9 22.5-4.9 22.5-7.3 23.4-3.1 1.1-38.4-.2-39.6-1.4-1-1-8.5-37.9-28.6-140L19.9 38c-3.6-17.7-3.7-21.5-.8-23.1 1.6-.8 12.3-1.1 22.8-1.1zm433.6 2.4c16.2 0 29.4 4.3 42.6 13.5C526.2 35.3 534 43 534 45.4c0 1.4-1.6 3.4-15.8 19.9-9.4 10.9-11.8 11.9-16.3 7.1-1.3-1.5-6-4.4-10.3-6.5-7.3-3.5-8.7-3.9-16-3.9-6.9 0-9 .5-14.3 3-12.4 5.8-19.8 15.3-25.3 32.3-5.2 15.8-6.3 24.2-5.7 42.7.6 20 2.3 28.4 8.2 40.8 7.5 15.6 16.4 22.2 31.7 23.6 8 .7 13.9-.9 22.2-5.9 9-5.4 9.5-5.2 17 8 9.6 16.8 11.1 20.2 9.9 22.8-1.9 4.1-17.7 13.8-29.2 17.9-8.2 2.9-26.9 3.4-37.6 1-25-5.7-42.9-19.8-54.2-42.4-4.2-8.6-9.4-24.2-11.2-33.8-6.1-32.4-2.8-73.7 7.9-99.4 8.3-20 23.6-37.7 39.5-45.8 14.2-7.3 22-9.6 33.8-10.4 2.5-.2 4.8-.3 7.2-.2zm371.3 6.3c33.2-.1 59.2 1.1 65.2 3 25.3 7.8 46 32.5 54.3 64.6 5 19.2 7.1 49.4 4.6 68.9-4.8 39-24.7 72.2-51.6 86.2-7.7 4-10.3 4.8-18.4 5.7-18.4 2.2-76.7 1.7-79-.6-1.3-1.3-.4-73.4 2.2-180.3 1-41 1.2-43.6 3-45.5 1.8-1.8 3.3-2 19.7-2zm333 3.4l7.2.1c16.3 0 20.3.7 21.3 3.5.6 1.4-.2 57.1-1.8 124.5l-1.1 58.5c-.4 19.8-1.1 37-1.5 38.3-.9 2.2-1.1 2.2-19.7 2.2-15.1 0-19.2-.3-20.1-1.4-1.9-2.3-1-103.5 1.8-196.5.8-27.8-.6-29.2 13.9-29.2zm168.4 1.1c12.8-.1 28.5.3 30.2 1 1.4.5 2.8 2 3.1 3.3.3 1.2-.8 13.3-2.5 26.7l-4 32-3 22.5-5.6 43.5c-1.9 15.7-4 29.7-4.6 31.2-.5 1.4-2 2.9-3.1 3.2-1.2.3-5.4.6-9.3.6-11.6 0-11.4.5-13-24.6L1333 118c-3.3-44.3-5.4-84.3-4.7-87.1.5-1.9 1.5-2.8 3.8-3.3 1.9-.4 8.5-.6 16.1-.6zM881.5 66.5c-1.3 0-2.6 0-4 .2-6.6.5-7.6.9-8 2.7-.5 2.4-1.2 35.8-2.2 95.9-.5 35.2-.4 42 .8 42.7 1.9 1.2 16.5.1 22.2-1.7 3.5-1.1 6.9-3.4 11.7-8 10.7-10.1 16.4-22.5 20.6-45.6 2.5-13.7 1.5-39.1-2-51-7.3-24.5-19.4-35.5-39.1-35.2zm372.9 18.3c8.5 0 17.2.4 18.5 1.2 2 1 2.1 2 2.1 17.9 0 19.2-.5 18.1 8.8 18.1 9.9 0 10.2.5 10.2 18.3 0 19.7 0 19.7-11.4 19.7-6.1 0-8.5.4-8.9 1.3-.3.8-.8 21.1-1.2 45.3-.4 24.1-1.2 44.7-1.7 45.7-.8 1.5-2.6 1.7-17.1 1.6-8.9 0-17.3-.5-18.6-1l-2.4-1 .7-45c.5-33.9.4-45.4-.5-46.5-.8-1-3.3-1.4-7.8-1.4-3.9 0-7.2-.5-7.9-1.2-.8-.8-1.2-6.1-1.2-17.4 0-19-.2-18.7 9.9-18.9 3.8-.1 7.2-.5 7.8-.8.6-.4 1.2-7.8 1.6-17.3.3-9.7.9-17.1 1.6-17.7.7-.7 9-1 17.5-.9zM278 112.6c12.3-.1 20.2 1.5 29.1 6 10.8 5.3 23.5 20.5 28.8 34.3 4.8 12.7 6.7 35.9 3 38.2-.8.5-19.7.9-42.1.9s-40.9.4-41.2.9c-1.4 2.1 5.5 9 12.1 12.2 12 5.7 25.5 5.1 36.6-1.7 5.2-3.2 6.1-3.5 8.6-2.5 3.6 1.5 19.1 18.4 19.1 20.9 0 1-1 2.8-2.2 4-4.1 3.8-9.3 5.1-31.7 8.2-8 1.1-15.9 2.4-17.5 2.9-1.7.5-5.6 1.3-8.6 1.7-3 .3-7.2 1.3-9.3 2-5.8 2.1-7.8 1.8-15.6-2.3-14.5-7.4-28.2-25.2-32.7-42.3-2.3-8.8-2.4-24.5-.1-33 4.4-16.6 14.6-30.8 28.5-40 11.5-7.5 20.9-10.3 35.2-10.4zm293.2.5c6.8-.1 13.3 1.5 20.5 4.9l8.6 4 2.7-2.5c2.5-2.4 3.1-2.5 15.6-2.5 7.1 0 13.6.4 14.4 1 1.3.8 1.5 5.9 1.1 38.7l-.6 41.8-.3 25.3c-.3 27 .7 25.5-16.7 25-12-.3-12.5-.4-15.3-3.1l-2.9-2.8-5.5 2.4c-3.1 1.4-8 3.2-11 4-20.2 5.7-39.9-1.3-52.7-18.7-10.9-14.9-15.1-28.4-15.1-48.5.1-24.1 6-39.9 20.6-54.3 6.9-6.9 12.6-10.1 23.4-12.8 4.7-1.3 9-1.9 13.2-1.9zm151.8 1.5c4.3 0 8.9.8 13.8 2.3 13.2 4 24.7 18.3 27.3 34.1 1.7 10.2.2 93.8-1.7 96.8-1.3 2-2.2 2.2-9.8 2.2-4.7 0-9 .1-9.8.3-.7.2-5.1.1-9.8-.2l-8.5-.6v-84l-2.3-3.8c-4-6.4-10.9-8.4-18.4-5.3-9.1 3.8-9.7 6.8-10.5 52.4-.6 35.3-.8 37.7-2.6 39.5s-2.9 1.9-18 1.2c-11.7-.5-16.6-1-17.6-2-1.6-1.5-1.6-20.5-.3-93.3.7-32.5.8-34.5 2.6-35.8 2.4-1.7 25.9-2 30.1-.4 1.5.6 3.2 2.4 4.1 4.5.8 1.9 1.6 3.5 1.8 3.5s3.7-2 7.8-4.5c7.6-4.6 14.5-6.8 21.8-6.9zm316.6 3.6c4.1 0 8 .5 11.6 1.4 13.9 3.5 21 7 30.6 15.1 10.6 9.1 19.6 24.4 22.3 38.1 1.6 8.5.6 24.9-2 33.3-2.3 7.4-10.6 21.7-15.4 26.7-5.3 5.6-17.4 13.2-26.1 16.5-7.3 2.7-9.4 3.1-21.6 3.4-15.1.3-19.5-.5-31.3-6.1-17.4-8.1-31.3-25.2-36.2-44.1-1.8-7-2-24-.4-31.7 3.5-16.2 16.7-34.4 30.9-42.5 11.8-6.7 25.5-10.3 37.6-10.1zm-765.3 29a8.33 8.33 0 0 0-2.2.3c-5.9 1.3-14.1 9.1-14.1 13.4 0 .7 6.2 1.1 18.5 1.1 21.4 0 21.5-.1 13.7-7.9-4.6-4.6-10.6-7.2-15.9-6.9zm303.5 3.8c-3.6-.1-7.3.6-10.3 2.3-5.1 2.9-10 9.4-12 16-2.5 8.2-3 19.3-1.2 25.8 2 6.7 8.4 14.5 13 15.8 7.8 2.3 17.7.2 21.9-4.6 4-4.4 4.7-8.5 5-27.5.3-16.2.1-18.7-1.5-21.1-2.7-4.1-8.8-6.6-14.9-6.7zm459.7 7.5c-6.7 0-8.8.5-13 2.7-6 3.1-8.5 5.7-11.8 12.1-3.7 6.9-4.3 12.6-2.2 20.3 2.1 7.9 7.8 14.7 15 18 6 2.8 13.7 3.1 21.4.8 10.8-3.1 20-16.8 18.7-27.4-1.4-11.5-5.9-18.7-14.6-23.5-4.8-2.6-6.5-3-13.5-3zm312.4 43.4c7.2.1 14.3 3.3 19.8 9.4 6.9 7.9 8.7 20.1 4.4 29.1-2.7 5.4-10.2 12.2-15.1 13.6-6.3 1.9-11.4 2-16.9.5-10.8-3-18.2-12.1-18.9-23.2-.6-9 1.2-14.5 6.8-20.6 5.5-6 12.7-8.9 19.9-8.8zm-962.5 13.7s.1 0 .1.1c3 1.1 1.2 3.5-6.5 8.6l-10 7.2c-5.7 4.3-7.4 4.5-3.2.4 1.8-1.7 3.2-3.4 3.2-3.8 0-1.6 14.2-12.3 16.4-12.5zm-50.5 21.6c.9-.1 1.9 0 3.1 0 5.4.3 5.5.4 5.8 3.4.3 2.7-.6 4.1-6 9.8-5.6 5.8-6.8 6.6-10.1 6.6-4 0-7.7-2.7-7.7-5.7s3.7-8.1 8.2-11.3c2.8-2 4.1-2.7 6.7-2.8zm23.3 1c.2 0 .3 0 .4.1.4.3-2 3.3-5.2 6.5-6.9 6.9-10.4 9.2-10.4 6.6 0-2.5 12.5-13.1 15.2-13.2zm-115.6 5.9c1.1 0 1.7.5 2 1.4.8 2-4.1 12-6.8 13.9-3.5 2.4-7.5 2-9.4-1-2.7-4-.1-8.5 7-11.8 3.5-1.7 5.7-2.5 7.2-2.5zm38 8.1c1.8 0 3.1.3 4.2.9 7.5 4.2 8.7 13.4 3.4 23.9-3.8 7.3-6.4 10.5-10.4 12.6-3.3 1.7-7.9 1.8-10.1.2-1.8-1.4-7.7-14.7-7.7-17.3 0-3.9 3.6-12.1 6.9-15.5 3.1-3.3 4.4-3.9 9.6-4.5 1.6-.2 2.9-.3 4.1-.3zm-92.8 18.9c1.3.1 2.8.6 4.7 1.3 4.3 1.8 7.5 7.8 7.5 14 0 4.6-2.3 16.4-4 20.4-.9 2-1.6 2.2-9.3 2.2-9.1 0-9.9-.4-13.1-6.7-2.6-5.1-2-9.4 2.6-18.2 4.9-9.8 7.5-13.2 11.6-13zm44.1 11.7l5.8 3.4c5.6 3.3 5.8 3.6 6.1 8.1.2 2.5-.3 6.7-1.1 9.4-1.3 4.3-1.8 4.9-5.3 6-8 2.4-21.8.7-23-2.9-.3-1.2 1-5.1 3.8-10.6 3.8-7.8 4.8-9 9-11l4.7-2.4zm19.4 20.4c1.5-.1 2.9 1.2 3.8 3.6.8 2 .5 2.2-2.7 2.2-4.1 0-5.5-2.3-3-4.8.6-.6 1.3-.9 1.9-1zM10.5 314.7c.5-.1 1.5.1 2.5.5 1.6.5 3 1.2 3 1.4s-.3.3-.7.3c-4.3-.8-5.3-1.2-5.3-1.9 0-.2.2-.3.5-.3zm1403 8.3c.3 0 .5.8.5 1.8 0 1.1-2.1 3.3-5.2 5.5-8.5 5.7-32 17.4-37.8 18.6-3 .6-9.2 2.7-13.9 4.6-4.8 1.9-11.1 3.9-14.1 4.5s-10 2.3-15.5 4c-5.5 1.6-12 3.2-14.5 3.4-2.5.3-3.6.3-2.5 0l15-4c28.2-7.6 53.4-16.4 66.2-23.2 6.8-3.6 12.3-7 12.3-7.7 0-1 8.3-7.5 9.5-7.5zm-851.6 18.6c9.2-.1 18.8.1 31.1.4 46.6 1.2 52 2.6 60.7 15.4 4.2 6.1 5.3 10.3 5.3 19.6-.1 11.8-3.5 20.1-18.6 45l-18.7 30.4c-8.9 13.9-7.8 14.9 5 4.5 18-14.5 39.5-26.7 65.1-37 13.5-5.4 34.9-12.9 36.6-12.8.6 0-5 2.2-12.4 4.8s-15.3 5.7-17.5 6.8-6.4 2.8-9.4 3.8c-2.9.9-10.1 4.2-16 7.2l-14.3 7.4c-7.1 3.7-23.4 14.7-32 21.7-10.5 8.6-12.2 9.6-13.6 7.9s-1.1-2.4 9.6-19.2l12.9-20.5c2.1-3.6 5.6-9.2 7.7-12.5 2-3.3 5.7-10 8.1-15 13.1-26.5 6-46.9-18.9-54-5.1-1.5-11.8-1.8-49-1.9l-65.1.6c-15.3.4-18.2.3-9.5-.2 23.4-1.6 37.5-2.3 52.9-2.4zm-81.1 19.9l2.7 3.5c2.2 2.9 2.5 4.1 1.9 7-.4 1.9-.8 5.6-.8 8.3-.1 2.6-.2 4.7-.3 4.7-1.4 0-2.8-6.3-3.1-14l-.4-9.5zm826.5 4.8c.2-.1.3 0 .3 0 .6.6-24.4 5.5-34.1 6.7l-13 1.6c-5.4.7-32.6 3.4-45.5 4.5-10.8.9-52.7 1.5-175 2.5-158.2 1.2-181 2.2-181 7.5 0 .5-1.4.2-3.2-.7-2.8-1.5-4.5-1.5-15.2-.5-20.4 2-44.1 5.3-54.4 7.7-3.5.8-8 1.3-10 1.3-6.2-.1-4.4-.5 22.8-4.8 61.1-9.8 101.1-11.6 299.5-13.1 113.5-.9 124.7-1.2 159-5.1 9.7-1.1 13.2-1.6 37.9-5.9 5.7-1 10.6-1.7 11.9-1.7zm-816.9 24.3c.5-.1 1.6.1 3.3.5 4.6 1 5.3 1.8 11.8 15.4l10.6 21.5c1.6 2.8 1.9 4.4 1.3 8-1.4 8.8-.9 17.3 1.3 22.2 2.3 5 5.3 7.2 11.6 8.3 4.1.8 6.7 3.8 12.6 14.1 5.7 10.1 27.4 44.2 33.8 53.4l10.1 14.8c12.5 18.3 13.9 20.3 16.5 23 3.2 3.5 9.5 22.8 10.3 32.1.4 3.9.4 7.1.1 7.1-.7 0-1.4-2.5-5.2-18.5-1.4-6-3.6-12.6-4.8-14.6-2.9-4.8-7.5-11.8-9.9-14.9-1.9-2.5-26.9-40.3-36.3-54.7l-8.1-13.3c-4.8-8.6-12.6-21.3-14.1-23.2-.8-.9-2.9-1.9-4.7-2.2-5.5-1.1-11.1-5.9-14.3-12.3-2.6-5.4-2.8-6.7-2.9-17.8l-.1-12-8.1-16.7c-7.4-15.2-8.5-16.9-11.7-18.2-2.9-1.2-3.9-1.9-3.1-2zm278.9 6.9c1 0-.7.4-5.3 1.5-4.7 1-9.2 1.9-10 1.8-2.8 0 8.1-2.6 13.3-3.2 1-.1 1.6-.1 2-.1zm-17.9 3.8c.2 0 .3 0 .3.1.3.2-1.5 1-3.9 1.6l-9.9 2.5c-5.4 1.5-8.6 1.9-7.8 1.1.7-.7 18.7-5.1 21.3-5.3zm-443.8 6c4.1-.1 6.2.4 8.8 1.2 5.1 1.6 6.4 1.6 12.5.5 3.8-.7 10.4-1.1 14.8-.8 7 .4 9.1 1 18.4 5.6 5.7 2.8 14.4 6.5 19.2 8.3 6.2 2.2 10.3 4.5 13.5 7.4 2.6 2.3 6.3 4.6 8.2 5s4.8 1.4 6.4 2.2 5.1 2.1 7.8 3c9 2.6 15.8 11.6 15.8 20.8-.1 5.5-3.7 17.1-7.4 23.5-3.3 5.7-3.7 7.1-3.9 14.4-.2 7.1-.7 8.8-3.6 14-7.4 12.9-18.8 23.5-27.1 25.1-4.8 1-10 4.3-10 6.4 0 1.5 1.1 1.9 5.9 2.4 3.3.2 7.2 1.1 8.8 1.9a361.67 361.67 0 0 0 6.8 3.5c5.5 2.8 10.2 9.2 11.1 15.1 1.5 9.8-2.9 20.7-10.1 25.2-4.5 2.8-13.6 3.6-18.7 1.7-10-3.8-19-14.1-20.4-23.3-.6-4.1-.8-4.4-3.8-4.4-6.6 0-10.8-2.1-16.5-8.1-3.8-4-6.9-6.3-9.5-7-2.2-.6-5.8-3.1-8.8-6-2.9-2.7-5.6-4.9-6.1-4.9s-2.5 1.4-4.5 3.1c-1.9 1.7-5 3.8-6.8 4.5-3.6 1.5-17.9 4-31.9 5.5-4.9.6-12.6 2.1-17 3.4l-10.4 3c-1.3.4-4 2.2-6 3.9-2 1.8-7.3 5.6-11.8 8.5-10.3 6.5-14.9 7.2-27.3 4.1l-14.2-3.3c-3.1-.7-7.2-2.5-9.1-4-6-4.5-12.2-13.8-14.6-21.8-1.2-4.1-3.2-9.4-4.3-11.9-3.1-6.8-3.4-15.4-1-23.6 1.1-3.8 2.6-10 3.2-13.7.8-5.3 3.1-10.9 9.7-24 9.1-18.3 12.9-25 20.1-36.1 3.6-5.4 6.1-7.9 11.6-11.4 9-5.8 20.6-10.5 29.8-12.1 2.9-.5 7.3-1.7 9.8-2.6 5.8-2.2 14.4-2.9 19.8-1.7 2.5.6 7.3.7 12 .2 17-1.8 25.5-2.7 30.8-2.7zM15.9 434.2c.1 0 .1 0 .1.1 0 .2-.7 1-1.5 1.7s-1.5 1-1.5.8c0-.3.7-1.1 1.5-1.8.6-.5 1.1-.8 1.4-.8zm2.8 24.1c.9-.2 1.3.3 1.3 1.5 0 1.5-1.1 2.2-4.4 3.1-5.7 1.4-5.6 1.4-5.6-.8 0-1.4.9-2.1 3.3-2.6l5-1.2h.4zm14 28.4c.5-.3-.1 2.4-1.7 7.5-1.1 3.4-2.9 11.2-4 17.2-1.8 9.8-2 15.4-2 51-.1 29.6.3 42.8 1.4 50.6.8 5.8 2.2 19.3 3 30 3.3 40.5 4.1 44.1 11.9 56.3 2 3.1 4.8 8 6.3 10.9 3.6 7.2 8.4 13.7 17.4 23.8 13.9 15.6 15.1 17.4 31.2 48.8 5.4 10.7 11.2 21.4 12.9 23.8 1.6 2.4 2.8 4.4 2.5 4.4-1.5 0-7.6-10.1-15.1-25-14.7-29.2-20.3-38.1-32.5-51-5.9-6.3-13.8-17.3-19.6-27.5-1.5-2.7-4.2-6.7-6-8.8-4.4-5.2-7.2-14.8-8.5-29.2l-2-20.5c-.5-4.7-1.1-13.5-1.4-19.5-.2-6.1-.9-13.3-1.5-16-.8-3.4-1.2-19.5-1.2-50 0-44.2.1-45.2 2.5-56.5 1.4-6.3 3.4-13.7 4.5-16.5 1-2.4 1.7-3.6 1.9-3.8zM782.8 498c-.7 0-.6.6.2 1.5.7.9 1.5 1.3 1.8 1.1.6-.7-.8-2.6-2-2.6zm640.8 35.3c-.2 0-.4.1-.7.4-.6.6-.8 1.6-.5 2.2 1.1 1.7 1.6 1.3 1.6-1.1 0-1-.1-1.5-.4-1.5zm-895.1 57.8c1.5 0 3.2 0 5.1.1 9 .3 10.6.6 14.2 3.1 7.4 4.8 12.2 15 12.2 25.7 0 7.6-1.7 11.3-9.4 20.6-7.8 9.3-10.8 11.7-16.5 12.9-2.2.5-5.2 2.5-8.1 5.5-3 3-6.1 5.2-8.6 5.9-4.5 1.3-10.7 1.3-14.7.1-7.3-2.2-15.3-11.5-16.3-18.9-.6-4.4-.9-4.7-5.7-7.1-3.3-1.6-6.2-4-8.2-6.8-2.8-4.1-3-4.9-3-13.5 0-7.9.3-9.7 2.4-13 4.6-7.4 8-8.8 26.3-10.2 9.8-.8 18.1-2 20.8-3 2.6-1 5.1-1.4 9.5-1.4zm85.2 77.1c.8 0 1.6 0 2.6.1 3.2.3 6.3.9 6.8 1.4s.5 2.4-.1 4.3c-1.4 5-1.2 11.5.5 15.6 1.8 4.5 12.8 15.9 19.8 20.7 2.8 1.9 7.1 4 9.5 4.7 2.4.6 6 2.6 8 4.3 14.7 12.9 24.1 17.4 45.7 21.7 5.9 1.2 15.4 5.4 20.7 9.2 4.4 3.1 28 13.6 32.3 14.3 2.2.4 6.5 1.7 9.5 3 7.6 3.1 27.4 5.5 52.7 6.3l21.2.7 3.6 3.5c2 1.9 5.5 6.9 7.7 11 5.7 10.6 15.8 31 15.8 32 0 .9 6.9 18.7 10.1 26 2 4.6 6.8 20.5 7.6 25 .2 1.4 1.5 6.1 2.8 10.5s2.8 9.8 3.3 12c.6 2.2 3.8 12.1 7.2 22s7.2 23 8.6 29c1.3 6.1 3.5 14.8 4.9 19.5 2 6.4 2.6 10.6 2.6 17.4 0 6.5.5 9.8 1.8 12.5 2.4 4.7 4.8 19 5.6 32.1.7 11.9 2 21.2 4.1 28.4 1 3.5 1.6 14.9 2.1 41.1.5 28.3.4 36.3-.6 36.9-1.5.9-10.7-8.2-12.1-12-.6-1.4-1-4.6-1-7.1 0-4.7-2.6-10.2-5.9-12.5-2.4-1.7-9.6-13.7-11.2-18.5-.6-2.1-4-6.9-7.4-10.8-3.5-3.8-7.5-9.6-9-12.8s-3.5-6.3-4.4-7c-1-.6-3.6-3.7-5.8-6.7s-5.5-6.8-7.3-8.3c-1.7-1.6-4.2-5.2-5.5-8-1.2-2.9-3.3-6.1-4.5-7.2-1.3-1.1-3.8-5.1-5.6-9-5.2-11.2-14.2-22.1-23.2-27.9-8.4-5.4-19.8-10.6-27.8-12.6-7.1-1.8-26.5-.1-32.6 2.8-2.4 1.2-5.7 2.6-7.3 3.3-4.1 1.5-18.2 1.2-26.1-.6-7.5-1.7-16.9-1.9-23.3-.4-2.5.5-8.3 2.9-12.8 5.2l-8.4 4.1-11-3.8c-10-3.5-11.6-3.8-19.1-3.4-7.1.4-9.5 1-17.3 4.7-10.4 4.9-12.8 6.9-16.1 13.3-1.3 2.6-3.2 4.9-4.2 5.2-3.1 1-7.3-1.2-12.4-6.2-12.9-13.1-16.9-16.4-21.5-17.9-5-1.7-9.8-4.6-22.3-13.6-4.1-3-9.1-6.2-11-7.2s-5.3-3-7.5-4.5c-2.2-1.4-5.6-3.2-7.5-4-1.9-.7-4.1-2-4.7-2.8-1.6-1.9-1.6-9.2-.1-15.2.6-2.5 1.2-11.7 1.2-20.5l.1-16 4.2-7c7.6-12.6 15.3-29.4 16.8-36.6.8-3.8 2.3-8.6 3.3-10.7 1-2 2.7-7.5 3.6-12.2 1-4.7 2.5-11.2 3.4-14.5 2.9-11.7 6.2-38.1 6.2-50.3 0-6.1.8-8 6.3-14.2 5-5.8 6.2-8.1 8.8-17.7 1.2-4.3 3.1-9.8 4.4-12.3 1.2-2.5 3-9 4-14.5.9-5.5 3-12.9 4.5-16.5s3.3-8.9 4-11.9c1.6-6.9 3.4-9 8.7-8.9zm79.8 54.5c-1.6 0-3.2 0-4.7.1-9.5.5-.9 4.8 19.2 9.7 3 .7 7.2 1.3 9.2 1.4 3.3.1 3.8-.2 4.4-2.6.5-2 .2-3.1-1.4-4.4-2.9-2.3-15.4-4.1-26.7-4.2zm123.3 32.2c-14 .2-42.8 2.1-42.8 3.3 0 1-.1 1 12.2 3.7 7.4 1.6 14.7 2.2 32 2.7 12.2.3 24.1 1 26.2 1.6 5.7 1.4 14.1 10.4 19.5 20.9 2.4 4.6 5.7 10.3 7.3 12.7 1.6 2.3 3.7 5.9 4.6 8l4.1 8.2c1.3 2.5 2.6 4 2.8 3.3.2-.6-.2-2.2-1.1-3.5-.8-1.3-1.9-4.8-2.5-7.8-1.1-6.1-5.7-19.3-8.1-23.1-.9-1.3-3-5.4-4.8-9.1-3.9-8.1-9.1-12.1-16.6-13.1-2.8-.4-6-1.4-7.2-2.2-2.2-1.4-11.4-4-18.8-5.3-1.1-.2-3.6-.3-6.8-.3zm-705.1 56.6l6.9 6.6c3.8 3.6 8.8 7.8 11.2 9.2 2.3 1.5 4.2 2.9 4.2 3.2 0 .8 0 .8-9.1-5.2-1.9-1.3-5.7-4.9-8.4-8l-4.8-5.8zm23.4 20.1c1.2.1 10.8 4.2 11.8 5.1.2.1 0 .3-.5.3-1.3 0-11.4-4.8-11.4-5.4h.1zm14 5.5c.3 0 .7.1 1.1.2.8.3.6.6-.6.6-1.1 0-1.7-.2-1.3-.5.1-.2.4-.3.8-.3zm253.2 78.2c2.3 0 4.9.2 8 .5 11.1 1.2 15.4 3.2 19.3 9.2l2.5 3.7 3.5-3.3c4.4-4.2 10.1-5.8 18.3-5.1 8.6.7 13.2 4 19.1 13.7 4.3 7.2 4.5 7.8 4.5 15.6 0 7.1-.3 8.5-2.7 12.2-1.6 2.3-4.6 5.4-6.8 6.8-2.9 2-5.5 2.7-10.2 3-11.3.6-16.1-2.4-22.8-14.4-2.5-4.5-4.8-8.2-5.2-8.2-.3 0-1.8 2-3.3 4.5-6.7 11.5-21.9 13.8-32.2 5-13.1-11.2-15.9-27.9-6.3-37.5 4.1-4.1 7.6-5.7 14.3-5.7zM674.4 993c-1.8 0-1.8.6.4 3.5 1.4 1.9 1.9 2 2.5.8 1-1.6-.8-4.3-2.9-4.3zm-272.2 45c5.6 0 9.5.3 35.2 3.1 27.7 2.9 53.8 12 60.1 20.8 2.7 3.8 3 5.1 3 11.5 0 9.4-2.7 13.7-12.7 20.4-6.8 4.5-7.4 4.7-14.4 4.7-6.6 0-7.6-.3-11.9-3.3l-4.7-3.3-5.2 2c-2.8 1.1-6.7 2.4-8.6 2.9-2.9.7-4.1 1.9-6.8 6.8-4.3 7.6-5.5 8.9-11.2 11.7a132.59 132.59 0 0 0-8.6 4.8c-3.2 2-5.2 2.4-11 2.4-6.5 0-7.6-.3-12.5-3.6-3.1-2-7.4-3.9-9.9-4.3s-6.9-2.2-9.7-4.1c-6.9-4.6-10-4.6-10.8-.2-1 5 1.1 18 4.1 25.5 3.7 9.3 3.7 9.3 10.2 8.6 7.3-.8 12.4.6 20.1 5.6 3.5 2.3 8.5 4.5 11.4 5.1 6.6 1.4 11.8 4.7 14.8 9.6 1.9 3.1 2.4 5.2 2.4 11 0 6.3-.3 7.6-3 11.3-3 4.3-5 5.6-16 10.7-5.9 2.8-14.9 8.7-27.5 18.3-13.9 10.6-13.6 10.5-22.1 10.7-5.6.1-8.4.6-10.5 2-2.3 1.4-5 1.8-13.9 2-6 0-12.6.6-14.5 1.2-3.9 1.3-12.2 1.3-16 .2-1.4-.5-4.1-1.8-6-2.9-4.3-2.6-6.3-2.7-9.7-.4-2.1 1.3-4.8 1.7-11.3 1.7-7.8-.1-9.2-.4-17.8-4.3-5.5-2.5-10.8-4.2-13-4.2-2 0-6.7-.6-10.3-1.4-5-1-8.9-1.1-16.5-.4-12.6 1.2-18.7.5-23.4-2.6-5.9-3.9-8.4-8.9-8.6-16.9-.1-3.8-.6-7.3-1.1-7.9-1.2-1.1-9 2.6-15.5 7.2-5 3.7-10.6 4.5-20.9 3.1-14.1-1.9-19.1-6.9-21.1-21.2-2-14.1-1.6-20 1.5-24.7 1.5-2.3 4.8-5.3 7.4-6.9 4-2.3 5.9-2.8 11.8-2.8 5 0 7.9.5 9.7 1.7 4.5 3 9.2.3 24.7-14l27.6-24.9c7.7-6.2 14-11 18.4-13.7 2.2-1.4 6.3-4.6 9.2-7.2 6.1-5.4 12.4-8.4 19.4-9.1 2.8-.2 6.6-1 8.5-1.8 19.5-7.3 24-9.3 27.4-11.7 2.2-1.6 6.5-3.5 9.5-4.4 3.1-.8 8.3-2.8 11.6-4.4 5.9-2.9 17.3-6.9 27-9.5 2.8-.8 7-2.1 9.4-3 2.5-.9 6.8-1.5 10-1.4 3.1.1 8.1-.5 11-1.4 3-1 7.7-1.7 10.5-1.7s7.3-.7 10-1.5 7.6-1.5 10.8-1.5zm183.3 2.1c5.7-.2 11.7 2 16.4 6.7 4.8 4.8 6.5 8.4 10.1 21.2l2.9 10c.6 1.9 1.1 5.5 1.1 8 0 4.4.2 4.7 8.2 11.5 5.2 4.5 10.1 9.9 13.5 15 3 4.4 9.5 12.5 14.4 18 12.7 14.2 13.4 15.4 13.4 24.6 0 6.5-.4 8.1-2.7 11.6-1.4 2.2-5 5.5-7.8 7.3-4.4 2.8-6.2 3.4-12.3 3.6-4 .2-8.7-.1-10.5-.7-4.4-1.3-21.3-17.6-24.1-23.2-1.1-2.3-2.6-6.1-3.1-8.4-1.2-4.6-5.5-8.6-18.4-16.6-7.8-4.9-9.3-6.3-12.1-11.2-2.2-3.7-3-7.1-6.7-28.5-.7-4.1-1.3-13.8-1.3-21.5 0-13 .2-14.3 2.4-17.8 3.8-6.1 10-9.4 16.6-9.6zm-385.3 6.2c3.1 0 7.1.5 14.3 1.7 11.6 1.8 18 7.7 19.2 17.7.8 7.2-1.1 12.7-6.1 17.6-6.4 6.2-17.1 15.4-21.6 18.3-4.4 2.9-13.3 4-18.8 2.3-7-2.1-13.2-11.1-13.2-19.2 0-1.5-.8-4-1.7-5.4-1.3-2-1.8-4.7-1.8-9.8 0-6.1.4-7.7 2.7-11.2 3.4-5.2 7.4-7.6 17.2-10.3 4.1-1.1 6.6-1.7 9.8-1.7zm317.2 92c14.8 0 22.1 6.7 22.1 20.4 0 6.3-.3 7.6-3 11.5-1.7 2.3-5.7 6.1-8.9 8.3l-5.8 4-11.1.3c-11.9.2-15.8-.6-21.5-4.6-5.5-4-7.7-8.8-7.7-16.9 0-6.3.3-7.6 3-11.4 4-5.7 9.8-8.5 21.5-10.5 4.2-.7 8-1.1 11.4-1.1zm-424 14.5c.6-.3-.9 4.6-4.1 12.7-6.7 16.9-8.3 22.6-12.2 44-4.6 25.1-5 31.2-3.2 46 .7 5.5 1 12.3.7 15-.4 2.8-.8 8.9-.9 13.6-.2 8.2-.4 9-3.9 14.1l-3.8 5.4-.7 21.5c-.6 15.4-1 20-1.5 16.5-1.8-11.8-.5-36.9 3.2-61.9.6-3.7 1-9 1-11.7 0-5 .3-7.5 4-31.7 1.1-7.2 2-14.8 2-17 0-2.1.8-7.6 1.9-12.3 4.5-18.8 6.1-26.7 6.1-29.3 0-4.2-2.5-8.3-6-9.7-4.3-1.8-3.3-3.5 1.9-3.2 6.9.5 9.9-1.3 13.3-8.2 1.2-2.5 1.9-3.7 2.2-3.8zm-27.9 197.5s0 .4.1 1.2c.2 2.8.8 7.9 1.4 11.5s1.5 14.8 2 25 1.4 20.8 2 23.7 1 6 .8 7-1.2-2.8-2.1-8.3c-1.7-9.3-3.4-32.2-4.1-54.9-.1-3.1-.2-5-.1-5.2zm1054.4 25.3c-.3 0-.7 0-1.1.1-1.3.3-3.8 1.7-5.7 3.2l-3.5 2.9 3 1.5c1.6.9 3.3 1.6 3.7 1.7 1.7 0 4.6-4.5 4.7-7.1 0-1.7-.2-2.3-1.1-2.3zM72.1 1420.5l2 11 4.5 24.4c1.4 7.3 2.3 13.5 2.1 13.7-.3.4-1.4-4.4-6.2-26.6-.7-3.6-1.6-10.1-1.9-14.5l-.5-8zm9.2 51.5c.1-.2.3 1 .8 3.5l3 15 3.5 18 5 26.3c1.9 10.1 3.4 18.6 3.1 18.8-.2.3-1-2.4-1.7-5.8-.7-3.5-1.8-8.5-2.5-11.3-1.3-5.1-2.7-12.6-4.3-24.5-.5-3.6-2.1-11.4-3.5-17.5-1.4-6-2.7-13.9-3-17.5l-.4-5zm980.7 66.5c8.9 0 15.6 2.7 19.6 8.1 4.3 5.6 8.8 19.8 8.8 28 .1 6-.3 7.6-2.6 11.1-1.5 2.2-4.3 5.1-6.3 6.3-4 2.5-14 3.6-18.8 2-5-1.6-9.4-5.8-12.4-11.7-1.6-3.2-4.2-8-5.9-10.8-2.5-4.3-2.9-6-2.9-12.6 0-6.5.4-8.1 2.7-11.6 4.3-6.5 8.9-8.8 17.8-8.8zM97.4 1557c.3-.9 9.1 21.6 12.5 32.3 1.8 5.5 3.1 10 2.9 10.2-.5.5-4.5-10.1-5.4-14-.4-1.6-2.6-7.9-5-14-2.3-6-4.5-12.3-4.9-14-.1-.3-.1-.4-.1-.5zm15.8 44.1l.6.9c.6.8 2.8 7.1 5.1 14 2.2 6.8 3.9 12.6 3.7 12.8-.4.4-4.9-11.7-7-19l-2.2-7.5c-.2-.7-.3-1.1-.2-1.2zm982.2 69.9c-1.9 0-4.8.7-6.3 1.5-2.4 1.2-5.8 5.6-8.3 10.3h7.4c.3-.5.7-1.1 1-1.5 2.7-4.1 3.4-4.5 6.2-4 3.4.6 9.2 3.1 13 5.5h21.5c-4.9-1.9-8.3-2.8-10.6-2.8-2.5 0-5-.8-6.6-2-4.1-3.2-13.4-7-17.3-7z"/>
  <path d="M0 0v323.9l3.3-.6c2.3-.3 8 .8 17.7 3.6 7.9 2.3 18.9 4.8 24.6 5.6 5.6.9 12.6 2.3 15.6 3.2 2.9.8 8.5 1.6 12.5 1.7 7.2.2 10.6 1.6 10.1 4.3-.5 2.3-13.6 17.1-25.5 28.8-6.1 6.1-11.9 12.3-12.9 13.9s-3.6 4.1-5.7 5.7c-3.9 2.8-7.6 7.5-16.4 20.4-2.6 3.9-7.5 9.7-10.9 13.1-3.5 3.3-7.7 8.4-9.3 11.3C0 440.1 0 440.1 0 455.5V471l2.5.6c1.5.4 7.1-.5 13.4-2 11.2-2.7 15.1-3.2 15.1-1.8 0 .5-2 7.1-4.5 14.8-7.6 23.2-8.5 28.8-9 60.8-.6 34.9 1.5 87.3 4.5 110.6.6 4.7 1.5 13.5 2.1 19.5 1.2 13.3 4.2 23.4 8.5 28.3 1.7 2.1 5.6 7.8 8.5 12.7 5.8 10 14.4 21.9 17.9 25 4.1 3.6 13.5 15.9 17.7 23 2.2 3.9 7.8 14.4 12.3 23.5 10 20 12.9 24.6 21.8 34.7 12.1 13.7 30 23.5 46.6 25.4 4.4.5 8.6 1.5 9.4 2.3 1.2 1.2 1.1 1.6-1.2 3.1-6.1 4-8.6 14.8-5.3 22.8 1.8 4.2 8.6 10.3 12.5 11.2 3.6.8 4.6 1.8 6.1 6.6 1.5 4.5 4.8 7.7 8.9 8.5 3.9.8 4-.2.8-4.7-1.4-1.9-3.6-5.7-5-8.6-2.2-4.6-3.2-5.6-8.3-8-10.1-4.8-12.6-11.8-7.8-21.3 1.4-2.7 2.5-6.1 2.5-7.5 0-5.8-4.7-10.5-10.4-10.5-5.1 0-18.6-4.8-26.6-9.5-15-8.8-24.3-20.1-36.5-44.5-14.6-29.1-20.3-38-32.5-51-5.9-6.3-13.8-17.3-19.6-27.5-1.5-2.7-4.2-6.7-6-8.8-4.4-5.2-7.2-14.8-8.5-29.2l-2-20.5c-.5-4.7-1.1-13.5-1.4-19.5-.2-6.1-.9-13.3-1.5-16-.8-3.4-1.2-19.6-1.2-49.5-.1-50.3.2-53.5 8.2-77.3 4.3-12.9 4.7-16.3 2.6-20.5-2.7-5.2-9-6.4-18-3.7-6.3 1.9-6.6 1.9-6.6-.5 0-1.1.2-2 .5-2s6.5-1.3 13.8-2.9c11.8-2.7 17.7-3.5 21.5-3.2 1.8.2 1.5 3.3-.9 8.8-6.1 14.1-13.6 38.1-15.6 50.3-2.7 16.2-2.4 86 .5 108.5C32 639 33 649 33.5 658.9c.2 3.5 1.1 10.7 2.1 16 1.5 8.2 2.8 11.6 9.2 24.1 9 17.5 11.5 21.1 25.5 36.5 7.2 8 12 14.3 14.4 19 1.9 3.9 4.5 8.3 5.7 10 2.7 3.7 4.2 6.3 5.7 9.5.6 1.4 3.3 6.8 5.9 12 13.2 26.3 16.5 30.8 27.7 38.3 13.4 8.8 19 10.8 30.8 11.2 3.9.1 8.5.5 10.3.9 3.4.9 4.2-.3 2.3-3.3-1.2-1.8.4-5.1 2.4-5.1 2.3 0 4.7 4.1 3.3 5.7-.9 1.1-.1 2.5 3.8 6.4 2.7 2.7 5.9 5.2 7.2 5.6 2.2.5 8.2 8 8.2 10.2 0 .6 1.2 1.1 2.6 1.1s3.5.5 4.6 1.1c1.6.8 2.4.8 3.5-.3 1.1-1.2 1.2-2.4.3-6.2-.6-2.6-.7-5.2-.4-5.8.8-1.3 3.3-12.5 3.4-15 0-1-1.2-2.8-2.6-4-3.4-3-5.4-7-4.7-9.6.5-2 .3-2.1-4.5-1.5-5 .6-17.7-2-18.8-3.9-1.2-1.8-3.4-.8-3 1.5 1.8 8.7 1.7 9.1-1.6 11.1-3.3 1.9-13.2 2.9-19.1 1.9-4.3-.7-9.7-8.5-9.7-14 0-4.6 2.2-9.9 4.9-12 2.4-1.9 12.1-1.6 14.3.4 1 .9 1.8 1.1 1.8.6 0-.6-2.9-3.9-6.3-7.5-5.1-5.1-7.9-6.9-13.8-9.3-9.8-3.9-11.9-5.3-13.6-9.2-.7-1.8-1.5-3.3-1.8-3.3s-1.1 1.6-1.9 3.5c-1 2.4-2.6 4-5 5-7.6 3.2-15.3 1.2-21.8-5.6L100 770v-13.3c0-14.9.6-16.7 6.7-19.2 1.9-.8 5.7-1.5 8.4-1.5 5.7 0 7.3 1.8 11.4 12.5 1.4 3.8 2.7 7 2.8 7.1s0-6.9-.1-15.6c-.5-22.6 1.3-52.9 3.2-54.8 1.4-1.4 1.7-1.4 3.3 0 1 .9 4.3 3.3 7.3 5.3 4.9 3.3 5.9 3.6 9.8 3 3.4-.5 4.5-1.2 5.3-3.1 1.4-3.9 1.1-6.9-1.1-8.9-1.3-1.2-2-3-1.9-4.9.1-1.7-.3-4.3-.9-5.8-1.6-3.8-7.1-8.8-9.8-8.8-3 0-5.5-3.6-4.7-6.9.3-1.3 1.7-4 3-5.9 1.2-1.9 2.3-3.9 2.3-4.4 0-1-3.3-.7-7.7.7-3.1 1-3-1.5 0-5.2 1.3-1.5 2.7-3.6 3-4.6.7-2 7.2-5.1 8.7-4.2 1.3.8 1.3 5.2 0 6-.5.3-1 1-1 1.6 0 2.2 1.9.5 5.4-5.1 2.1-3.3 4.2-6 4.5-6 .4 0 2.2-2.8 4-6.2 1.9-3.5 4.1-7.2 5-8.3 4.1-5 8.1-13.7 8.1-17.5 0-1.7.5-4 1.1-5.1.7-1.4.7-4.3-.1-9.7-1.7-12-1.9-12.7-5.3-17.8-3.3-5-9.7-19-9.7-21.1 0-1.8-1.5-1.6-3 .2-.7.8-1.8 1.5-2.6 1.5-1.9 0-5.1-5-5.9-9.2-.9-4.9 2.5-16.4 7.1-23.9 2.4-4 3.6-7.7 4.3-12.3.8-5.7 8-23.8 11.1-28.1.4-.5 3.1-5.5 6-11 2.8-5.5 5.8-10.7 6.6-11.6s1.4-1.9 1.4-2.3c0-1.5 11.3-19.8 13.3-21.7 1.2-1.1 3.2-1.9 4.5-1.9s3.8-1.1 5.4-2.5 4.1-2.5 5.4-2.5 4.1-.9 6.2-2c2-1.1 4.5-2 5.5-2s3.2-.7 4.8-1.6c1.8-.9 4.2-1.3 5.7-1 1.8.4 3.7-.1 5.7-1.4 1.7-1.1 4.5-2 6.3-2s5.3-.5 7.8-1.1c3.4-.9 4.8-.9 5.7 0 2 2 17.9 1.2 51.2-2.3 2.8-.3 6.5-.8 8.3-1.2 2.8-.5 3.4-.3 3.9 1.4.5 2 1 2.1 11.6 1.5l11.2-.5 9.5 4 15.5 6.7c3.3 1.5 7.1 3.1 8.5 3.6 1.4.4 4.4 1.5 6.8 2.3 6 2.2 17.1.2 26.7-4.8 4.8-2.6 7.7-3.5 9.5-3.1 1.5.3 3.4 0 4.5-.9s2.7-1.6 3.6-1.6c2.2 0 9.7-6.6 12.6-11.2 1.5-2.5 4-4.6 6.6-5.8 2.4-1.1 5.3-3.3 6.5-4.9 1.3-1.7 3-3.1 3.9-3.1 1.9 0 19.3 17.5 19.3 19.3 0 .7.9 2.9 2 5 1.1 2 2 4.5 2 5.6 0 1 1.2 4.5 2.6 7.7 4.1 9.2 5.4 13.6 5.4 18.1 0 3.7.4 4.4 3.1 5.8 2.2 1.2 4 3.5 6.1 8.1 4.6 10 2.1 12.5-5.3 5.4-2.3-2.2-4.7-3.9-5.3-3.9-2.7.3-3.7-.3-5-3.6-1.3-2.9-2-3.5-4.5-3.5-3 0-3.1.1-3.1 5 0 4.5-.4 5.5-3.6 8.8L463.8 477c-5 5.2-10.4 10.5-12 11.7-1.6 1.1-4.4 4.4-6.1 7.1-1.8 2.8-6.1 8.2-9.7 12-3.6 3.7-8.2 10.1-10.3 14-3.5 6.7-3.7 7.5-3.2 13.7.2 3.6.9 7.4 1.5 8.4.5 1 .7 2.1.3 2.4-.3.4.2 1.8 1.1 3.1.9 1.4 1.6 3.1 1.6 3.9 0 2.7-4.2 14.6-5.6 15.8-.7.6-1.4 1.9-1.4 2.8s-.6 2.8-1.4 4.3c-2.8 5.4-2.8 8 .4 13.1 3.4 5.4 4.7 5.9 5.2 2 .2-2 1-2.9 3.4-3.5 2.8-.7 3.2-1.3 3.7-5.2.4-2.4 1.8-6.1 3.2-8.2 1.4-2 2.5-4.1 2.5-4.7s2-5 4.5-9.8c4.2-8.2 4.4-8.9 3.1-11.6-1.1-2.1-1.2-4.2-.5-8.5.6-3.6.5-6.6-.1-8.3-1.3-3.3-1.3-7.5-.1-7.5.6 0 2.5-2.1 4.2-4.7 1.8-2.7 5.2-6.9 7.6-9.5 2.3-2.6 4.3-5.2 4.3-5.7 0-.6 3.4-4.9 7.5-9.7 4.2-4.8 9.1-11 10.9-13.8s3.9-5.6 4.7-6.2c2.6-2.1 7.3-2.6 9.4-1 1.1.9 3.2 1.6 4.7 1.6 2.4 0 2.9.6 4.3 5.5.9 3 2.1 5.5 2.6 5.5 2.2 0 .7 4.1-2.2 5.5-3 1.6-3 1.7-2.4 7.3.3 3.1.8 6.9 1.1 8.4.5 2.8-.1 3.6-7.1 9.4-2.8 2.2-2.9 2.5-1.2 3.8 2.8 2.2 2 3.6-2 3.6-2.6 0-7.3 1.7-15 5.7-6.2 3.1-11.3 6-11.3 6.5 0 .4 1.2.8 2.8.8 5.7 0 7.2 1 7.2 4.7 0 6.2-4 10.4-7.9 8.4-1.6-.9-2.8-.1-7.8 5.7-15.6 17.5-18.2 20.8-18.8 23.8-.3 1.8-1.4 4.3-2.5 5.7s-2 3-2 3.6c0 2.1 2 1.1 3.4-1.8.9-1.6 2.4-3.1 3.6-3.4 1.1-.3 2.7-2.1 3.5-4 1.7-4 5-6.8 7.2-6 .7.3 2.7 3.4 4.3 6.9 2.6 5.8 3.2 6.4 7.1 7.4 5.4 1.5 31.9 2.3 35.1 1.1 1.6-.6 4.2-.6 7.1.1 4.4.9 5.1.8 11.3-2.6 3.5-2 7-3.6 7.7-3.6 1.9-.1 10.7-5.9 11.4-7.6.3-.9-.2-3.2-1.2-5.2-1.9-4-2.4-11.4-1.1-17.4l.8-3.8h-3.7c-3 0-3.6-.3-3.1-1.6.4-1.1-.1-2.2-1.4-3.1-2.2-1.5-2.6-4.7-1.1-8.7.9-2.2.7-2.5-1.7-2.8-2.5-.3-2.7-.7-3-5-.3-4.2-.6-4.7-3-5s-2.7-.7-2.4-3.6c.1-1.9.9-4.4 1.7-5.5.9-1.3 1.5-4.4 1.5-7.4 0-2.9.4-5.3.9-5.3 1.4 0 5.6 7.8 7.6 14 2.1 6.5 3.1 8 5.6 8 1.5 0 1.9-.8 1.9-3.3 0-1.8-.4-3.7-1-4.3-1.1-1.1 1-5.9 2.5-5.9.6 0 1.4 3.2 1.9 7 .5 3.9 1 7.2 1.2 7.3.1.2 1.9-.1 3.8-.8 5.4-1.7 11.2 1.4 17.1 9.2 6 8.1 6.3 9.6 2.9 16.6l-3.2 6.4c-.2.4 2.7 3.7 6.4 7.5 3.7 3.7 7.4 7.6 8.3 8.6 1.5 1.7 1.6 1.7 2.4-1.5 1.6-6.6 3-8.3 7-8.6 2-.2 3.7-.6 3.7-.8 0-.5-5.5-9.1-21.2-33.2-9.9-15.2-14.3-22.3-19.5-31.2-12.1-20.8-12.7-21.5-16-21.6-7-.2-10.5-3.1-15.9-13.1-2.6-4.7-7.4-21.7-7.4-25.9 0-1.2.7-2.7 1.5-3.4s1.5-1.8 1.5-2.5-3.4-8.1-7.5-16.4l-7.6-15.1h-4c-4.2 0-10.2-2-11.3-3.9-1.7-2.7-3.8-13.2-4.1-19.7-.2-7.1-.2-7.2-7.3-17.1-4-5.5-7.2-10.8-7.2-11.6 0-.9 1-1.9 2.3-2.1 3.3-.7 18-1.5 37.7-2.1 9.6-.3 25.4-1 35-1.6 19.8-1.2 76.4-.4 90.5 1.3 16.9 2 25.1 7.1 31.1 19.4 2.6 5.3 2.9 6.9 2.8 15.4-.1 13.4-3.2 21.8-15.1 41.1-2.3 3.7-6 10.2-8.3 14.4-2.3 4.3-5.8 10.1-7.9 12.9-4.7 6.4-7.8 12.1-5.9 11 .7-.4 3.5-2.5 6.1-4.7 8.1-6.7 16.7-11.9 34.8-20.9 33.1-16.6 68.3-28.5 103.4-34.8l19.5-3.5c17-3.1 48.3-7.1 62-8 5.2-.4 12-1 15-1.5s13.2-1.2 22.5-1.6c9.3-.3 17.3-.8 17.6-1s9.3-.4 20-.4l54.4-1c19.3-.5 71-1 115-1.1 81.9-.1 120.4-.9 138.7-2.9 5.6-.7 12.8-1.3 15.8-1.5 10.3-.6 25.6-3 56.5-8.6 10-1.8 30.8-7.6 52.5-14.6 16.3-5.3 23.4-8.2 34.5-14.1 7.7-4.1 15.4-8.5 17.2-9.8 3.8-2.9 4.3-2.9 4.3-.6 0 1.1-2.1 3.3-5.2 5.5-8.5 5.7-32 17.4-37.8 18.6-3 .6-9.2 2.7-13.9 4.6-4.8 1.9-11.1 3.9-14.1 4.5s-10 2.3-15.5 3.9-11.8 3.3-14 3.7c-2.2.3-8.9 1.7-15 3.1-14.9 3.2-25 4.6-57.5 7.9-35.9 3.6-35.8 3.7-201 5-158.2 1.2-181 2.2-181 7.5 0 .5-1.4.2-3.2-.7-2.8-1.5-4.5-1.5-15.2-.5-20.4 2-44.1 5.3-54.4 7.7-3.5.8-7.8 1.4-9.5 1.4-11.6.1-64 14.6-77.6 21.4-2.5 1.3-7 3.1-10 4.1-2.9.9-10.1 4.2-16 7.2l-14.3 7.4c-7.1 3.7-23.4 14.7-32 21.7-10.5 8.6-12.2 9.6-13.6 7.9s-1.1-2.4 9.6-19.2l12.9-20.5c2.1-3.6 5.6-9.2 7.7-12.5 2-3.3 5.7-10 8.1-15 13.1-26.5 6-46.9-18.9-54-5.1-1.5-11.8-1.8-49-1.9-49.5-.1-93.8 1.1-97.9 2.6-6.3 2.4-7.4 10.8-2.5 18.2 3 4.6 3.1 5 2 9.2-1.6 5.8-1.5 8.9.2 12.3 1.4 2.7 3.1 3.6 10.1 5.7 2.4.8 3.9 2.6 7.7 9.9 2.6 4.9 5.7 11.5 6.9 14.5 1.1 3 3.2 7.3 4.7 9.4 2.1 3.1 2.6 4.9 2.5 8.5-.9 16.3-.7 19.6 1.4 24.3 2.3 5 5.3 7.2 11.6 8.3 4.1.8 6.7 3.8 12.6 14.1 5.7 10.1 27.4 44.2 33.8 53.4l10.1 14.8c12.5 18.3 13.9 20.3 16.5 23 1.5 1.6 4.1 7.4 6.4 14.2l3.8 11.5-.4 44-3.5 7.5c-5.1 10.8-8.5 19.5-11 28-1.2 4.1-3 9-4 10.8-1 1.9-2.8 8.9-4.1 15.6s-3.2 13.8-4.3 15.7-3 7.1-4.2 11.7c-1.7 6.4-3.2 9.5-6.4 13.4-7 8.6-8.6 11.7-8.6 17.8-.1 12.5-3.3 38.8-6.2 50.5-.9 3.3-2.4 9.8-3.4 14.5-.9 4.7-2.6 10.2-3.6 12.2-1 2.1-2.5 6.9-3.3 10.8-1.5 7.2-8 21.3-16.3 35.5l-4.7 8-.1 16c0 8.8-.6 17.8-1.2 20-1.7 5.8-1.5 17 .3 20.6 1 1.9 3.6 3.9 7.3 5.7 9.3 4.6 20.2 11.2 27.4 16.6 9.3 7.1 15.5 10.8 21 12.7 2.9 1 6.6 3.4 9.7 6.5 16.8 16.5 19.3 18.4 25.1 18.4 5 0 8.8-2.6 11.5-7.9 3-6.1 5.6-8.1 14.9-12 10.3-4.3 16.5-4.8 24.9-2.3 3.6 1.2 8 2.8 9.6 3.7 5.5 2.8 12.4 2 20.4-2.4 10.1-5.6 18.8-6.9 29.4-4.5 4.6 1 12.3 1.8 18.8 1.8 10.4.1 11.4-.1 18.2-3.1 5.4-2.5 9.5-3.5 16.9-4.3 9.3-1 10.2-.9 17.8 1.6 4.4 1.4 9.4 3.3 11.1 4.1 6.5 3.4 18 10.6 18.8 11.9.4.8 3.1 4.2 5.9 7.7 2.7 3.4 6.5 9.4 8.3 13.2 1.8 3.9 4.2 7.9 5.3 8.9 1.2 1.1 3.3 4.4 4.7 7.5 3.1 6.7 4.9 8.7 9.6 11.2 2.7 1.3 3.8 2.6 4.2 4.9.4 1.8 2.1 4.5 3.8 6.1 1.8 1.6 4.4 5.5 5.9 8.7 1.6 3.1 5.6 8.7 8.9 12.4 3.4 3.6 6.1 7.2 6.1 7.9 0 2.4 9.4 18.4 13.2 22.3 3.3 3.5 3.8 4.6 3.8 8.8 0 6.2 3.9 14.2 8.3 16.8 3.8 2.4 8.7 2.5 12.6.5 5.3-2.7 5.5-4.5 4.8-42.1-.4-18.9-1.1-35.4-1.7-36.8-1.5-4-3.8-20.1-4.5-31.6-.8-12.1-3.1-25.2-5.2-29.4-1-1.8-1.6-6.6-1.8-13-.2-8.1-1-12.3-3.8-21.6-1.9-6.3-3.8-13.7-4.2-16.5-.3-2.7-3.8-14.2-7.6-25.5s-7.6-23.2-8.3-26.5-2.3-8.9-3.4-12.5l-3.2-11c-3.6-13.9-4.9-17.8-6.5-20.9-.9-1.9-2.8-6.4-4.1-10-6.5-18.3-8.7-23.8-14.1-34.2-13-25.1-16.9-30.8-22.2-32.7-1.4-.6-13.4-1.5-26.6-2-26.8-1.2-43.7-3.2-49.3-6.1-2.1-1.1-5.6-2.3-7.7-2.6-3.8-.7-20.4-7.5-27-11.2l-11.8-6.5c-5.8-3.3-11.3-5.4-16-6.4-21.3-4.5-28.5-7.9-42.8-20.1-2.7-2.4-6.8-4.7-9.1-5.3-9.1-2.4-25.8-17.2-27.2-24.1-.4-2.3.3-7.2 2.3-15.4l3.5-14.7c.4-1.7 1.8-3.4 3.6-4.3 3.6-1.9 6-6.2 6-11 0-1.9-1.4-8.8-3.2-15.2-4.4-16.4-4.5-18.7-1.3-28.2 2.4-7.3 3.2-8.5 9.1-13.8l14.8-13.3c8.8-7.9 16.4-13.8 20.6-16 1.4-.7 4-2.6 5.8-4.2 1.8-1.5 5.8-4.2 9-5.8 7.6-4.1 15.9-10.2 28.7-21.5 4.4-3.9 12.5-10.1 18-13.8s11.1-7.7 12.5-8.7c1.4-1.1 5.8-3.1 9.8-4.5 9.7-3.4 8.3-3.8 30.8 9.2 5.1 2.9 12.8 5.3 17.2 5.3 1.8 0 6.5.6 10.5 1.4 3.9.8 10.6 1.9 14.7 2.6s8.9 2.1 10.6 3.1c3.6 2.2 12.5 12.1 19.5 21.6 4.7 6.5 8.1 9.2 16.9 13.4 2.5 1.1 6 2.8 7.9 3.7 2.2 1.1 4.5 3.5 6.4 6.7 1.6 2.8 4.8 7 7.1 9.5 2.4 2.5 5 6.5 5.9 9.1 1.9 5.2 7.3 11.8 23.5 29.2 6.2 6.7 11.9 13.6 12.6 15.3.8 1.7 3.3 5.6 5.7 8.7l9 11.4c6.9 8.8 20.2 29 23.9 36.3 1.8 3.6 4.4 7.8 5.7 9.4 3.1 3.7 7.5 12.6 9.8 19.6.9 3 2.8 7.5 4.1 10s3.2 7 4.3 10c1 3 5.5 13.6 10 23.5l11.3 25c1.6 3.9 6.3 13.8 10.2 22l11.5 24.5 13.6 28.5 15.3 31.5c3.3 6.9 7.6 14.3 9.5 16.5 1.8 2.2 3.9 6.2 4.7 9 .7 2.8 3.2 8.8 5.6 13.5 2.3 4.7 4.5 9.6 4.9 11s2.2 5.4 4 9c1.9 3.6 4.1 8.4 5.1 10.7.9 2.3 2.7 5.2 4 6.4 1.2 1.2 2.6 3.6 2.9 5.3s2.1 6.5 3.9 10.6a671.73 671.73 0 0 1 7.1 16c2.1 4.7 7.5 16.2 12 25.6 4.6 9.4 8.8 18.9 9.4 21.2 1.3 4.6 10.2 22.6 12.6 25.2.8.9 1.5 2 1.5 2.4s2.6 6.6 5.8 13.9c6 13.5 6.8 15.4 10.7 26.7 1.3 3.6 3.7 9.4 5.3 13 1.7 3.6 4.9 12.6 7.1 20 2.3 7.4 5.7 17.3 7.5 22 2.2 5.4 3.8 11.8 4.5 17.5 1.2 9.8 2.7 15.2 6.2 23 1.7 3.8 2.4 7.8 2.9 16.6.6 10.9.9 12.1 4.3 18.2 2 3.6 4.3 8.8 5.1 11.5 2.2 7.6 3.4 9.2 8.2 11.3 4.5 2 5.7 4.5 2.7 5.5-11 3.5-12.7 8.4-7.4 21.4 2.4 5.9 2.7 7.2 1.5 7.7-2.1.8-4.4 5.7-4.4 9.3 0 4 1.3 6.6 5.9 11.3l3.6 3.8-.2 8.9c-.2 6.2-.9 10.6-2.4 14.7-1.2 3.2-2.3 8.1-2.6 10.9-.7 8.3 1.8 12.7 16.9 28.8 3.7 3.9 8 9 9.7 11.3 2.3 3.1 4.3 4.6 8.2 6 4.2 1.5 7.1 3.8 16.3 13.3 14.7 15 22.6 22.5 25.1 23.8 1.1.5 3.7 1.2 5.8 1.6 2.8.5 4.1 1.4 5.3 3.9.9 1.7 3.4 5.1 5.6 7.5 4.5 4.9 5.8 7.9 5.8 13.2 0 5.4 5.3 12.8 11.3 15.8 2.5 1.3 6.6 4.7 9 7.5 4.5 5.5 9.7 15.1 9.7 18.3.1 3.3 3.6 9.9 8.1 15 3.8 4.2 4.9 6.5 7.3 15.2 2.7 9.6 2.8 10.8 1.7 17.2-2.7 16.5-.9 23.7 7.5 30.6l4.6 3.8-3.5 1.7c-1.9 1-4 3.1-4.7 4.9-1.2 2.9-1.2 4.1.6 19.6.5 4.2.2 5.9-2 10.2-2 3.9-2.6 6.6-2.6 11.5 0 5.5-.5 7.4-4 14-2.2 4.2-4.8 10.2-5.8 13.4-2.3 7.2-6.3 13.7-9.9 16-1.6.9-4.4 3-6.3 4.5-1.6 1.2-4.9 2.7-7.8 3.7h13.6l3.5-2.6c6.2-4.8 10.6-11.7 13.2-20.6.9-3.3 3.3-8.6 5.3-11.9 3.1-5.2 3.6-7.2 4.2-14.7.5-6.3 1.2-9.6 2.8-12.1 2.7-4.3 2.9-12.4.7-21.2-2-7.7-1.5-9.4 3.6-10.2 7.7-1.2 7-7.4-1.6-15.4-6-5.6-7.2-9-6.1-17 2-14.2 1.9-17.5-.9-27.2-3.4-11.6-3.6-12.1-9.7-19.1-3.5-4-5-6.8-5.4-9.5-1.5-10.2-12.9-27-20.4-30-5-2-9.8-8.5-10.5-14.3-1-8-1.4-8.7-5.8-13.7-2.4-2.7-5.2-6.3-6.1-8.1-1.9-3.8-4.3-5.3-8.6-5.3-3.4 0-6.2-2.5-28.6-25.1-8.9-9.1-12.6-12.2-16.6-13.8-3.3-1.3-6.1-3.3-7.5-5.4-1.3-1.8-5.2-6.3-8.9-10.2-3.6-3.8-7.7-8.7-9.1-10.7-1.4-2.1-3-3.8-3.5-3.8-1.3 0-3.8-6.4-3.8-9.9 0-1.7.9-4.8 2.1-7 2.3-4.5 4.5-21.9 3.5-27.6-.4-2.2-2.5-5.6-5.3-8.7-4.2-4.8-4.5-5.4-3.8-9.2.3-2.3.9-7.6 1.1-11.9.4-6.7.1-8.4-1.6-11.2-2.6-4.2-2.8-9-.2-8 4.5 1.7 6.8 1.6 9.5-.5 2.1-1.7 2.7-3 2.7-6 0-5-2.6-8.1-7.5-8.9-3.8-.6-3.8-.7-5.1-6.8-.7-3.4-2.9-9.2-5-12.9-3.5-6.3-3.8-7.4-4.4-18.3-.6-8.7-1.3-12.9-3-16.6-3.4-7.7-4.9-13.3-6-22.5-.6-4.8-2-10.9-3.4-14-1.4-3-4.8-13-7.6-22.2s-6.2-19.3-7.7-22.5c-1.4-3.2-3.8-9.2-5.3-13.3l-4-11c-.7-1.9-3.9-9.5-7.2-16.7-3.2-7.3-5.8-13.6-5.8-14 0-.5-1.1-2.5-2.5-4.3-3.1-4.1-11.5-21.2-11.5-23.1 0-.8-1.5-4.5-3.4-8.4L1143 990c-1.7-4.1-4.5-10.4-6.2-14s-3.7-8.7-4.4-11.3-2.6-6.3-4.3-8.2c-1.6-1.9-3.5-5.3-4.1-7.5-.6-2.3-2.4-6.2-4.1-8.7-1.6-2.6-2.9-5.2-2.9-5.8 0-.7-2.1-5.4-4.6-10.6-2.5-5.1-5.4-12.1-6.5-15.4-1-3.3-3.6-8.4-5.8-11.3-3.4-4.5-16.1-28.8-16.1-30.7 0-.4-3.1-6.4-6.8-13.4-3.8-7-7.9-15.3-9.1-18.5a129.95 129.95 0 0 0-5.1-11.5c-1.7-3.1-3-6-3-6.5s-3.5-8.1-7.9-17l-11.6-24.6c-2-4.7-6.1-13.7-9-20-7-15.2-11-24.6-12.5-29.5-.7-2.2-2.3-5.8-3.5-8-1.3-2.2-3.1-6.5-4-9.5-2.3-7-7.7-17.9-10.8-21.6-1.4-1.6-4-6-5.9-9.9-2-3.8-7-12.1-11.2-18.3-7.5-11.1-10.4-15.1-20.7-28.2-2.8-3.6-5.6-7.8-6.4-9.5-.7-1.6-6.4-8.4-12.7-15.1-13.7-14.7-19.4-21.8-23.3-29.4-1.6-3.2-4.9-7.8-7.2-10.3s-5.1-6.3-6.2-8.5c-2.4-4.7-6.7-8.2-13.1-10.5-7.8-3-13.8-7.5-18.6-13.9-2.5-3.5-7.5-9.6-11.2-13.7-9.4-10.6-11.6-11.4-38.7-15.2-17.7-2.4-20.2-3.4-37.8-14.2-6.9-4.3-12.5-4.6-22.6-1.2-5.2 1.7-10 4.1-13.4 6.8-2.9 2.3-8.5 6.3-12.5 8.9-6.1 4.1-19.6 14.6-21.2 16.8-1.8 2.2-20.4 15.7-25.2 18.1-3.1 1.6-6 3.3-6.3 3.9s-4.3 3.5-8.9 6.4c-7.6 5-32.6 26.5-38.7 33.2-2.6 2.9-8.9 19.3-8.9 23.2 0 1.1 1.8 9.1 4.1 17.8l4.2 17.3c.1.8-1.6 2.6-3.7 4.1s-4.3 3.4-4.8 4.3c-1.7 3-7.8 28.9-7.8 32.9 0 5.9 2.4 10.3 9.5 17.7 7.8 8.1 15.5 13.5 21.3 15.1 2.4.6 6 2.6 8 4.3 14.7 12.9 24.1 17.4 45.7 21.7 5.9 1.2 15.4 5.4 20.7 9.2 4.4 3.1 28 13.6 32.3 14.3 2.2.4 6.5 1.7 9.5 3 7.6 3.1 27.4 5.5 52.7 6.3l21.2.7 3.6 3.5c2 1.9 5.5 6.9 7.7 11 5.7 10.6 15.8 31 15.8 32 0 .9 6.9 18.7 10.1 26 2 4.6 6.8 20.5 7.6 25 .2 1.4 1.5 6.1 2.8 10.5s2.8 9.8 3.3 12c.6 2.2 3.8 12.1 7.2 22s7.2 23 8.6 29c1.3 6.1 3.5 14.8 4.9 19.5 2 6.4 2.6 10.6 2.6 17.4 0 6.5.5 9.8 1.8 12.5 2.4 4.7 4.8 19 5.6 32.1.7 11.9 2 21.2 4.1 28.4 1.9 6.9 3.3 76.9 1.5 78-1.5.9-10.7-8.2-12.1-12-.6-1.4-1-4.6-1-7.1 0-4.7-2.6-10.2-5.9-12.5-2.4-1.7-9.6-13.7-11.2-18.5-.6-2.1-4-6.9-7.4-10.8-3.5-3.8-7.5-9.6-9-12.8s-3.5-6.3-4.4-7c-1-.6-3.6-3.7-5.8-6.7s-5.5-6.8-7.3-8.3c-1.7-1.6-4.2-5.2-5.5-8-1.2-2.9-3.3-6.1-4.5-7.2-1.3-1.1-3.8-5.1-5.6-9-5.2-11.2-14.2-22.1-23.2-27.9-8.4-5.4-19.8-10.6-27.8-12.6-7.1-1.8-26.5-.1-32.6 2.8-2.4 1.2-5.7 2.6-7.3 3.3-4.1 1.5-18.2 1.2-26.1-.6-7.5-1.7-16.9-1.9-23.3-.4-2.5.5-8.3 2.9-12.8 5.2l-8.4 4.1-11-3.8c-10-3.5-11.6-3.8-19.1-3.4-7.1.4-9.5 1-17.3 4.7-10.4 4.9-12.8 6.9-16.1 13.3-4.8 9.4-8 8-28.3-12.4-3-3.1-6.5-5.4-9.7-6.5-5.1-1.7-9.8-4.6-22.4-13.6-4.1-3-9.1-6.2-11-7.2s-5.3-3-7.5-4.5c-2.2-1.4-5.6-3.2-7.5-4-1.9-.7-4.1-2-4.7-2.8-1.6-1.9-1.6-9.2-.1-15.2.6-2.5 1.2-11.7 1.2-20.5l.1-16 4.2-7c7.6-12.6 15.3-29.4 16.8-36.6.8-3.8 2.3-8.6 3.3-10.7 1-2 2.7-7.5 3.6-12.2 1-4.7 2.5-11.2 3.4-14.5 2.9-11.7 6.2-38.1 6.2-50.3 0-6.1.8-8 6.3-14.2 5-5.8 6.2-8.1 8.8-17.7 1.2-4.3 3.1-9.8 4.4-12.3 1.2-2.5 3-9 4-14.5.9-5.5 3-12.9 4.5-16.5s3.1-8.1 3.5-10c1-4.4 8.8-24.1 12-30.2 2.5-4.5 2.6-5.1 2.8-29l.2-24.3-4.1-12.1c-3.2-9.3-5.1-13.4-8.7-18-7.1-9-5.9-7.3-25.7-36.4-1-1.4-5.2-7.9-9.4-14.5l-14.1-22c-3.6-5.5-7.6-12.2-9.1-15-6.4-12.2-12.2-17.5-18.8-17.5-3.2 0-5.2-2.9-6.8-9.7-.9-4.4-.9-6.2.1-9 2.5-6.8 1.5-11.8-4.3-22.3-.8-1.4-4.4-8.7-8-16.3-7.4-15.3-9.8-17.7-17.3-17.7-5.1 0-6-1.8-3.3-7 3.7-7.2 2.3-13.4-4.3-19.2-4-3.6-4.1-3.9-2.4-5.2 2.4-1.9 7.6-2.3 46.7-3.6 38.7-1.3 89.5-.5 98.8 1.6 21.7 4.8 28.3 20.4 18.3 42.7-2.9 6.3-14.2 25.2-30.9 51.5-5 7.9-9.4 15.7-9.7 17.3-1.3 5.8 2.8 10.9 8.6 10.9 3 0 4.8-1.2 16.2-10.3 5.6-4.6 13.5-10.4 17.5-13 9.2-5.9 34.8-19.3 41.5-21.7 2.9-1 7.8-3 11-4.4 7.8-3.5 28-10.2 39.7-13.1l17-4.3c4.1-1.1 11.5-2.5 16.5-3.2 5-.6 11.9-1.8 15.5-2.5 5.9-1.3 14.7-2.6 35.5-5.4 3.9-.6 13.1-1.5 20.5-2.1s16.2-1.6 19.5-2.1c14.9-2.4 138.4-4.8 251-4.8 62.5-.1 101.8-1.1 115.5-3.1 3.6-.5 9.9-1.2 14-1.5 7.4-.6 16.9-1.6 32.5-3.6 9.7-1.2 44.9-8.4 50.2-10.3 2.1-.7 7.9-2.3 13-3.5s12.7-3.5 17-5c4.3-1.6 11.4-4.1 15.8-5.4 8.1-2.6 23.5-10.4 40.3-20.4l9.2-5.6V0H0zm41.9 13.8c10.5.1 20.8.6 21.3 1.5.5.7.7 2.8.4 4.7-.2 1.9 1.8 15.2 4.5 29.5L76.5 94c7.9 41.5 7.8 41.2 10.4 27.5l12.6-60 5.4-26.5c3.1-15.7 3.9-18 6.7-19 1.4-.6 9.2-1 17.4-1 19.4 0 19.1-.2 21.9 16.5l4.6 26 5.1 28c8.7 47.8 9.3 50.4 10.7 48 .5-1 2.7-9.3 4.7-18.4 12-53.2 21.9-92.4 23.9-95.1l1.8-2.5h19.1c14 0 19.4.3 20.4 1.3 1.4 1.4.8 4.9-4.2 25.7l-19.5 82-18.7 78c-3 13.3-9.6 38.7-10.3 39.3-.9.9-20.5 1.1-31.7.3-6-.4-9.2-1.1-10.3-2.2-.9-.9-2.3-5.4-3.1-10l-13.5-78.4c-2.4-14.5-2.7-15.6-3.8-13.5-.5.8-1.4 4-2 7l-2.1 9.5-14 63c-4.9 22.5-4.9 22.5-7.3 23.4-3.1 1.1-38.4-.2-39.6-1.4-1-1-8.5-37.9-28.6-140L19.9 38c-3.6-17.7-3.7-21.5-.8-23.1 1.6-.8 12.3-1.1 22.8-1.1zm433.6 2.4c16.2 0 29.4 4.3 42.6 13.5C526.2 35.3 534 43 534 45.4c0 1.4-1.6 3.4-15.8 19.9-9.4 10.9-11.8 11.9-16.3 7.1-1.3-1.5-6-4.4-10.3-6.5-7.3-3.5-8.7-3.9-16-3.9-6.9 0-9 .5-14.3 3-12.4 5.8-19.8 15.3-25.3 32.3-5.2 15.8-6.3 24.2-5.7 42.7.6 20 2.3 28.4 8.2 40.8 7.5 15.6 16.4 22.2 31.7 23.6 8 .7 13.9-.9 22.2-5.9 9-5.4 9.5-5.2 17 8 9.6 16.8 11.1 20.2 9.9 22.8-1.9 4.1-17.7 13.8-29.2 17.9-8.2 2.9-26.9 3.4-37.6 1-25-5.7-42.9-19.8-54.2-42.4-4.2-8.6-9.4-24.2-11.2-33.8-6.1-32.4-2.8-73.7 7.9-99.4 8.3-20 23.6-37.7 39.5-45.8 14.2-7.3 22-9.6 33.8-10.4 2.5-.2 4.8-.3 7.2-.2zm371.3 6.3c33.2-.1 59.2 1.1 65.2 3 25.3 7.8 46 32.5 54.3 64.6 5 19.2 7.1 49.4 4.6 68.9-4.8 39-24.7 72.2-51.6 86.2-7.7 4-10.3 4.8-18.4 5.7-18.4 2.2-76.7 1.7-79-.6-1.3-1.3-.4-73.4 2.2-180.3 1-41 1.2-43.6 3-45.5 1.8-1.8 3.3-2 19.7-2zm333 3.4l7.2.1c16.3 0 20.3.7 21.3 3.5.6 1.4-.2 57.1-1.8 124.5l-1.1 58.5c-.4 19.8-1.1 37-1.5 38.3-.9 2.2-1.1 2.2-19.7 2.2-15.1 0-19.2-.3-20.1-1.4-1.9-2.3-1-103.5 1.8-196.5.8-27.8-.6-29.2 13.9-29.2zm168.4 1.1c12.8-.1 28.5.3 30.2 1 1.4.5 2.8 2 3.1 3.3.3 1.2-.8 13.3-2.5 26.7l-4 32-3 22.5-5.6 43.5c-1.9 15.7-4 29.7-4.6 31.2-.5 1.4-2 2.9-3.1 3.2-1.2.3-5.4.6-9.3.6-11.6 0-11.4.5-13-24.6L1333 118c-3.3-44.3-5.4-84.3-4.7-87.1.5-1.9 1.5-2.8 3.8-3.3 1.9-.4 8.5-.6 16.1-.6zM881.5 66.5c-1.3 0-2.6 0-4 .2-6.6.5-7.6.9-8 2.7-.5 2.4-1.2 35.8-2.2 95.9-.5 35.2-.4 42 .8 42.7 1.9 1.2 16.5.1 22.2-1.7 3.5-1.1 6.9-3.4 11.7-8 10.7-10.1 16.4-22.5 20.6-45.6 2.5-13.7 1.5-39.1-2-51-7.3-24.5-19.4-35.5-39.1-35.2zm372.9 18.3c8.5 0 17.2.4 18.5 1.2 2 1 2.1 2 2.1 17.9 0 19.2-.5 18.1 8.8 18.1 9.9 0 10.2.5 10.2 18.3 0 19.7 0 19.7-11.4 19.7-6.1 0-8.5.4-8.9 1.3-.3.8-.8 21.1-1.2 45.3-.4 24.1-1.2 44.7-1.7 45.7-.8 1.5-2.6 1.7-17.1 1.6-8.9 0-17.3-.5-18.6-1l-2.4-1 .7-45c.5-33.9.4-45.4-.5-46.5-.8-1-3.3-1.4-7.8-1.4-3.9 0-7.2-.5-7.9-1.2-.8-.8-1.2-6.1-1.2-17.4 0-19-.2-18.7 9.9-18.9 3.8-.1 7.2-.5 7.8-.8.6-.4 1.2-7.8 1.6-17.3.3-9.7.9-17.1 1.6-17.7.7-.7 9-1 17.5-.9zM278 112.6c12.3-.1 20.2 1.5 29.1 6 10.8 5.3 23.5 20.5 28.8 34.3 4.8 12.7 6.7 35.9 3 38.2-.8.5-19.7.9-42.1.9s-40.9.4-41.2.9c-1.4 2.1 5.5 9 12.1 12.2 12 5.7 25.5 5.1 36.6-1.7 5.2-3.2 6.1-3.5 8.6-2.5 3.6 1.5 19.1 18.4 19.1 20.9 0 1-1 2.8-2.2 4-4.1 3.8-9.3 5.1-31.7 8.2-8 1.1-15.9 2.4-17.5 2.9-1.7.5-5.6 1.3-8.6 1.7-3 .3-7.2 1.3-9.3 2-5.8 2.1-7.8 1.8-15.6-2.3-14.5-7.4-28.2-25.2-32.7-42.3-2.3-8.8-2.4-24.5-.1-33 4.4-16.6 14.6-30.8 28.5-40 11.5-7.5 20.9-10.3 35.2-10.4zm293.2.5c6.8-.1 13.3 1.5 20.5 4.9l8.6 4 2.7-2.5c2.5-2.4 3.1-2.5 15.6-2.5 7.1 0 13.6.4 14.4 1 1.3.8 1.5 5.9 1.1 38.7l-.6 41.8-.3 25.3c-.3 27 .7 25.5-16.7 25-12-.3-12.5-.4-15.3-3.1l-2.9-2.8-5.5 2.4c-3.1 1.4-8 3.2-11 4-20.2 5.7-39.9-1.3-52.7-18.7-10.9-14.9-15.1-28.4-15.1-48.5.1-24.1 6-39.9 20.6-54.3 6.9-6.9 12.6-10.1 23.4-12.8 4.7-1.3 9-1.9 13.2-1.9zm151.8 1.5c4.3 0 8.9.8 13.8 2.3 13.2 4 24.7 18.3 27.3 34.1 1.7 10.2.2 93.8-1.7 96.8-1.3 2-2.2 2.2-9.8 2.2-4.7 0-9 .1-9.8.3-.7.2-5.1.1-9.8-.2l-8.5-.6v-84l-2.3-3.8c-4-6.4-10.9-8.4-18.4-5.3-9.1 3.8-9.7 6.8-10.5 52.4-.6 35.3-.8 37.7-2.6 39.5s-2.9 1.9-18 1.2c-11.7-.5-16.6-1-17.6-2-1.6-1.5-1.6-20.5-.3-93.3.7-32.5.8-34.5 2.6-35.8 2.4-1.7 25.9-2 30.1-.4 1.5.6 3.2 2.4 4.1 4.5.8 1.9 1.6 3.5 1.8 3.5s3.7-2 7.8-4.5c7.6-4.6 14.5-6.8 21.8-6.9zm316.6 3.6c4.1 0 8 .5 11.6 1.4 13.9 3.5 21 7 30.6 15.1 10.6 9.1 19.6 24.4 22.3 38.1 1.6 8.5.6 24.9-2 33.3-2.3 7.4-10.6 21.7-15.4 26.7-5.3 5.6-17.4 13.2-26.1 16.5-7.3 2.7-9.4 3.1-21.6 3.4-15.1.3-19.5-.5-31.3-6.1-17.4-8.1-31.3-25.2-36.2-44.1-1.8-7-2-24-.4-31.7 3.5-16.2 16.7-34.4 30.9-42.5 11.8-6.7 25.5-10.3 37.6-10.1zm-765.3 29a8.33 8.33 0 0 0-2.2.3c-5.9 1.3-14.1 9.1-14.1 13.4 0 .7 6.2 1.1 18.5 1.1 21.4 0 21.5-.1 13.7-7.9-4.6-4.6-10.6-7.2-15.9-6.9zm303.5 3.8c-3.6-.1-7.3.6-10.3 2.3-5.1 2.9-10 9.4-12 16-2.5 8.2-3 19.3-1.2 25.8 2 6.7 8.4 14.5 13 15.8 7.8 2.3 17.7.2 21.9-4.6 4-4.4 4.7-8.5 5-27.5.3-16.2.1-18.7-1.5-21.1-2.7-4.1-8.8-6.6-14.9-6.7zm459.7 7.5c-6.7 0-8.8.5-13 2.7-6 3.1-8.5 5.7-11.8 12.1-3.7 6.9-4.3 12.6-2.2 20.3 2.1 7.9 7.8 14.7 15 18 6 2.8 13.7 3.1 21.4.8 10.8-3.1 20-16.8 18.7-27.4-1.4-11.5-5.9-18.7-14.6-23.5-4.8-2.6-6.5-3-13.5-3zm312.4 43.4c7.2.1 14.3 3.3 19.8 9.4 6.9 7.9 8.7 20.1 4.4 29.1-2.7 5.4-10.2 12.2-15.1 13.6-6.3 1.9-11.4 2-16.9.5-10.8-3-18.2-12.1-18.9-23.2-.6-9 1.2-14.5 6.8-20.6 5.5-6 12.7-8.9 19.9-8.8zm-962.5 13.7s.1 0 .1.1c3 1.1 1.2 3.5-6.5 8.6l-10 7.2c-5.7 4.3-7.4 4.5-3.2.4 1.8-1.7 3.2-3.4 3.2-3.8 0-1.6 14.2-12.3 16.4-12.5zm-50.5 21.6c.9-.1 1.9 0 3.1 0 5.4.3 5.5.4 5.8 3.4.3 2.7-.6 4.1-6 9.8-5.6 5.8-6.8 6.6-10.1 6.6-4 0-7.7-2.7-7.7-5.7s3.7-8.1 8.2-11.3c2.8-2 4.1-2.7 6.7-2.8zm23.3 1c.2 0 .3 0 .4.1.4.3-2 3.3-5.2 6.5-6.9 6.9-10.4 9.2-10.4 6.6 0-2.5 12.5-13.1 15.2-13.2zm-115.6 5.9c1.1 0 1.7.5 2 1.4.8 2-4.1 12-6.8 13.9-3.5 2.4-7.5 2-9.4-1-2.7-4-.1-8.5 7-11.8 3.5-1.7 5.7-2.5 7.2-2.5zm38 8.1c1.8 0 3.1.3 4.2.9 7.5 4.2 8.7 13.4 3.4 23.9-3.8 7.3-6.4 10.5-10.4 12.6-3.3 1.7-7.9 1.8-10.1.2-1.8-1.4-7.7-14.7-7.7-17.3 0-3.9 3.6-12.1 6.9-15.5 3.1-3.3 4.4-3.9 9.6-4.5 1.6-.2 2.9-.3 4.1-.3zm-92.8 18.9c1.3.1 2.8.6 4.7 1.3 6.9 2.9 9 11.8 6 25.3-2.2 9.6-3 11.2-7 12.9-4.5 1.9-5.3 1.8-10.5-.8-5.3-2.7-8.9-8.5-9-14 0-2.4 1.5-6.5 4.2-11.7 4.9-9.8 7.5-13.2 11.6-13zm44.1 11.7l5.8 3.4c5.6 3.3 5.8 3.5 6.1 8.1.2 3-.6 7.8-2.2 13-2.1 6.7-3.1 8.6-5.1 9.5-4.3 2-10.8 1.5-14.6-1.1-3.4-2.3-7.9-8-7.9-10.1 0-.6 1.9-5 4.3-9.6 3.7-7.6 4.7-8.8 8.9-10.8l4.7-2.4zm19.4 20.8c1.3 0 2.6.9 3.5 2.7 1.2 2.4 1.9 2.7 6.5 2.8 7 0 11.8 1.8 13.6 5 1.3 2.4 1.3 3.1-.2 7.1-2.1 5.5-8.7 12.4-14.1 14.9-5.2 2.4-7.3 2.4-11.2 0-7.8-4.8-8.4-10.2-1.9-18.6l4.6-5.8-2.3-2.4c-1.7-1.9-2-2.7-1.1-4.1.7-1.1 1.6-1.7 2.6-1.6zm141.1 5.7c.4 0 .8 0 1.4.1 2 .3 6.8.8 10.7 1.1 4.6.5 7.7 1.3 9 2.5 1.1 1 4 2 6.5 2.3 3 .3 7.1 2 12.3 5.3 8.6 5.2 9.5 6.7 12.4 18.4 2.1 8.5 3.7 10.2 3.1 3.2-.6-6.2.7-7.4 4.7-4.8 1.8 1.2 2.5 2.5 2.5 4.9 0 1.8.9 4.6 2 6.2 3 4.6 2.6 8.1-1.2 10.5-5 3-5.1 3-6.3-4.3-.8-5-3.2-4.6-5.3.8-1.7 4.5-6.3 10.9-10.1 14.2-2.5 2.2-6.1 3-7.4 1.6-1.1-1-.8-5.1.3-5.8.5-.3.6-1.9.3-3.6-.7-3.6.9-5.2 4.7-4.4 2.2.5 2.8 0 4.8-4 2.8-5.8 2.8-6.3-.5-9.7-2.6-2.7-2.6-2.8-.8-4.8 1.7-1.9 1.8-2.1 0-6-2.3-5.2-9.3-11.6-13.6-12.5-1.9-.4-4.3-1.2-5.4-1.8s-5.5-1.1-9.8-1.2c-7.2 0-8.1-.2-10.1-2.6-1.3-1.5-3.3-3-4.4-3.4-3.2-1-2.7-2.3.2-2.2zm-383.9 5.4c.5-.1 1.5.1 2.5.5 1.6.5 3 1.2 3 1.4s-.3.3-.7.3c-4.3-.8-5.3-1.2-5.3-1.9 0-.2.2-.3.5-.3zM353 321c3.9 0 3.8 1.3-.5 4.7-1.9 1.6-3.5 3.1-3.5 3.4 0 .4 1.3 1.2 2.9 1.9 2.4 1 3.8.9 7.8-.6 4.8-1.7 5.2-1.7 11.1.2l6.1 1.9-.6 6c-.6 6-2.4 9.5-5 9.5-.9 0-1.3-1.4-1.3-4.2-.1-6-2-8.2-6.3-7.4-4.2.8-12.3 4.9-15.5 7.9-1.3 1.2-3 3.6-3.8 5.2-.8 1.7-2.3 4.4-3.3 6-1.1 1.7-2 4.2-2 5.8-.1 2.6-3.1 4.1-3.1 1.5 0-.6-1.1-2.4-2.5-3.8-2.3-2.4-2.6-3.6-3.1-13.6-.5-9.3-.3-11.4 1.3-14.4 1.7-3.3 2.1-3.5 6.1-3.2 3.8.3 4.8-.1 8.3-3.2 2.6-2.5 4.9-3.6 6.9-3.6zm46.9 10.3c1.5-.3 3.9 1.3 7.2 4.5 4.1 4.1 4.9 5.5 4.9 8.5 0 3.4-.2 3.7-2.9 3.7-2.4 0-3.3.7-4.8 3.8s-2.3 3.7-5.3 3.9c-3.6.2-7.4-.9-8.3-2.4-.9-1.4 4.4-8.3 6.3-8.3 1.8 0 5-3 5-4.7 0-.5-.9-1.8-2-2.8-1.2-1-1.9-2.8-1.8-3.9.2-1.4.8-2.2 1.7-2.3zm-308.3 1.9c.2-.1.7.1 1.6.3 3.1.9 6.8 3.3 6.8 4.4 0 .5-1.7 2.7-3.7 5.1l-3.8 4.2.3-5c.2-2.8-.2-6-.8-7.2-.7-1.3-.9-1.8-.4-1.8zm7.9 14.8c3.5 0 8.7 3.3 10.3 6.6 1.7 3.6 1.3 6.8-2.3 20.9l-2.7 10.8c-.5 2.1-1.8 4.7-2.9 5.8-1 1-3.1 1.9-4.6 1.9-6.3 0-17.3-8.3-17.3-13.1 0-1.1.9-3.6 1.9-5.7 1.7-3.5 2.7-6.3 6.5-19.3 1.5-5.1 1.9-5.7 5.5-6.7 2.1-.7 4.6-1.2 5.6-1.2zm57.3 6.1c1.7.1 3.3 1 5.2 2.6 2.6 2.2 3.1 3.1 2.7 5.7-2.4 13.8-2.8 15.2-5.3 17.4-3.1 2.7-5.9 2.8-10 .3-6.8-4.1-9.7-10.8-6.9-16 .8-1.7 2-3.1 2.5-3.1.6 0 2.7-1.6 4.9-3.5 2.6-2.4 4.8-3.5 6.9-3.4zm226.8 2.8c2 .1 1.7 2.4-2 6-1.9 1.9-3.7 4.5-4.1 5.8-.3 1.4-1.3 3.6-2.2 4.9-1.6 2.6-4.1 3.2-4.8 1.2-.2-.7-.5-4.1-.7-7.5-.4-6.2-.4-6.2 2.1-5.7 1.8.4 3.7-.3 6-2 2.6-1.9 4.6-2.7 5.7-2.7zM247 360.2c.8 0 .1 1.1-1.9 3.3-4 4.6-4.2 6.8-.4 5.4 1.5-.6 3.3-1.5 4-2.1.7-.5 4.1-1.4 7.5-1.8 3.5-.4 7.1-1.1 8-1.5 1.1-.4 2.3.1 3.5 1.4 1.6 2 2.5 2.1 8.6 1.5s7-.5 8.2 1.4c.8 1.1 2.6 2.3 4 2.6 1.4.4 2.5 1.3 2.5 2.1 0 1.1 1.2 1.5 4.3 1.5 3 0 4.9.6 6.1 1.9 1.3 1.4 3.6 2 9.4 2.4 10.5.7 17.2 2.1 18.3 3.8 2.8 4.4-1 6.3-12.5 6.1-4.9-.1-10.7.3-12.9.9-6.4 1.7-14.8 1.5-18.4-.4-3-1.6-3.4-1.6-7.8.3-5.6 2.4-8.4 2.5-9.2.5-.4-1.2-1.5-1.4-4.8-.9-3.7.5-4.5.3-5.5-1.5-.6-1.2-1.6-1.8-2.2-1.4-2.7 1.6-21.6 1.9-23.2.3-1.7-1.7-4.8-1.1-8.8 1.7-3 2-4.2 2.4-5.1 1.4-1.5-1.5-.4-3.3 8.5-13.8 4.4-5.3 8.7-9.1 12.9-11.6 3.9-2.3 6.1-3.5 6.9-3.5zm203 8c.4 0 .8.2 1.2.6 1.2 1.2-.9 10.1-3 12.5-.8.9-2.9 1.7-4.7 1.7-3.6 0-6 2.2-7 6.3-.6 2.3-.3 2.9 2.4 4.5 4.5 2.5 4.2 6.3-.8 11.3-4.2 4.3-6.5 4.7-9.7 2.1-2.9-2.3-4-10.8-1.9-14.8.8-1.6 1.5-3.9 1.5-5.1 0-3.4 1.7-3.6 2.8-.3 1.1 3.2 3.2 4.1 3.2 1.4 0-3.3 3-7.3 6.4-8.4 2.9-.9 3.6-1.7 4.5-5.5.9-3.7 3.3-6.4 5.1-6.3zm-37.7 15.3c1.1 0 2.1.4 3.1 1 4 2.6 3.3 7.7-1.7 13.3-2 2.2-3.2 2.3-9.2 1.5-6.8-1-7.3-4.9-1.3-10.4 4.1-3.7 6.8-5.4 9.1-5.4zm-273.2 13c2.4 0 4.7 1.5 7.2 4.5 2.2 2.6 2.7 4.2 2.7 8.5 0 4.5-.6 6.2-4 11.3-5.7 8.5-9 10.4-15.2 8.8-2.1-.6-2.7-.4-3.2 1.2-.7 2.2-2.4 3.2-4.3 2.5-1.8-.6-1.6-3.3.4-5.5 1.3-1.5 1.4-2.3.5-4.4-2.4-5.1-1.5-8.8 4-16.8 4.6-6.8 8.3-10 11.9-10.1zm-69.3 12.7c3.5-.3 7.1 1.7 10.7 6 2.6 3 2.7 3.7 2.2 9.8-.6 5.9-1.1 8-4 16.3-.5 1.5-2.3 4.6-3.9 6.7-2.1 3-3.5 4-5.5 4-4.4 0-11.2-4-13.8-7.9-2.1-3.3-2.3-4.2-1.6-11.1 1-8.9 4.3-16.2 9.6-20.8 2-1.9 4.1-2.8 6.3-3zm385 13.4c-1.9-.2-8.8 6.9-8.8 9.2 0 1-.5 2.3-1.1 2.9s-.8 1.6-.5 2.2c1.6 2.6 7.6.2 7.6-3 0-1.2.8-2.3 2-2.6 1.7-.4 1.8-.8.8-2-.9-1.2-.9-1.9.1-3.5.9-1.3.9-2.4.3-3-.1-.1-.2-.2-.4-.2zm24.3 9.4c-.2-.1-.5.1-.7.3-.3.3-.2 1.1.2 1.8.6 1 .8 1 1.2 0 .3-1.1-.1-2.1-.7-2.1zm-463.2 2.2c.1 0 .1 0 .1.1 0 .2-.7 1-1.5 1.7s-1.5 1-1.5.8c0-.3.7-1.1 1.5-1.8.6-.5 1.1-.8 1.4-.8zm419 .2c-2.2 0-2.4.7-.7 2.4 1.4 1.4 2.8 1.5 4.8.2 1.9-1.2.5-2.4-3.1-2.6h-1zM164.2 437c1.8 0 3.6.8 5.4 2.3 2.2 1.9 2.8 3.4 3.2 8 .2 3.2 0 7.7-.6 10s-1.4 5.9-1.7 7.9c-.3 2.1-1.7 5.1-3.1 6.8-6.7 7.9-18.4.2-18.4-12.1 0-5.4 3.8-14.3 8.1-19 2.4-2.6 4.7-3.9 7.1-3.9zm-64.3 3.5c2.8 0 5.4 1 6.7 3.1 3.2 4.9 2.3 28-1.3 31.6-2.5 2.5-7.3 3.1-10.5 1.3-1.5-.8-4.1-3.6-5.9-6.1-3-4.4-3.1-5-2.6-11.9.5-7.5 2.1-11.8 5.4-14.7 2.3-2.1 5.4-3.2 8.2-3.3zm-44.2 27.6c1.7.1 3.4.9 5.4 2.6 4.9 4.1 6.2 8.3 4.9 15-2.3 10.7-6.2 16.9-12.3 19.2-4 1.5-5.1 1.4-8.1-1-3.8-3-5.6-7.1-5.6-12.6 0-9.2 3.5-16.7 9.9-21 2.2-1.5 4-2.2 5.8-2.2zm453.8 5.1c1.8-.1 3.5 2 3.5 4.9 0 2.5-.4 2.9-2.9 2.9-1.6 0-3.6.3-4.4.6-4.1 1.5-2-5.1 2.5-8 .4-.2.9-.4 1.3-.4zm6.4 19.7c.6-.2 2.1 2.5 2.1 3.9 0 .6-1.1 1.2-2.5 1.2-2.5 0-2.5-.6.3-5 0 0 .1 0 .1-.1zm17.9 1.4c1.4.1 3.3 4.4 2.6 6.2-.8 1.9-1.8 1.9-3.4.1-1.4-1.7-1-5.8.6-6.3h.2zM129.2 497c1.3 0 2.6.4 3.9 1 6.9 3.7 8.8 27.1 2.6 32.7-3.5 3.2-11.2 3.6-16 .7-4-2.4-5.6-12-3.6-21.6 1.7-7.7 7.5-13 13.1-12.8zm-47.1 27c3.3 0 4.7.7 7.5 3.4l3.4 3.4v13.5c0 7.5-.5 14.7-1 16.2-.6 1.6-2.6 3.3-5.2 4.5-5.7 2.6-8.6 2.5-12.9-.4-5.1-3.5-7.3-9.8-6.6-19 1-13.3 6.7-21.6 14.8-21.6zm354.2 7c1.5 0 1.2.6-1.6 3.5-3.1 3.2-5.7 4.5-5.7 2.8 0-1.5 5.5-6.3 7.3-6.3zm987.3 2.3c-.2 0-.4.1-.7.4-.6.6-.8 1.6-.5 2.2 1.1 1.7 1.6 1.3 1.6-1.1 0-1-.1-1.5-.4-1.5zM451 543c-1.8 0-4 2.7-4 4.9 0 1.6 2.1 1.3 4.2-.6 2.4-2.1 2.3-4.3-.2-4.3zm-302 4c1.7 0 11.3 11.8 14.3 17.4 1 1.9 1.8 5 1.8 6.8 0 7.5-.9 19.6-1.5 20.7-.4.6-1.8 1.1-3.1 1.1-2.5 0-4.5-2.5-4.5-5.5 0-.8-1.2-2.1-2.7-2.7-2.3-1.1-2.8-1-4.1 1-2 3-5.9 2.9-7.3-.1-1.8-3.9.5-26.9 3.3-33.4 1.3-3 3-5.3 3.8-5.3zm157.9 6.6c-5.5 0-10.8.2-13.9.6l-16.5 1.8c-17.3 1.8-32.5 7.6-32.5 12.3 0 .5 1.4.6 3.3.2 4-.9 13.7-1.8 19.7-1.7 2.5 0 15.3.2 28.5.5 21.9.3 24.2.2 26.3-1.4 1.8-1.3 3.5-1.7 7-1.3 5.8.6 10.6-.7 11-3 .5-2.6-2.7-5.6-5.9-5.6-1.5 0-4-.5-5.5-1-2.2-.9-12.2-1.4-21.5-1.4zm239.3.4c-.5 0-1.2 1.1-1.6 2.4-.3 1.3-1.5 2.6-2.7 2.9-1.5.4-2 1.1-1.6 2.4 1.5 4.9 3.6 9.4 8 16.8 2.6 4.4 5.4 9.5 6.3 11.3.8 1.9 1.7 3.2 2 2.9s.1-1.4-.5-2.5c-2.6-4.9-.2-10.6 5.2-12 2.8-.8 3.2-1.2 2.9-3.8-.2-1.6-1-4.2-1.9-5.9-1.5-3-14.2-14.5-16.1-14.5zm-51.6 1c2.3 0 3.7.6 4.4 2 .6 1.1 3.1 2.5 5.8 3.3l4.7 1.4.2 5.2c.2 6.5-1.9 11.9-4.9 12.5-1.3.3-3.7.7-5.3 1s-4 .8-5.2 1.2c-3.1.9-5.6-3.3-4.8-7.9.4-2 .2-5.2-.5-7.2-1-3.1-1-4.3.5-7.6 1.6-3.4 2.2-3.9 5.1-3.9zm378.8 8c-.8 0-1.2.5-.9 1 .3.6 1 1 1.6 1 .5 0 .9-.4.9-1 0-.5-.7-1-1.6-1zm3.6 4.1c-1-.1-2 .2-3 .9-1.3.8-1.3 1.2-.1 3.2 3.3 5.3 4.1 7.4 3.6 9.9-.4 1.8-.1 2.8.9 3.2.9.4 1.2 1.4.9 2.9l-.6 2.3 2.2-2.2c1.2-1.3 2.8-2.3 3.6-2.3 2.2 0 4.7 3.1 3.9 4.9-3 7.1-3.2 8.6-1.6 10.4s1.7 1.8 2.5-.2c1.4-3.1 3.9-3.5 6-1 .9 1.2 1.7 2.7 1.7 3.4s.6 1.5 1.3 1.8 1.9 2.3 2.7 4.6c.8 2.6 1.9 4.1 3 4.1 1.9 0 6.9 5.1 9.6 9.8 1 1.7 2.4 3.2 3.2 3.2.7 0 1.6.8 1.9 1.8 1 2.5 2.3 3.2 6.8 3.2 3.1 0 4.6.6 6.8 3 1.6 1.7 3.7 3 4.8 3 2.3 0 2.5-1.6.3-2.8-1.2-.7-1.3-1.1-.5-1.6 1.7-1.1 4.2 1.4 3.9 3.9-.1 1.1.7 3.3 1.9 4.8s1.9 3.6 1.6 4.6c-.3 1.3.2 2.3 1.6 3 1.4.8 2.1 2.1 2.1 4.1 0 2.8.2 3 3.9 3 3 0 4.6.7 7.1 3.3 1.7 1.7 3.8 4.7 4.5 6.5.8 1.7 2.1 3.2 3 3.2.8 0 1.8.7 2.1 1.5s1.5 1.5 2.6 1.5 2.6.7 3.5 1.5c.8.8 2 1.2 2.6.8s.3-1.2-.9-2.2c-1.1-.9-3-3.2-4.2-5.2s-3.1-3.9-4.1-4.2c-1.3-.3-2.4-1.9-3-4.5-.6-2.2-1.8-4.3-2.6-4.6s-1.5-1.8-1.5-3.4c0-2-1.4-4.2-4.7-7.8-2.7-2.7-5.9-7.1-7.2-9.7-1.4-2.9-3.9-6-6.2-7.5-2.1-1.5-3.8-3.3-3.9-4.1 0-1.5-4.4-7.1-10.7-13.7-2.4-2.4-4.3-4.8-4.3-5.4s-1.1-2-2.5-3.2c-1.3-1.1-5.8-7.2-10-13.4-8.6-12.7-10.5-14.8-10.5-11.6 0 1.2.5 3.2 1.1 4.6 1.3 2.8.5 7.1-1.3 7.9-.7.2-2.8.2-4.5 0-2.5-.4-3.3-1-3.3-2.5 0-2.2-5-10.8-6.2-10.8-.4 0-2.3-1.3-4.1-3-2.2-1.9-4-2.9-5.7-2.9zm-404.9 5.1c1.5-.2 3 1 2.7 2.6-.2.9-1.1 1.8-2 2-2.1.4-3.5-2.5-2-4 .4-.4.8-.6 1.3-.6zm-242.6 5.4l-3 1.9c-7.1 4.5-14.5 12.2-14.5 15.1 0 3.1 4.9-1.3 14.5-13.3l3-3.7zm-117 .9c1-.1 1.9.1 2.8.4 9.6 3.7 13.4 34.5 5.2 42.7-2.7 2.7-2.7 2.7-7.7.9-7.8-2.9-14.3-9.6-15.8-16.2-1.1-4.7 3.2-19.7 6.8-23.5 2.5-2.7 5.8-4.3 8.7-4.3zm-73.7.5h1.5c4.5 0 6.5 1.4 9.8 7 1.8 3.1 5.5 12.6 6.3 16 .8 3.8-1 10.3-3.5 12.3-1.2.9-2.6 1.7-3.3 1.6-3-.2-7.4-2.1-11.8-5.1-4.1-2.8-5.1-4.1-6.4-8.6-1.8-6.2-1.4-10 2.1-17.8 2.1-4.7 2.4-5.3 5.3-5.4zm683.1 1c-.5 0-1.9 2.1-3.1 4.8-1.8 3.7-2.9 4.8-5.1 5-1.6.2-3.9-.4-5.3-1.2-3-2-3.1-.6-.2 4.5 2 3.7 2 3.9.3 6.5-1.6 2.5-2 2.6-7.3 2.1-3.1-.3-6.8-.9-8.1-1.3-3.9-1.2-2.1 1.3 2.9 3.8 5.2 2.6 6.4 6 2.9 7.8-3.2 1.8-15.5 5-18.9 5-3.7 0-3.8.9-.3 3.4 2 1.5 4.6 2 10.7 2.2 8.4.3 16.2 2 21.2 4.7 1.6.8 3.4 1.5 4.1 1.6 2.4.2 4.1-4.5 4.8-13.4.3-4.9 1.3-12.5 2.1-16.8 1.4-7.8 1-18.7-.7-18.7zm-397.6 4.8c-2.4 0-5 .3-8.2.9-13.3 2.4-19.1 4.2-19.1 5.8 0 1.8-.2 1.8-3.5.3-3.7-1.7-5.6.3-3 3.2 1.4 1.6 1.6 2.3.7 3.3-1 .9-2 .8-4.5-.5-7.8-4.1-12.6-3.3-8.1 1.3 2.5 2.6 2.6 2.9.9 3.6-1.1.4-3-.1-4.7-1-1.7-1-3.8-1.7-4.8-1.7-1.9 0-3.9 1.9-3.7 3.5.3 1.4-7.6 1.8-13.1.6-2.6-.5-5-.7-5.4-.5-1 .6 1 4.5 3 6 2.7 2 .4 3.3-4.8 2.7-5.9-.7-6.3.3-2.4 6 1.4 2 2.2 4.1 1.9 4.7-1 1.6-7.7 2.4-9.7 1.2-1-.7-2.2-1.2-2.8-1.2-1.6 0-1.2 3.6.5 5 2.1 1.8 1.9 3.5-.7 5.3-2.3 1.5-2.3 1.5 2.5 3.6 2.6 1.1 5 2.7 5.3 3.6.4.9 1.8 2.2 3.3 3.1 2.9 1.7 15.6 1.3 17.4-.6 1.4-1.3 6.4-1.3 7.2 0 .6 1 3.5.2 3.5-1 0-.5-.9-1.2-2-1.5-4.9-1.5-2.1-10.5 4.8-15.4 5.2-3.6 6.6-2.9 9.6 4.9 3 7.7 2.6 10-1.8 10-2.2 0-4.6 1.7-4.6 3.3 0 1 7.6 0 12.7-1.8 4.3-1.5 5.5-3.5 2.1-3.5-4.6 0-6.6-5-2.8-7 2.8-1.5 5.8.3 6.8 4.3 1.2 4.7 5.2 4.9 12 .7 2.7-1.7 3.2-2.3 2.2-3.5-.9-1.1-.9-2.3 0-5 1.2-3.7 3.5-5.6 5.9-4.7 1.1.4 1.3-.3.6-3.4-1.5-8-1.2-9.7 2-11.4 3.2-1.6 19.3-2.1 25.3-.8 2.9.7 3.4.4 4.2-1.6.5-1.3 1.4-2.7 1.9-3.1 2.2-1.3 1-4.4-3.5-9.4-3-3.4-5.4-5.1-6.9-5.1-1.3 0-3.6-.5-5.2-1.1-3.7-1.5-7-2.2-11-2.1zm233.1 9.4c-.2.2 1 5.1 2.5 10.9 3.5 12.5 5.8 33 4.2 37.2-.6 1.6-1.1 5.3-1.1 8.3 0 4.7-.3 5.4-1.9 5.4-1.1 0-2.2.4-2.5.9-.4.5-2 1.2-3.6 1.6s-3.2 1.4-3.4 2.3c-1 3.3 0 13.3 1.5 14.3 2.6 1.6 4.7.9 6.9-2.2 1.2-1.6 2.4-2.8 2.7-2.5s.7 3 .9 6.1c.3 4.6.9 6.1 3.1 7.9 2.5 2.2 2.6 2.8 2.9 12.7.1 5.7.7 11.8 1.4 13.4.6 1.7 1.1 6.6 1 11s-.1 10.2-.1 12.9c.1 4.1.3 4.6 1.5 3.7 1.1-1 9.5-25.4 11.9-34.6l3.1-11c3.1-10.9 3.1-11.4.6-10.8-3 .8-6.7-2.2-9.4-7.5-1.3-2.6-3.3-5.6-4.5-6.6-2.8-2.5-2.8-9.9-.1-18.1 2.3-7 5.3-23.3 5.4-29 0-2.8-.8-5.2-2.7-8-1.5-2.2-2.7-4.7-2.7-5.7 0-2-1.1-2.3-2.7-.7-1.9 1.9-8.8-2.5-11.8-7.6-1.5-2.6-2.8-4.5-3.1-4.3zm48.4 2c-.3 0-.5.8-1 2.8-1.4 5.6-4.2 7.2-11.3 6.8l-6-.3-.3 4c-.2 2.2.2 5.7.9 7.8 1.1 3.3 1 4.2-.4 6.7-.9 1.5-2 5.6-2.4 9l-.6 6.1 3.4-.2c7.7-.5 13.8 3.4 13.9 8.8.1 1 1.2-.3 2.7-3.1 1.9-3.7 2.7-7.5 3.5-15.5 1.2-12.3.5-27.9-1.3-31.3-.5-1-.9-1.6-1.1-1.6zm-396.1 2c-.3 0-1 .6-2.2 1.8-1.4 1.3-2.5 2.7-2.5 3.2 0 1.1.7 1 3.1-.2 1-.6 1.9-2 1.9-3.2 0-1.1 0-1.6-.3-1.6zm218.9 4.3c-.8.1-.9.9.1 1.8.9 1 2.3.8 2.3-.2 0-.5-.7-1.2-1.5-1.5-.4-.1-.7-.1-.9-.1zm-73.2 8.5c-.2 0-.4.5-.4 1 0 .6.5 1 1.1 1 .5 0 .7-.4.4-1-.3-.5-.8-1-1.1-1zm-214.8 9c1.5 0 1.7.9.8 3.4-.7 1.8-3 2.1-3.9.6-.8-1.3 1.3-4 3.1-4zm302.6 1.1c-.7.1-1.2.6-1.2 1.7 0 4.6 3.2 11 6.8 13.6 3.7 2.6 6.2 3.3 6.2 1.7 0-.5-.6-1.4-1.4-2.1-.8-.6-1.6-2.8-1.8-4.8-.2-2.9-.9-4-3-5-1.5-.7-3-2.1-3.3-3.2-.4-1.4-1.5-2.1-2.3-1.9zm-141.1 1.4c2.7 0 3.8 2.8 1.9 5.1-1.6 1.9-3.4 1.8-5.1-.2-1.7-2.1 0-4.9 3.2-4.9zm-163.3 6.7c.2 0 .4.1.7.1 1 .4 1.5 1.6 1.3 3-.4 2.8-4.8 3.8-4.8 1 0-2.5 1.2-4.2 2.8-4.1zm510.6 2.1c-.1 0-.1.1-.1.1-.3.3.1 2.2.8 4.3s1.4 3.2 1.7 2.5c.4-1.4-1.5-6.8-2.4-6.9zM97.1 642.7h.8c3 .1 4.4 1 8.3 5.2 3.2 3.4 5.3 6.9 6.3 10.3 1.5 5.2 1.9 17.3.6 21.7-1.4 5.1-8.2 4.6-17.7-1.2-3.8-2.3-7.9-5.8-9.2-7.7-2.1-3.1-2.3-4.3-1.9-9.7.7-7.2 4-14.8 7.5-17.1 1.1-.8 3.4-1.4 5.3-1.5zm-44.2 11.5c.5 0 1.1 0 1.9.1 7.9 1.3 14.2 10.4 16.2 23.2 1.4 8.5.7 12.4-2.5 15.9-2.7 2.9-6.1 3.3-13.7 1.2-8.9-2.4-11.9-7.1-12.3-19-.3-10.4 1-14.9 5.3-18.8 2.2-1.9 3.4-2.6 5.1-2.6zm508.3 5.9c2 0 2.3 1.4 1.2 4.3-.3.9-1.1 1.5-1.7 1.5-5.2-.5-7-3.4-3.1-4.9 1.5-.6 2.7-.9 3.6-.9zm-90.9 17.1c-2.7-.1-6.1 2.3-7.3 5.6-.6 1.8-1.8 3.6-2.6 3.9s-1.4.8-1.4 1.2c0 .3 2 .7 4.5.9 3.9.1 4.7-.2 6.9-3.1 3.1-4 3.6-6.7 1.5-8-.5-.3-1-.5-1.6-.5zm85.1 2.9c-.2 0-.4.1-.6.1-1.6.2-2.1 1.1-2.3 4.3-.1 2.2-.1 4.3.2 4.8.8 1.3 4.4.7 5-.8.3-.8.2-3.1-.1-5.1-.5-2.5-1-3.3-2.2-3.3zM435 693.2c-5.3 0-18.5 3.7-20.2 5.9-1.8 2.1-2.4 6-1.1 7.2 1 1.1 1.3.9 4.3-2.3 2.4-2.5 3.6-3 7.6-3 8.9 0 18.1-6.9 10.4-7.8h-1zm46.9 52.1c-1.8.1-3.2 1.4-7.4 5.5-3.3 3.3-7.5 7.6-9.3 9.6-3.9 4.3-4.9 4.5-6.2 1.1-1.1-2.9-4.4-3.3-7.7-1-1.6 1.1-3.4 1.3-6.3.9l-4-.6-14 14c-7.7 7.7-14 14.5-14 15.1 0 1.3 1.7 1.5 2.4.2 1-1.5 22.4-13.2 30-16.4 8.6-3.5 15.9-3.8 21.7-.8 3.8 2 3.9 2 4.9.1.6-1.1 3.1-3.6 5.7-5.5 3.9-3 5.4-3.6 8.7-3.3 3.5.2 4.4.8 6.4 4.3 3.1 5.3 2.7 13.8-.7 16.2-1.2.8-2.7 2.6-3.2 3.9-.8 2.3-1 2.4-3.3.9-1.3-.9-4.7-4.3-7.6-7.7-5.3-6-5.3-6-6.6-3.6-.7 1.3-1.3 4-1.4 6.1 0 3.4-.7 4.6-6 9.8-5.2 5.1-5.7 5.9-4.2 6.8 2.5 1.4 21.1.7 24.5-.9 1.9-.9 2.7-2.1 2.6-3.4-.3-3.9.1-4.2 5.2-4.4 4.3-.2 6.1-.9 11-4.4 7.3-5.3 9.3-9.2 8.6-16.2-1-8.7-2.3-14-4.3-17.3-2.4-4.1-10.7-8.4-16-8.3-2.1 0-5.5-.2-7.4-.5-.8-.2-1.5-.2-2.1-.2zM176 763c-1.9 0-1 2.9 1 3.5 1.1.3 2 1.1 2 1.7s.3.8.6.5c.8-.8-2.3-5.7-3.6-5.7zm14.6 142c-.3 0-3.3.7-6.8 1.4-3.5.8-11.5 1.5-17.8 1.5-8.9 0-13.5.6-20.5 2.4-4.9 1.4-12.1 3.3-16 4.2-11.3 2.9-11.3 2.8-15.3 11.3-3.5 7.4-3.7 8.1-3.5 18 .1 5.9.8 12.2 1.7 15 .8 2.6 3.2 14.6 5.2 26.7 4.3 25.4 5.3 42.2 3.4 56.8-1.5 11.7-2.7 13.5-12.7 19-10.9 6.1-16.1 10.4-20.4 17-3.9 6-4 6.4-3.4 12.2.4 3.3 1.3 9.6 2.1 14 1.1 6.3 1.1 9.2.2 13.6-.8 3.9-.9 8.8-.1 17 .8 10 .7 12.1-.8 17.4-1 3.3-2.5 6.9-3.2 7.9-1.4 1.9-1.5 1.9-4.2-.2-3.6-2.8-6-2.8-9 .3-4.7 4.7-2.4 12.5 3.7 12.5 1.6 0 3.1.6 3.4 1.4s-.6 5.2-1.9 9.8c-3 10.1-5.6 22.8-6.8 32.8-1.2 10.4-3.8 29.3-4.9 36.6-.6 3.4-1 8.5-1 11.4s-.4 8-1 11.4c-2.5 16.1-4 33.6-4.1 48.8-.1 9.1.1 17.1.5 17.6.7 1.2 2.3 20.6 3.6 43.7.5 9.4 1.8 22.2 2.9 28.5s2.2 14 2.6 17c.9 8.4 3.5 22.5 6.1 33 1.2 5.2 2.6 12.4 2.9 16 .4 3.6 2 11.7 3.5 18 1.6 6.3 3.1 14.4 3.5 18 1.4 13.8 8.1 42.7 12.1 52.2 1.4 3.5 4.1 10.8 5.9 16.3 10.7 32.2 20.5 59.8 21.9 61.3 1.4 1.6 3.9 6.8 14.3 29.2a188.04 188.04 0 0 0 5.3 10.9h7.4c-2.7-5.1-5.5-10.7-7.3-14.6l-8.4-18.3c-1.9-4.1-4.6-9-6.1-10.9-1.4-1.9-2.6-4.3-2.6-5.3s-1.3-5.3-3-9.6c-3.6-9.4-12.5-35.7-14.6-43.1-.8-3-3.1-9.1-4.9-13.5-3.6-8.9-5.7-15.7-7.9-25.6l-3.1-13.5c-.8-3.8-2-10.7-2.5-15.2s-2-12.9-3.4-18.7c-1.5-5.8-3.1-14-3.6-18.3-.6-4.3-2.2-13-3.6-19.3-4.4-19.8-5.2-24.3-5.8-31.5-.4-3.8-1.6-11.8-2.7-17.7s-2.4-19.1-3-29.5l-2-28.3c-2.6-28.9-1.9-51.4 2.2-74.9.5-3 .9-7.8.9-10.8 0-5.3.3-7.7 4-32 1.1-7.2 2-14.8 2-17 0-2.1.8-7.6 1.9-12.3 4.5-18.8 6.1-26.7 6.1-29.3 0-4.2-2.5-8.3-6-9.7-4.4-1.8-3.2-3.5 2.3-3.2 6.9.5 9.9-1.6 13.2-9l2.8-6.2-1.2-12.3c-.9-9.7-.9-13.5.1-18.3.9-4.7.9-7.5 0-13.2-.7-4-1.5-10.3-1.9-14-.5-6.3-.4-6.8 2.8-11.3 3.1-4.3 11.9-10.9 19.9-15 11.7-6 14-12.6 14-40.4 0-13-.6-19.2-3.6-37.6-1.9-12.1-4.4-25.3-5.6-29.4-2.7-9.9-2.3-23.5 1.1-30.1 2.8-5.3 3.6-6 7.7-6 1.7 0 5.7-.9 9-2.1 12.4-4.3 21.6-5.9 33.7-5.9 13.3 0 16.6-1.1 19.2-6 .8-1.7 1.3-3 1.1-3zm301.6 48.5h-.2c-.6.3-.8 3.7-.7 7.5.2 5.3-.2 7.3-1.5 8.6-1.5 1.5-1.7 1.4-3.2-1.4-.8-1.6-1.8-4.8-2.2-7.1s-1-4.1-1.3-4.1c-2.8 0-8.7 9.3-10.6 16.5-.8 3-2.6 7.9-4.1 10.8-1.4 2.8-3.9 9-5.5 13.6s-3.3 8.9-3.8 9.5c-1.1 1.4-5.3 13-7.1 19.8-2.1 8-3.3 8.4-21.9 7.2-6.3-.4-9.2-.3-8.8.4.7 1 13.7 2.9 16.7 2.4.8-.1 3.1.2 5 .8 1.9.5 8.7 2.1 15 3.6 6.3 1.4 14.6 3.9 18.5 5.5 3.8 1.6 7.4 2.9 8 2.9s5 1.6 9.9 3.5 9.8 3.5 10.8 3.5c3.9 0 20.3 10.3 26.7 16.8 8.1 8.1 21.7 16.3 25.1 15 1.6-.6 3-.4 4.4.6l2.2 1.5c.1.1 0-6.1-.3-13.7-.2-7.9-1.2-17.6-2.2-22.7-2.4-11.2-2.3-11.3 10.5-24l9.5-9.5h8.4c11.4 0 12.6-1.9 2-3.5-2.2-.3-5.3-1.4-6.8-2.6-2-1.4-3.6-1.8-6-1.4-3.9.8-7.1-.4-11.7-4.3-3.2-2.7-3.3-3.1-2.2-5.5 1-2.4.9-2.8-1-3.8s-2.5-.7-4.8 2.1c-2.6 3.2-2.8 3.3-5.8 1.9-1.8-.8-3.2-2.1-3.2-3 0-2.8-5.2-12-7.7-13.6-2.2-1.5-2.5-1.5-4.4.5-2.5 2.8-3.9 2.8-3.9.1 0-1.2.8-2.3 2-2.6 2.4-.6 2.4-.5.6-4.8-1-2.3-2.6-3.9-5-4.9-2-.8-3.9-2.2-4.2-3.1-.4-.8-1-1.5-1.4-1.5-1.2 0-3.8 11.7-4.5 20.5-1 11.9-3.1 23.3-4.6 25.1-1.2 1.5-1.5 1.4-2.6-1.2-.7-1.6-1.2-3.9-1.3-5 0-1.2-.8-4.3-1.9-7-3-7.8-7.1-21-7.1-22.9 0-.9.9-1.9 2-2.2s2-.9 2-1.4c0-.4-.9-1.1-2-1.4s-2-1.2-2-1.9c0-.8.9-2.5 2-3.9s2-2.8 2-3.1c0-1.1-3.9-.6-4.6.5-.4.7-1.5-.3-2.8-2.4-4.6-7.6-7.4-11.3-8.4-11.2zm-364.5 17.8c-.3 0-.5.1-.7.3-.7.7-.7 2.1-.1 4 .5 1.6 2 12.6 3.2 24.4 1.7 16.6 2 24.6 1.5 35.2l-.6 13.6 3.8 1.9c2.7 1.3 3.7 2.4 3.6 4.1-.1 2.5.6 2.6 8.8.9 7.5-1.6 8.7-3.1 2.1-2.5-8 .7-8.8-.3-6.1-8 2.3-6.7 4.5-9 10-10.1 4.7-1 5.6-3.2 2.9-7-1.2-1.7-3.4-3.4-4.9-3.7-4-.9-7.2-3.2-7.2-5.1 0-.9.9-3.6 2.1-6l2.1-4.3-2.1-4.1c-1.9-3.5-4.2-12-5.8-21-.4-1.9-1.3-2.9-3.6-3.6-2.4-.6-3.2-1.4-3.2-3.2 0-2.5-3.8-6-5.8-5.8zm366.4 28.9c1.3-.2 2.8.8 2.3 2.1-.3.8.2 1.7 1 2 .9.4 1.8 2.4 2.2 4.6.4 2.7 1.3 4.3 2.5 4.6 1 .4 2.7 2.1 3.7 3.8 2.3 3.8 8.2 20.6 8.2 23.4 0 1 .5 2.4 1.1 3 1.4 1.4 3 8.4 2.3 10.6-.8 2.6-3 2.1-12.8-2.8-13.3-6.7-14-7.7-11-14.1 1.4-2.9 1.9-3.2 3.6-2.3 1.1.6 2.7.8 3.6.4 1.3-.5.9-1.2-2.1-3.9-3.5-3.1-3.7-3.6-3.7-9.2 0-3.3.5-6.5 1.2-7.2.9-.9.8-1.5-.6-2.5-1-.7-1.6-2-1.4-2.8.1-.8-.3-2.9-1.1-4.7-1-2.4-1.1-3.6-.3-4.4.3-.3.8-.5 1.3-.6zm68.4 10.9c1.3.1 2.5 1.2 2.5 2.9 0 1.3-.7 2-2 2-2.4 0-3.7-2.6-2.2-4.2a2.34 2.34 0 0 1 1.7-.7zm-246.2 15.2c-1.1 0-3 .3-5 .7-2.6.6-8.4 1.1-12.8 1.3-10 .5-30.4 3.3-37 5.2-2.7.7-7.7 1.7-11 2.1-8.5 1-10.5 1.9-10.5 4.8 0 2.2.3 2.4 4 1.9 2.6-.4 4-.2 4 .6 0 1.6 2.8 1.4 6.1-.6 2.7-1.6 2.9-1.6 4.7 0 2.1 1.9 5.4 2.2 8.2.7 1-.5 4.7-1.2 8.2-1.5 3.4-.3 9.7-1.2 13.8-2 11.1-2.3 17.7-3.4 25.7-4.4 3.9-.6 9.6-1.7 12.5-2.5 3.5-1.1 5.5-1.3 6.2-.6 1.8 1.8 10.1 1.2 12-.9 1.6-1.7 1.6-1.9 0-2.5-.9-.4-7.5-.9-14.7-1.2s-13.4-.7-13.8-1c-.1 0-.3-.1-.6-.1zm176.6 3.6c.2 0 .4.1.7.4s.4 1.1.2 1.8c-.4 1-.6 1-1.2 0s-.3-2.1.3-2.2zm-132 1.1c-1 0-1.9.4-1.9 1.4 0 .8 1.6 2.8 3.5 4.5 3.7 3.2 5.5 3.3 12.9 1 1.6-.5 3.2-.7 3.7-.4.9.6 10-1.4 11.3-2.6 1.4-1.3-10-2.2-18.5-1.5-6.7.6-8 .5-8.5-.8-.4-1-1.5-1.5-2.5-1.6zm49.1 1.1c-.4 0-.7.2-1.2.7-.9.9-.7 1.2 1.2 1.2s2.1-.3 1.2-1.2c-.5-.5-.8-.7-1.2-.7zm-70.8 3.9c-7.1.2-20.8 3.6-23.8 5.9-1.4 1.1-4 2.2-5.7 2.6-3.5.6-6.7 2.1-31 14.1-8.7 4.3-16.1 8.2-16.4 8.7s.5 1.8 1.8 2.8c2.9 2.2 4.8 1.8 11.7-2.9 3.2-2.2 6.5-3.6 8.6-3.6 1.8-.1 4-.7 4.7-1.3.8-.6 4.3-2.1 7.9-3.3 3.6-1.3 6.9-2.7 7.4-3.2.6-.4 2-.8 3.2-.8s3.3-.9 4.7-2 3.4-2 4.5-2 4.5-1.1 7.5-2.5c3.1-1.3 7.9-2.7 10.7-3.1 7.2-.9 19.4-5.6 19.8-7.5.2-1.3-.7-1.6-4.5-1.7-2.7 0-7.1-.1-9.8-.2h-1.3zm-152.1 8c-1.1 0-2.3.5-2.6 1-.3.6.3 1 1.4 1s2.3-.4 2.6-1c.3-.5-.3-1-1.4-1zm-17.2 4c-1.5.1-3.6.7-5.4 1.6l-3 1.4 4.4-.4c2.4-.2 4.8-.9 5.4-1.5.8-.8 0-1.2-1.4-1.1zm85.5 24.3c-.1.1-.3.1-.4.2-.5.3-1 .8-1 1.1 0 .2.5.4 1 .4.6 0 1-.5 1-1.1 0-.4-.3-.6-.6-.6zm-23.8 15.1c-1.9.1-10.6 6.7-30.5 22.9l-8.9 6.9c-4.5 3-26.2 24.2-26.2 25.6 0 2 3.5-.2 8.9-5.7 2.5-2.6 7.4-6.9 10.9-9.7 3.4-2.7 6.2-5.2 6.2-5.5 0-1.2 21.4-19.4 28.5-24.3 8-5.6 11.5-8.6 11.5-9.8 0-.3-.1-.4-.4-.4zm609.1 3.7c-.5 0-.7.3-.7.8 0 1.6 3.2 11.6 5 15.6 2.7 5.8 6.2 17.1 6 19.2-.4 3.5 0 4.3 3.8 6.7 5.2 3.5 6.3 3.3 5.5-.6-.3-1.8-.9-3.7-1.4-4.2-.4-.5-.5-2.3-.2-4.1.4-2.7-.1-3.9-3.1-7.2-3.8-4.3-4.6-8.2-2.1-10.3 2.1-1.8 1.9-4.7-.6-6-1.1-.6-1.8-1.8-1.6-2.5.3-.7-1.4-2.5-4.3-4.4-3.3-2.1-5.4-3.1-6.3-3zm-328.1 27.6c-4.7.3-13.8 3.1-16.1 5.3s-2.6 2.2-4.3.7c-2.3-2.1-5.4-2.1-10.8-.3-2.2.8-7.6 1.7-12 2-4.3.2-9.5 1.1-11.4 1.8-4.3 1.7-9.7 1.7-12.9-.1s-10.1.1-10.8 3c-.3 1-1.3 1.9-2.3 1.9s-2.3.7-3 1.5c-1.4 1.6-7.6 2-9.9.6-.9-.6-1.2-1.8-.7-3.5.8-3.3-1.8-3.7-3.5-.5-1.2 2.2-1.6 2.2-11.9.1-5.8-1.2-12.6-4.6-13.4-6.8-.4-1-1.2-1.4-2.2-1-.9.3-2.7-.3-4.1-1.4-3.1-2.4-4.3-1.8-4.3 2 0 4.2-2 8-4.6 8.6-3.5.9-4.5 2.6-2.8 4.8 1.2 1.7 1.5 1.8 3.1.4 3.8-3.2 11.7-.9 21 6.2 7.2 5.4 11.1 7.4 15.8 8.1 8.6 1.1 41.9.7 44.5-.6 1.4-.7 5.5-1.9 9-2.5 6.8-1.2 20.2-5.3 23.4-7.1 3.3-1.9 10.9-3.9 21.1-5.5 5.5-.8 12.5-2.2 15.5-2.9 8.7-2.2 21.6-2.8 30.9-1.5 10.1 1.4 12.4.3 7.6-3.6-1.6-1.3-3.7-3.1-4.5-3.8-1.4-1.3-8.9-2.1-29-3.1-6.3-.3-12.8-1.4-15.1-2.6-.4-.2-1.3-.3-2.3-.2zM98.1 1121c-1.9 0-2.3 4.7-1.2 15.8 1.3 12.3 1 13.5-7.4 34.7-1.9 4.9-3.5 9.8-3.5 10.8s-.5 2.7-1 3.8c-.6 1.1-.8 2.4-.5 2.9.3.6 1.5 1 2.5 1 1.8 0 4-4.9 4-9.2 0-.9 2-7.6 4.5-15 7.3-21.3 7.8-23.5 7.1-31.1-.7-7.2-2.8-13.7-4.5-13.7zm374 11.7c.9 0 1.5.1 1.3.5-.5.8-5.4 1.2-5.4.4 0-.2 1.3-.6 2.9-.8.4-.1.8-.1 1.2-.1zm330.5.3c-2.2 0-1.3 1.7 6.9 12.9 18.4 25.2 26.6 37.6 27.2 41.5.6 3.7-1.1 10.2-3.4 12.8-.9 1-3.6 2.5-6.2 3.4-2.5.9-6.8 2.5-9.4 3.6-4 1.6-6.1 1.8-13.7 1.2-10.7-.8-11.8.4-3.2 3.6 7.2 2.8 14.8 2.2 27.4-2.1 4.8-1.6 9.6-2.9 10.7-2.9s2.2-.4 2.6-.9c1.1-1.9 8.9-2.3 11.9-.8 1.6.9 4.2 1.3 6 1 1.9-.3 6.9.8 13 2.6 5.4 1.7 11 3.1 12.5 3.2 1.4 0 4.6.6 7.1 1.3 4.9 1.3 5.6 1.1 6.2-1.9.2-1.1 1.4-2.2 2.8-2.5 2-.5 2.9-1.8 4.5-6.8 1.9-6 2.1-6.2 4.8-5.6 1.5.3 2.7.1 2.7-.5 0-1.7-4-3.9-6.1-3.4-2.3.6-8.8-5.6-10.8-10.4-.7-1.7-2.6-4.3-4.2-5.9-1.6-1.5-2.9-3.2-2.9-3.6 0-.5-1.4-3-3.1-5.5-2.4-3.5-3.6-4.4-5.2-3.9-1.2.3-2.7 0-3.4-.6-2.2-1.8-2.6-.2-.8 2.6 1 1.5 1.4 3.3 1 4.4-.6 1.5-.9 1.4-3.1-1.1-1.3-1.6-3.7-3.3-5.4-3.9-1.7-.5-3-1.4-3-1.9 0-.4-1.7-1.8-3.8-2.8-2.2-1.1-4.6-3.1-5.5-4.4-.9-1.4-2.8-2.8-4.3-3.1-1.5-.4-4-1.6-5.5-2.7-1.5-1-3.1-1.9-3.7-1.9-.5 0-3.1-1-5.8-2.1-2.6-1.2-7.9-2.8-11.6-3.6-7.5-1.5-14.5-4.2-18.8-7.3-1.6-1.1-3.5-2-4.4-2zm-214 17c-.7 0-1.6.1-2.8.3-3.8.3-6 1.5-12.5 6.5-4.3 3.3-8.5 6.8-9.3 7.8-.8.9-4.8 5-8.8 9.2-4 4.1-8 8.5-8.9 9.8-.8 1.3-2.2 2.4-3 2.4s-3.4 2-5.7 4.5c-2.4 2.4-4.6 4.2-4.9 3.9s-2.1-.6-4-.6c-3.1 0-3.6-.4-4.1-2.9-.5-2.4-1-2.9-3.6-2.9-1.7 0-4.8 1.1-7 2.5-5.9 3.7-13.1 3.5-17.2-.5-1.9-1.9-4-3-5.8-3-3.1 0-4.2 1.1-4.4 4.4-.1 1.6-1.1 2.3-4.7 3.1-2.6.6-5.3 1.6-6.2 2.3-.9.8-2.1 1.1-2.7.7-1.4-.8-1.3-6.1.2-8.4.6-1 .8-2.6.5-3.6-.9-2.3-6.6-1.3-8.6 1.5-1.6 2.4-3.1 2.6-3.1.5 0-2.4-2.3-2.7-7.1-1.1-2.4.9-5.2 1.6-6.1 1.6s-2.1.7-2.6 1.6c-.8 1.4-1.6 1.5-5.7.6-4.7-1-8-.3-13.5 2.9-6.4 3.7-13.3 6.9-14.9 6.9-1.1 0-2.2.4-2.5.9-.4.5-2 1.3-3.7 1.6-1.7.4-4.8 2.2-6.8 4s-8.1 6.2-13.5 9.9c-9.3 6.2-21.5 18.2-21.6 21.3 0 .6-1 2.4-2.3 4-1.3 1.5-3 4.6-3.8 6.8-.7 2.2-2.4 5.3-3.6 6.8-1.3 1.6-2.3 3.6-2.3 4.6s-.9 2.6-2 3.6c-1.4 1.2-1.9 2.9-1.8 5.4 0 2-.6 5-1.5 6.8-1.4 2.7-1.5 4.3-.6 11.3.8 7 1.5 8.9 4.4 12.8 1.9 2.4 3.5 5.4 3.5 6.6s.6 3.1 1.4 4.2c1.7 2.4 1.1 6-1 6.8-1.9.7-1.8 2.6.1 2.6s1.9.9-.1 4.8c-1.4 2.8-1.4 3.3.2 5.6 1 1.6 1.4 3.5 1 5-.3 1.4-.1 2.8.5 3.1.6.4.8 1.4.5 2.2-1.1 2.7 4.7 10.3 7.8 10.3 1 0 2.4 1.8 3.7 4.7 1.1 2.5 3.8 6.4 6 8.6 2.2 2.3 4.8 5.5 5.6 7.1.9 1.7 2.4 3.7 3.5 4.4 1 .7 2.8 3.2 4 5.5 2.3 4.6 8.5 10.5 13 12.4 1.9.9 3 2.2 3.5 4.3.3 1.8 1.5 3.6 2.7 4.1 2.2 1 5.6 6.1 5.6 8.3 0 .7-1.1 1.9-2.5 2.6-2.3 1.2-2.8 1.1-5.3-1.3-1.5-1.5-3.6-2.7-4.4-2.7-.9 0-2.6-1.3-3.8-3-1.3-1.9-3-3-4.5-3-1.4 0-2.6-.7-3-1.9-.3-1.1-2.4-2.6-4.5-3.5-2.2-.9-4-2-4-2.5s-1.3-1.1-3-1.4c-2.1-.5-3.1-1.4-3.6-3.2-.3-1.4-2.3-3.8-4.3-5.3s-3.9-3.1-4.2-3.6a1.25 1.25 0 0 0-1.6-.3c-.6.4-2.3-.7-3.8-2.3-1.6-1.7-3.4-3-4.2-3-1.9 0-4.3-5.3-3.6-8.1.6-2.2.5-2.3-1.1-1-1.5 1.3-2.1 1-4.9-1.7-1.8-1.8-4-3.2-4.9-3.2s-1.9-.9-2.3-1.9c-.3-1.1-1.8-2.4-3.3-2.9s-5.4-3.5-8.7-6.6-7.5-6.1-9.3-6.7c-2.2-.7-3.9-2.3-5.2-4.9-2.2-4.3-4.6-5.5-8.3-4.1-2.1.8-3.1.6-5.2-1.1-2.5-2-2.6-2-4.6-.2-1.9 1.7-2.2 1.7-3.3.2-1.5-2.1-24-4.2-30.1-2.8-6.3 1.5-11.5 1.3-11.5-.5 0-.8-.4-1.5-1-1.5-.5 0-1 .9-1 1.9 0 1.1-1 2.7-2.2 3.5-1.8 1.3-2.4 1.3-4.2 0-1.1-.8-2.4-1.4-2.8-1.4-1.2 0-1 6.8.2 7.5.6.3.7 1.7.4 3.1-.4 1.3-.2 3.7.4 5.2s1.3 4.3 1.6 6.3c.5 2.8 1.3 3.9 3.6 4.9 3.4 1.4 7.5 7.3 6.6 9.5-1 2.8-5.4 1.7-11.5-2.7-1.3-1-3.7-1.8-5.3-1.8-2.4 0-9-3.9-11.8-7.1-1.6-1.8-8.1-4.9-10.2-4.9-1.3 0-2.9-.5-3.6-1.2-1-1-1.7-1-3.4.1-1.8 1.1-2.2 1.1-3-.3-1.3-2.3-2.6-2-3 .7-.2 1.4-1.7 2.9-4.2 4.1-3.8 1.8-3.9 1.9-5.2.1-.9-1.2-1-2.2-.4-3 .8-1 0-1.1-3.2-.5-4.9.9-6.8-.1-6.8-3.4 0-1.2-.5-2.7-1.2-3.4s-1.4-2.9-1.5-5c-.4-6.2-1.8-13.6-3.2-16.1-.7-1.3-1.4-6.2-1.5-11-.1-6.4-.6-9.5-1.9-11.4-1.3-2-1.7-4.6-1.6-9.9.1-5.2-.4-8.4-1.7-11-1.5-3.1-1.5-3.9-.4-5.3 1.4-1.7 2.4-9.9 1.5-12.4-.4-1.1-.8-1.1-2-.1-.9.7-2.5.9-4 .6-2.1-.6-2.5-1.1-1.9-2.9.8-2.9 1.6-3.5 2.1-1.9 1 2.7 3.1 1.2 3.1-2.2 0-3-.3-3.5-2.6-3.8-2.4-.3-2.7-.7-2.5-3.9.2-3-.2-3.8-2.2-4.7-2.3-1.1-3-2.7-2.5-6.1.1-1-.5-1.2-2.2-.8-1.3.4-2.9.7-3.6.7s-1.7 1.1-2.2 2.5c-.6 1.5-1.8 2.5-2.9 2.5-1.5 0-2.1-1-2.7-4.7-.4-2.7-.8-6.6-.9-8.7 0-2.2-.6-4.1-1.2-4.3-2.5-.9-4.6 6.8-4.8 17-.1 5.4-.6 10.3-1.2 10.8-.5.5-2.1.4-4.1-.3-3-1.1-3.4-1-6.6 2.1l-3.5 3.4 2.2 2.3c1.2 1.3 2.4 1.9 2.5 1.4.5-1.4 4.8-1.2 6 .3 3.1 4 2 9.7-1.9 9.7-2.7 0-2.4 3.8.4 6 3.1 2.4 4.7 8.2 4.7 16.4 0 3.7.4 6.6 1 6.6a.94.94 0 0 0 1-1 1.08 1.08 0 0 1 1-1c.6 0 1 3.6 1 8.8 0 4.8.8 14.1 1.6 20.7 2.6 20 3.3 35.8 1.6 37.2-1 .8-1.2 2.2-.8 4.7.5 2.5.3 3.6-.5 3.6-.6 0-.9.8-.6 1.9.4 1.9-3.9 6.1-6.4 6.1-.7 0-.9.9-.5 2.4.8 3.3-1.2 4.8-5.2 3.7-1.9-.6-3.4-.6-3.7 0-1.2 1.9-3.5.9-3.5-1.7 0-2.7-.1-2.7 4.8-.7.6.3 1.2.1 1.2-.5 0-.5.9-1.2 2-1.5s2-1 2-1.6c0-.7-.9-.9-2.4-.5-3.1.7-7.7-2.4-7-4.7.4-1.4-3.2-5.9-3.8-4.8-1.9 3.2-2.8 5.1-2.8 6.2 0 .9-1.6 1.7-4 2.1-5.6.9-5 2.3 1 2.2 3.7-.1 4.9-.5 4.7-1.6-.1-.8.6-1.6 1.6-1.8 1.7-.3 1.8 0 1.2 3-1 4.7-3.1 7.7-6 8.4-2.8.7-2.8.8-1.6 3.2.4.9 1.1 2.9 1.4 4.3.6 2.4.4 2.6-1.8 2.2-1.6-.3-2.7-1.4-3.1-2.8-.5-2.1-.9-2.2-3.6-1.4-1.9.5-3.8.5-4.9-.1-1-.6-3-1-4.4-1-2.5 0-10-4.8-9.1-5.7.3-.3 1.2.2 2.2 1.1 1.4 1.5 1.9 1.5 3.8.3 1.1-.8 2-2.2 1.8-3.1-.5-2.7-5.4-9.6-7.4-10.2-1-.3-1.8-1.1-1.8-1.8 0-1.9-4-4.3-8.4-5.1l-3.7-.7.5 15.8c.3 8.8 1 19.1 1.6 22.9l3.1 18.5 3.3 20.5 3.2 16.5c.9 4.1 2.2 11.1 2.9 15.5s2.4 13.6 3.8 20.5 3.2 16.6 4 21.5c3.6 20.6 6.8 34 11 44.7 2.4 6.2 8 21.9 12.2 34.8 8.6 25.8 12.1 35.3 15.9 42 1.4 2.5 4.5 9 6.9 14.5 4.4 9.7 7.9 17 13.7 28.4h635.8c0-.3.1-.6.1-.9 1.1-7.8 5.3-24.4 8.2-32 1.1-3 2.9-8.2 3.9-11.6 3.7-12.6 7.3-22 9-23.9 1-1.1 3-5.1 4.4-8.9 4.4-12.2 5.7-11.3 16.2 10.3 10.6 21.6 10.2 21 16.6 29.4 3.4 4.4 7.5 8.5 10.1 10 2.4 1.4 6.6 4.6 9.3 7 3.1 2.8 9 6.3 15.9 9.5 18.6 8.4 18.7 8.4 29.2 8.7 10.7.3 15.7-1.1 21.5-6 1.6-1.4 3.5-2.5 4.1-2.5 1.3 0 9.9 5.5 17.4 10.9h120.2c.2-.7.4-1.5.6-2.5.3-2.4 1.7-5.7 3.1-7.3 5.4-6.4 1.4-12.5-12.6-19.3-1.9-.9-5.3-3.2-7.5-5.1-3.9-3.4-3.9-3.6-2.2-5.4 2.1-2.4 2.3-7.2.2-8-2-.7-4.5 1.4-4.5 3.8s-2.4 2.4-5 .2c-2.4-2.1-2.6-3.3-.5-3.3.8 0 2.3-1 3.4-2.2 2.3-2.4 1.3-4.8-2.1-4.8-1 0-2.2-1-2.7-2.3-1.3-3.3-3.4-4.8-5.1-3.7-3.2 2-3.9 1.1-3.8-4.3.2-7.6-.9-8.8-4.3-4.6l-2.7 3.4-1.1-2.7c-.6-1.6-1.7-2.8-2.4-2.8-1.9 0-4.2-13.6-2.9-18.1.9-3.3.7-36.5-.3-42.2-.3-1.6-2.8-6.3-5.5-10.4s-5.7-10-6.6-13.1c-2.4-8.9-5.2-16.1-9.1-23.9-4-8-5.9-9.2-14.3-9.2-2.5 0-6.8-.5-9.5-1.1-6.6-1.4-15.5-2.9-23.5-4-3.6-.5-10.3-1.6-15-2.5l-14-2.5c-3-.5-8-1.6-11-2.5-3-.8-9.8-1.7-15-2-5.4-.2-11.5-1.1-14-2-4.3-1.6-10.1-2.8-29.5-6-15.2-2.6-18.6-3.3-31.5-6.6-13.3-3.3-24.7-8-34.2-14.1-5.9-3.8-14.8-12.2-17.6-16.8-1.7-2.6-8.2-11.1-14.1-18.3-1.8-2.3-4.2-6-5.2-8.3-.9-2.3-2.2-4.5-2.8-4.9-.6-.3-2.4-3.2-4-6.3s-4.3-6.7-6-8c-1.7-1.2-3.1-3-3.1-4 0-2.6-3.1-6.9-10.3-14.7-3.9-4.1-7.3-8.8-8.3-11.5-.9-2.5-2.8-6.3-4.1-8.6-1.3-2.2-2.3-4.7-2.3-5.4s-.6-2-1.4-2.9c-3.3-3.7-5.1-14.1-4.8-27 .3-12.8.2-12.2 6.7-29.1.8-1.9 1.9-6 2.6-9 1.3-6.2 5.7-17.6 10.1-26.5 5.7-11.3 15.9-29.5 17-30.2.6-.3 3.9-.6 7.2-.5 4.5.1 7.4-.5 11.1-2.3l9.8-4.5c2.7-1.2 5.1-2.9 5.5-3.8.9-2.6 2.4-3.2 6-2.6 2.7.5 3.6.1 6.2-2.6l3-3.2-4-4.9c-3.1-3.6-4.9-4.9-7.3-5.1-2.9-.3-3.2-.6-3.2-3.7 0-5.1-2.2-5-4.4.2-1.8 4.1-2.5 4.7-9.4 7.6-4.2 1.7-9.3 3.1-11.6 3.1-2.2 0-4.2.4-4.5.9-.4.5-3.4 1.2-6.8 1.6-5.4.5-7.2.2-12.6-2-3.5-1.4-6.8-2.3-7.4-1.9s-.8 2.3-.3 5.3c1.2 7.8 1.3 10.3.4 17.9-1.1 9.9-1.5 10.8-5.3 13.1-3.4 2.2-8.5 2-11.4-.2-1-.8-1.6-.7-2.3.6-.6 1-1.6 1.4-2.6 1-1.3-.5-1.5-.3-.9 1.3 1.8 4.2 1.7 5.2-1.2 8-1.7 1.7-3.6 5.3-4.6 8.6-3 10.3-8 7.9-11.6-5.5-1.8-6.7-2-8.8-1.1-11.3.6-1.7 1.1-4 1.1-5.2 0-4.8-11-13.2-17.2-13.2-3.3.1-9.9 5.4-12.2 9.8-1.9 3.7-2.9 8.7-4.2 19.2-.4 3-1.4 6.4-2.4 7.5-2.1 2.4-4.5 21.6-4.1 32 .3 9.3.7 14.9 1.1 15.5.2.3.4 1.9.6 3.5.3 3.8 2.7 13.7 3.6 15 .3.6.9 3.7 1.3 7s1.6 8 2.7 10.5l4.3 9.5c2.8 6.2 6.5 16.7 6.5 18.7 0 .7 2 3.4 4.5 5.8 4.1 4.1 4.5 4.8 4 8-.9 5.5 4 14.6 12.5 23 3.8 3.9 7 7.4 7 7.9 0 1.8 9.1 10 10.4 9.5 1.7-.7 2.6.7 3.7 5.4.5 2.3.4 4.1-.3 4.9-1.3 1.6 2.7 7.5 4.6 6.7 1-.4 1.9 1.2 3.1 5.3l2.1 7.1c.3.9.9 1 2.1.4 1.2-.7 2.2-.3 4.1 1.9 1.3 1.6 2.1 3.5 1.9 4.3-.5 1.2-1.2 1.2-4.7 0-2.3-.8-4.6-1.2-5.1-.8-.9.5-2.8-.4-16.1-7.2-5.5-2.8-16.4-13.5-18.3-18-.7-1.7-2.9-4.1-4.8-5.3-4.2-2.6-7.5-6.7-14.2-17.6-5.2-8.5-14.1-20.5-16.2-21.8-.7-.5-1.3-1.2-1.3-1.8 0-.5-2.4-4.3-5.4-8.3s-6.1-8.6-6.9-10.2-2.7-4-4.2-5.4-3.8-4.7-5.2-7.5c-2.7-5.5-16.6-19.5-22.3-22.5-1.9-1-4.8-3.2-6.5-4.9-5.4-5.8-10.3-7.9-18.6-8.2-6.6-.3-7.9 0-11.6 2.4-5.2 3.3-5.7 6.6-1.6 9.4 3.6 2.5 12.2 11.6 12.3 13 0 .6.6 1.3 1.4 1.6.7.3 2.2 3.3 3.2 6.8 1.2 4 2.5 6.4 3.6 6.7 1 .2 2.8 2.4 4 4.8s2.7 4.4 3.4 4.4c.6 0 1.7.7 2.4 1.5 1 1.3.9 1.9-.5 3.5-1.7 1.8-1.7 2 .6 2.9 1.3.5 3.7 1.4 5.4 1.9 2.3.7 3 1.5 3.1 3.4.1 3.7 1.1 5.8 2.7 5.8.8 0 1.7.9 2 2.1.4 1.3 1.2 1.9 2.4 1.7 2.7-.5 5.5 5.7 4.9 10.6-.5 4.2.4 6.7 3.6 10.3 1.1 1.2 1.7 2.6 1.3 3.2-.9 1.6-4.1 1.3-5.5-.4-.7-.8-2.9-1.5-5-1.5-3.9 0-5 1.2-5 5.1 0 1.2-.7 1.9-1.9 1.9-2.5 0-3.8-1.8-4.6-6.3-.5-2.2-2.7-6.2-5.6-9.9-2.7-3.3-4.9-6.6-4.9-7.2s-1.2-3.3-2.6-6c-1.4-2.6-2.4-5.7-2.1-6.7.4-1.3 0-1.9-1.2-1.9-2.4 0-6.2-5.3-5.1-7 .6-1 .1-1.8-1.8-2.7-2.5-1.2-6.2-6-10.4-13.7-1-1.7-3.8-5.3-6.2-8.1-6.8-7.5-11.5-14.1-16-22.5-2.2-4.1-5.4-9-7.1-10.9-9-10-13.9-15.1-14.3-14.6-.5.5 9.1 19.6 12 23.7 1 1.5 3 5.1 4.3 8s4 6.9 6 8.8c2 2 3.5 4.4 3.5 5.8 0 1.2 1.1 3.3 2.5 4.6 2.8 2.6 3.3 4.6 1 4.6-.8 0-1.7-1.1-2.1-2.5-.3-1.4-1-2.5-1.5-2.5-1.5 0-7.9-6.2-7.9-7.6 0-.8-.6-1.7-1.4-2s-2-1.9-2.6-3.5c-1.1-2.7-8.8-8.9-11-8.9-.5 0-1.7-1.1-2.6-2.5s-2.2-2.5-2.9-2.5c-1.3 0-3.1 3.7-3.7 7.5-.3 1.6-1.2 2-4.8 2.1-7.4.1-7.3 0-6.5 4.3.5 3 .1 4.9-1.6 8.3-1.2 2.3-2.3 4.5-2.5 4.6-.1.2-2.4-.3-5.1-1.1-11.2-3.5-16.1-2.5-13.3 2.8.7 1.4 1 3.7.7 5.5-.6 2.6-.3 3.2 1.8 4 1.9.7 2.5 1.7 2.5 3.8 0 3.5-2.2 5.6-4.9 4.7-1.2-.3-3.7-.1-5.6.6-2.7 1-3.8 1-4.7.1-.6-.7-2-1.2-3-1.2-2.3 0-2.4-4.2-.2-6 1-.9 1.4-2.6 1.2-4.9-.3-3.5-.4-3.6-4.3-3.5-5.3.2-7.5 1.2-7.5 3.4 0 1.1-1 2-2.5 2.4-2 .5-2.5 1.3-2.5 3.7 0 3.4-2.2 4.8-4.5 2.9-1.2-1-1.9-1-3.2.1-3 2.2-5.3 4.8-5.3 5.7 0 .5-.9 1.7-2 2.7s-2 2.5-2 3.4c0 1.1-.4.9-1.6-.7-.8-1.2-2.4-2.2-3.4-2.2-2.4 0-6-3.8-5.3-5.5.2-.8-.5-1.9-1.7-2.5-1.9-1-2.1-1.7-1.5-4.7.6-3.4.5-3.5-1.7-2.9-5 1.5-5.1 1.4-5.5-5.4-.3-6.2-1.4-9.8-3.9-13-.6-.8-1.7-3.2-2.3-5.2-.8-2.5-1.9-3.8-3.1-3.8-1.9 0-4.4-2.3-3.5-3.2.3-.3.1-2.7-.5-5.2-.6-2.9-.7-5.3-.1-6.3.6-1.1.3-3.2-.6-6.1-1.2-3.3-1.3-4.9-.5-6.2.6-1 1.2-6 1.3-11.2.2-5.1.5-9.7.9-10.3.4-.5 1.7-3.4 2.9-6.4 2.9-6.9 8.1-13.5 9.5-12.1 1.8 1.8 2.6 1.1 2-1.6-.6-2.2-.4-2.5 1.2-2.2 1.4.3 1.8 1.2 1.7 3.1s.5 3.2 2.3 4.4c2.3 1.5 2.6 1.5 3.8-.2.9-1.2 1.5-1.5 2-.7.4.7 1.8 1.2 3.2 1.2 1.3 0 2.4.5 2.4 1 0 .6.4 1 .9 1s.8-1.8.8-4.1c0-5 1.7-6.3 5.6-4.3 2.2 1.2 3.2 1.3 4.3.3 1.1-.9 1.8-.9 2.6-.1.7.7.4 1.9-1.1 4-1.1 1.7-2.1 3.3-2.1 3.7 0 1.1 7.3 9.4 8.8 10 1.3.5 5.1-.4 11-2.6 1.4-.6 2.2-1.7 2.2-3.3 0-1.4.5-3.7 1-5.2 1-2.4 1.4-2.6 4.7-2.1 3 .5 4.1.2 6.5-2.1 1.6-1.5 3.4-3.8 3.9-5.1.8-1.9 1.5-2.2 3.7-1.8 1.6.3 3.9 0 5.3-.8 1.3-.8 3.1-1.7 3.9-2.1s2.5-1.9 3.7-3.3c1.9-2.4 2.2-2.5 4-1 1.8 1.6 7.2 1.7 19.1.4 4.1-.4 5.4-.2 5.8 1 1 2.4 3.1 1.7 5.5-1.7 1.3-1.8 3.9-5.2 5.8-7.4 2-2.3 4.7-6.3 6-8.9s3.7-6.2 5.3-8.1 4-4.7 5.1-6.3l8-11.1c3.2-4.4 6.1-8 6.6-8 2 0 16.1-15.9 16.1-18.2 0-.5 1-2.3 2.3-3.8 1.5-1.7 2.7-4.8 3.1-8.1.7-5.2 4.1-12.3 7.9-16.6 1.7-1.9 1.7-2.5.5-5.8-.9-2.8-1.2-3.5-3.2-3.5zm10.8 13c-1.9 0-2 .5-3.1 13.2-.9 10.7-.9 10.7-5.4 16-9.2 10.9-14.3 19.1-15.4 24.8-.4 1.9-2.7 6.2-5.1 9.4s-4.7 7-5.1 8.5c-.3 1.4-1.6 4.9-2.8 7.6-1.3 2.8-3.4 8.2-4.9 12l-4.1 10.3c-.8 1.8-1.5 4.1-1.5 5.2 0 1-.4 2.1-.9 2.4-1.4.9-5.1 8.5-5.1 10.5 0 1 .7 2.4 1.5 3.1s1.3 2.2 1 3.4.3 3.1 1.4 4.5c1.7 2.2 2.2 2.4 4.4 1.4 1.9-.9 2.7-2.1 2.9-4.4.3-2.7 1.1-3.6 4.8-5.6 3-1.5 5.4-2.1 7.3-1.7 3 .6 3.4-.3 1.2-3.2-.8-1.1-1.5-4.1-1.5-6.9 0-4.1.5-5.6 2.8-8 3.2-3.6 6.9-10.9 7.9-15.6.3-1.9 1.5-4.7 2.5-6.4 1-1.6 1.8-3.9 1.8-5s.7-3.1 1.6-4.3c.8-1.2 1.3-2.6.9-3.1-.3-.6.4-1.5 1.5-2.1 3.3-1.8 5.5-6.1 5.6-11 .1-9.7.6-15.4 1.1-14 .3.8 1.8 2.9 3.3 4.7 2 2.2 3 4.7 3.5 8.5.3 2.9 1.3 9.3 2.2 14.2 1.2 7.2 1.3 9.6.4 12.2-.9 2.5-.9 4.9-.1 9.6 1.3 7.6 4.9 19.5 6.6 22.3 1.7 2.6 5.4 14.4 5.4 17.1 0 1.1.8 4.7 1.9 8 1 3.2 2.6 8.8 3.6 12.4 1.7 6.6 6 20.2 7.2 23 .5 1.1.8.9 1.1-.8.6-3.8-1.8-19.3-3.6-23.7-1.4-3.1-1.6-4.8-.9-7.6.7-2.5.5-5-.5-8.6-1.2-4.2-1.3-5.7-.3-8.6.9-2.6.9-3.9.1-4.7-1.1-1.1-2.9-16.2-2.7-23 .4-20.8.3-23.3-1.8-36-.6-3.6-1.5-10.3-2-14.8-.6-4.6-1.4-8.9-1.9-9.5-.6-.7-2.1-5-3.5-9.7-2.9-9.8-11.2-26-13.3-26zm-515.5 31.3c-1.3.1-1.9 1.5-2.4 4.5l-2.6 13.2c-1 5.2-1.9 11.2-1.9 13.4 0 5 1.3 3.9 3.4-2.9.8-2.7 2.6-7.9 3.9-11.5s2.7-8.4 3.1-10.7c.5-3.6.3-4.4-1.4-5.3-.9-.5-1.6-.7-2.1-.7zm831.6 3.7c-.8 0-1.5.5-1.5 1 0 .6.7 1 1.5 1s1.5-.4 1.5-1c0-.5-.7-1-1.5-1zm-335.2 22.2c.1-.1.3 0 .4 0 1.9.3 5.6 6.6 4.7 8-.7 1.2-9.4 1-9.4-.2 0-.6.7-2.7 1.5-4.6.9-2.2 1.8-3.2 2.8-3.2zm-430 21.8c1.3 0 .7 1.8-.8 2.4-.8.3-1.5 1.5-1.5 2.6 0 2.1-2.4 2.7-3.6.9-.6-1 4.1-5.8 5.9-5.9zm292.2 17c.8 0 1.5.4 1.5.9s1 1.1 2.3 1.3c1.2.2 2.3 1.1 2.5 2.1.4 2-.3 2-3.8.4-3.9-1.8-5.4-4.7-2.5-4.7zm-4.6 3c.6 0 1.1.5 1.1 1 0 .6-.2 1-.4 1-.3 0-.8-.4-1.1-1-.3-.5-.1-1 .4-1zm-5.2 15c-.9 0-6.7 3.2-6.7 3.7 0 .3.8.2 1.8-.2.9-.4 2.5-.9 3.5-1.2 1.4-.4 2.5-2.3 1.4-2.3zm-14.9 2c-1.4 0-.9 2.2.9 4.2 1.1 1.2 2 1.5 2.6.8 1.1-1-1.7-5-3.5-5zm276.4 7c.9 0 1.8.6 1.8 1.9 0 1-.7 2.4-1.5 3.1-1.2 1-1.6.9-2.1-.4-.3-.9-.3-2.3 0-3.1.3-.9 1.1-1.4 1.8-1.5zm530.1 4.7c-.1 0-.2.1-.3.3-.5.7-.6 5.4-.3 10.4s.4 10 .4 11.1c-.4 8.8-.7 11.2-1.4 12.3-1 1.4.1 9.1 1.5 10.8.5.7.5 3-.2 5.7-1 4.5-.6 7 1.3 9.5s2.4-.8 2-12.6c-.3-6.4-.6-18-.8-25.7-.3-14.5-1.1-22-2.2-21.8zm-780.1 45.1c-.3-.1-.7.1-1.3.5-1 .7-1.9 2.2-1.9 3.4s-.5 2.3-1.2 2.5c-.9.3-.8 1.3.4 3.9.9 1.9 1.9 4.4 2.3 5.7.8 2.7 3.5 2.9 3.5.2 0-1.1.7-2 1.5-2a1.54 1.54 0 0 0 1.5-1.5c0-.8.7-1.5 1.6-1.5 2.3 0 1.3-3.5-1.2-3.8-1.5-.2-2.8.7-4.2 3l-2.2 3.3v-2.7c0-1.5.4-2.9.9-3.2s.8-2.3.8-4.5c0-2.3 0-3.2-.5-3.3zM193.9 1350c-.5 0-.7.5-.4 1 .3.6.8 1 1.1 1 .2 0 .4-.4.4-1 0-.5-.5-1-1.1-1zm258 1c-.5 0-.9.5-.9 1 0 .6.7 1 1.6 1 .8 0 1.2-.4.9-1-.3-.5-1-1-1.6-1zm211.6 1.1c1.3-.1 1.6.3 1.3 1.6-.2 1-1.4 2-2.6 2.1-1.8.3-2.3 0-2-1.5.2-1 1.4-2 2.6-2.1.3-.1.5-.1.7-.1zm563 3.3c-.4 0-.5.7-.5 2.3s.3 3.3.7 3.6c1.3 1.4 2.3.6 2.3-1.7 0-1.3-.7-2.9-1.5-3.6-.5-.4-.8-.6-1-.6zm-679.1 7.6c.8 0 1.9.6 3.4 1.6 1.4 1 2.2 2.6 2.2 4.5 0 5.4-4.5 2.7-6.5-3.8-.4-1.6 0-2.3.9-2.3zm-128 1.1c-.3.1-.4.6-.4 1.5 0 .8.5 1.2 1 .9.6-.3.8-1.1.5-1.6-.5-.7-.8-.9-1.1-.8zm156.7 6.9c-1.4 0-2.3 1.8-1.6 3 .3.6 1.1.8 1.6.5 1.2-.8 1.2-3.5 0-3.5zM251 1381c.6 0 1 .5 1 1a.94.94 0 0 1-1 1c-.5 0-1-.4-1-1a1.08 1.08 0 0 1 1-1zm172.1 0c.6 0 .7.5.4 1-.3.6-1.1 1-1.6 1-.6 0-.7-.4-.4-1 .3-.5 1.1-1 1.6-1zm50 0c.5.1.9.6.9 1.4s-.4 1.8-.9 2.1c-1.2.7-2.4-1.2-1.6-2.5.5-.7 1.1-1.1 1.6-1zm-210.3 6.1c.7 0 1.6.9 2.5 2.9.9 1.6 1.2 3.2.8 3.5-1.2.7-5.4-4.2-4.6-5.4.4-.7.8-1 1.3-1zm970.2.9a1.08 1.08 0 0 0-1 1c0 .6.5 1 1 1a.94.94 0 0 0 1-1c0-.5-.4-1-1-1zm-636.7 2.3c-.2.1-.3.4-.3 1.1 0 .9.7 1.6 1.5 1.6s1.5-.2 1.5-.4-.7-.9-1.5-1.6c-.6-.5-1-.7-1.2-.7zm-475.2 4.7c.5 0 .9.7.9 1.5 0 1.5-1.2 2-2.3.9-.8-.8.1-2.4 1.4-2.4zm-9.2 11c1.5 0 2.2 1.6 1.5 3.4-.9 2.4-2.4 1.9-2.4-.9 0-1.4.4-2.5.9-2.5zm32.5 1.2s.1 0 .2.1c.3.3.4 1.2.1 1.9-.3.8-.6.6-.6-.6 0-.8.1-1.3.3-1.4zm155 .8c3.3 0 5.6 1.3 3.9 2.3-1.7.9-6 1.6-6.6 1-1.8-1.7-.5-3.3 2.7-3.3zm194.1 26.1c.2 0 .5 0 .8.1 1.2.2 2.2.8 2.2 1.3 0 1.2-2.8 1.8-3.8.9-1.2-1.3-.8-2.3.8-2.3zm104.4.2c3.4 0 10.2.7 11.1 1.2.6.3 1 1.3 1 2.1 0 2.1-5.7 1.7-10.2-.7-2.1-1.1-3.8-2.1-3.8-2.4 0-.1.7-.2 1.9-.2zm25.8 4.1c2.5.1 5 2.6 3.1 3.7-2.1 1.4-5.8 1-6.5-.6-.6-1.8-.5-2 2.4-2.9.3-.1.6-.2 1-.2zm20.9 4.2c2-.3 3.8 1.5 6.7 6 2.1 3.2 3.4 4.3 5 4.1 1.3-.1 2.2.4 2.5 1.5.6 2.9-5.7 1.7-11.6-2.2-7-4.6-8-6.4-4.8-8.5.8-.5 1.5-.8 2.2-.9zm26.5 1.6c.4 0 .8.3 1.3.7 1.6 1.3 1.5 1.6-1.1 3.7-1.5 1.3-3.1 2.3-3.5 2.4-1.4 0-.8-2.7 1.1-5.1 1-1.3 1.6-1.8 2.2-1.7zm-33.3 2.9c1-.1 1.3.4 1 1.6-.2 1-1.1 2-2.1 2.1-1.4.3-1.8-.1-1.5-1.5.2-1 1.1-1.9 2.1-2.1.2-.1.4-.1.5-.1zm-43.9.9c.6 0 1.3.5 1.6 1 .3.6-.1 1-.9 1-.9 0-1.6-.4-1.6-1 0-.5.4-1 .9-1zm186 15c.6 0 1.3.5 1.6 1 .3.6-.1 1-.9 1-.9 0-1.6-.4-1.6-1 0-.5.4-1 .9-1zm82.9 27.4c.5 0 1.1.1 1.7.6.8.7 1.5 1.6 1.5 2.1 0 1.3-3.8 1.1-4.6-.2s.1-2.4 1.4-2.5zm159 129c.7.1 1.6.7 2.6 1.9 1.2 1.3 2.9 2.7 3.9 3.1 1.2.4 1.7 1.4 1.5 2.9-.5 3.5-4.6 3.4-8.6-.2-2.7-2.6-3.1-3.4-2.2-5 .9-1.9 1.8-2.7 2.8-2.7zm-199.4 6.7c-.1 0-.2 0-.3.1-.6.1.8 3.9 3 8.3 2.1 4.4 3.9 8.5 3.9 9.2 0 2.2 19 22.1 24.1 25.3 2.8 1.6 6.9 4.8 9.2 6.9 2.9 2.7 10.6 7 19.4 11h18.8c-5.2-1.2-10.6-3.4-18.9-7.5-5-2.4-9.5-4.4-10.1-4.4s-2.4-1.4-4.1-3.1c-1.6-1.7-5.9-5.2-9.6-7.6-3.8-2.4-9.1-7.1-11.8-10.5-2.8-3.3-6.4-7.1-8-8.5-1.7-1.4-3-3.2-3-4.1-.1-5.1-9-15.5-12.6-15.1zm-4.3.1c-1.8.1-6.5 3.4-8.2 6.1-1 1.8-2.6 5.7-3.5 8.7-.8 3-3.1 9.3-5.1 14-2.6 6.1-3.7 10.4-4 15.5-.3 4-1.7 10.3-3.6 16.4h6.6c1.5-4.7 2.8-11 3-14.6.4-5.2 1.6-9.7 4.1-15.5 1.9-4.6 4-10.3 4.6-12.8.7-2.5 2.6-7.3 4.3-10.7 1.7-3.5 2.8-6.6 2.5-6.9-.2-.1-.4-.2-.7-.2zM308 1636c.6 0 1 .5 1 1 0 .6-.5 1-1 1s-1-.4-1-1c0-.5.4-1 1-1zm787.4 35c-1.9 0-4.8.7-6.3 1.5-3.1 1.6-7.7 8.2-10.2 14.4h7.1c1-2.1 2.2-4.2 3.2-5.6 2.7-4.1 3.4-4.5 6.2-4 4 .7 11.4 4 14.7 6.8 1.5 1.2 4.7 2.3 8.1 2.8h20.9c-10.1-4.8-16.2-6.9-19.8-6.9-2.5 0-5-.8-6.6-2-4.1-3.2-13.4-7-17.3-7zm-157.6 12.3c-2.9-.1-6.1.8-10.8 2.6a39.27 39.27 0 0 1-3.2 1h24.6c-.6-.4-1.2-.7-1.7-1-3.3-1.8-5.9-2.6-8.9-2.6z"/>
</svg>
